<svg xmlns="http://www.w3.org/2000/svg" viewBox="0 0 1917.511 874.619" width="3835.022" height="1749.237">
  <defs>
    <style>
      @font-face{font-family:&quot;Virgil&quot;;src:url(https://excalidraw.com/Virgil.woff2)}@font-face{font-family:&quot;Cascadia&quot;;src:url(https://excalidraw.com/Cascadia.woff2)}@font-face{font-family:&quot;Assistant&quot;;src:url(https://excalidraw.com/Assistant-Regular.woff2)}
    </style>
  </defs>
  <g stroke-linecap="round">
    <path d="M337.836 236.097s0 0 0 0m0 0s0 0 0 0m-6.17 13.19c5.5-5.11 6.43-8.42 15.75-18.11m-15.75 18.11c3.25-3.1 5.88-7.69 15.75-18.11m-16.01 24.51c5.68-7.54 11.17-14.27 22.31-25.66m-22.31 25.66c5.3-5.71 12.59-14.24 22.31-25.66m-22.57 32.06c12.21-13.3 20.67-21.39 28.87-33.21m-28.87 33.21c8.15-8.79 17.46-19.48 28.87-33.21m-28.48 38.85c8.92-10.84 21.4-24.77 34.12-39.24m-34.12 39.24c12.12-15.66 25.75-29.01 34.12-39.24m-34.38 45.64c8.74-8.37 17.2-18.59 39.37-45.28m-39.37 45.28c15.54-17.58 31.79-35.58 39.37-45.28m-38.97 50.92c9.09-11.92 21.1-26.21 44.61-51.32m-44.61 51.32c15-16.05 27.42-30.8 44.61-51.32m-44.87 57.72c20.58-19.93 38.6-43.91 49.86-57.36m-49.86 57.36c19.79-21.78 38.57-43.77 49.86-57.36m-50.13 63.76c23.15-23.02 42.02-49.99 55.77-64.15m-55.77 64.15c15.08-17.51 29.46-32.73 55.77-64.15m-55.37 69.79c12.93-16.1 29.19-31.12 60.36-69.43m-60.36 69.43c17.16-19.52 35.19-39.52 60.36-69.43m-60.62 75.83c12.09-13.7 27.39-30.48 65.6-75.47m-65.6 75.47c16.74-19.28 34.48-39.17 65.6-75.47m-65.21 81.11c21.94-27.22 48.23-56.98 70.86-81.51m-70.86 81.51c27.55-31.03 51.92-60.7 70.86-81.51m-71.12 87.91c26.15-28.84 50.05-59.1 76.1-87.55m-76.1 87.55c23.9-25.79 46.44-53.65 76.1-87.55m-76.36 93.95c22.44-27.16 47.73-54.78 82.01-94.34m-82.01 94.34c32.31-37.66 66.12-73.54 82.01-94.34m-80.96 99.23c33.11-37.26 68.36-78.51 85.94-98.87m-85.94 98.87c32.23-35.73 64.45-73.09 85.94-98.87m-83.58 102.25c31.81-37.76 65.1-72.01 89.23-102.64m-89.23 102.64c21.68-25.82 42.19-51.05 89.23-102.64m-87.52 106.77c29.2-34.06 57.47-63.47 92.5-106.41m-92.5 106.41c23.82-28.52 48.31-56.33 92.5-106.41m-90.14 109.79c23.18-25.13 42.18-45.67 95.79-110.19m-95.79 110.19c26.33-28.11 50.82-57.31 95.79-110.19m-92.11 112.06c22.94-26.14 44.42-52.08 97.09-111.7m-97.09 111.7c36.3-39.54 70.59-79.5 97.09-111.7m-93.42 113.57c28.43-31.72 56.4-64.04 99.07-113.96m-99.07 113.96c29.07-33.98 59.16-68.88 99.07-113.96m-95.39 115.83c37.5-43.44 78.21-90.1 100.37-115.47m-100.37 115.47c18.62-23.01 39.19-46.37 100.37-115.47m-95.39 115.83c35.7-41.02 69.63-79.85 101.04-116.23m-101.04 116.23c28.98-34.34 56.84-67.07 101.04-116.23m-96.05 116.59c29.93-32.4 56.94-67.81 101.03-116.23m-101.03 116.23c35.72-41.99 72.8-84.68 101.03-116.23m-96.04 116.59c33.82-36.78 67.47-75.15 101.03-116.23m-101.03 116.23c24.23-26.58 49.87-56.17 101.03-116.23m-96.05 116.59c24.49-29.07 50.18-58.36 101.04-116.23m-101.04 116.23c38.97-46.25 78-91.47 101.04-116.23m-95.39 115.83c35.19-41.75 70.09-80.53 100.37-115.47m-100.37 115.47c30.39-34.57 60.57-69.41 100.37-115.47m-95.39 115.83c31.64-35.8 60.86-71.04 99.07-113.96m-99.07 113.96c21.36-24.46 42.23-49.55 99.07-113.96m-93.42 113.57c26-29.21 48.29-54.18 96.44-110.94m-96.44 110.94c25.16-28.03 50.16-57.77 96.44-110.94m-91.46 111.3c28.49-29.5 58.72-63.89 95.13-109.43m-95.13 109.43c33.66-38.33 68.75-77.8 95.13-109.43m-89.48 109.03c24.18-28.44 47.79-55.01 91.85-105.66m-91.85 105.66c18.67-21.46 38.25-43.6 91.85-105.66m-86.87 106.02c30.6-34.25 63.22-69.09 88.57-101.88m-88.57 101.88c31.86-34.94 62.7-71.97 88.57-101.88m-82.92 101.49c30.82-35.9 60.87-72.56 84.63-97.36m-84.63 97.36c28.84-35.42 58.08-67.9 84.63-97.36m-79.65 97.72c20.38-22.54 36.34-42.37 80.04-92.08m-80.04 92.08c24.28-27.52 48.43-53.87 80.04-92.08m-75.05 92.44c23.21-24.17 44.26-50.06 76.1-87.55m-76.1 87.55c27.78-31.29 55.64-62.37 76.1-87.55m-70.46 87.16c14.93-18.25 33.18-35.39 70.86-81.51m-70.86 81.51c19.64-24.08 40.57-47.52 70.86-81.51m-65.87 81.87c20.44-23.98 44.64-52 65.61-75.48m-65.61 75.48c13.22-15.19 25.5-28.9 65.61-75.48m-59.97 75.08c12.98-13.85 26.1-27.41 59.71-68.68m-59.71 68.68c15.3-16.93 28.13-32.31 59.71-68.68m-54.72 69.04c20.13-21.05 38.03-43.3 55.11-63.39m-55.11 63.39c18.83-21.83 39.11-43.43 55.11-63.39m-49.46 63c14.35-18.54 32.08-36.64 49.2-56.61m-49.2 56.61c18.39-22.73 39.67-45.6 49.2-56.61m-44.22 56.97c17.21-16.04 31.92-35.9 43.96-50.57m-43.96 50.57c14.19-17.41 28.06-34.47 43.96-50.57m-38.31 50.17c11.15-12.56 17.98-21.63 38.7-44.53m-38.7 44.53c9.25-11.45 19.96-22.34 38.7-44.53m-33.72 44.89c9.94-10.51 21.82-27.1 33.46-38.49m-33.46 38.49c5.97-7.91 14.33-15.07 33.46-38.49m-27.81 38.1c9.42-12.14 22.67-25 27.55-31.7m-27.55 31.7c8.55-8.19 15.2-17.3 27.55-31.7m-21.26 30.55c4.24-5.68 8.07-10.88 21.65-24.91m-21.65 24.91c6.8-7.61 12.61-15.91 21.65-24.91m-14.03 22.25c4.63-2.74 6.95-9.08 11.8-13.59m-11.8 13.59c3.16-4.5 7.51-8.78 11.8-13.59" stroke="#a5d8ff" stroke-width=".5" fill="none"/>
    <path d="M359.896 228.597c38.89 1.19 72.89-.92 103.61 0m-103.61 0c29.51.47 57.01.3 103.61 0m0 0c18.65-.62 28.09 11.63 29.17 29.17m-29.17-29.17c18-2.19 28.61 11.07 29.17 29.17m0 0c-1.06 16.58 2.34 33.05 0 58.33m0-58.33c.73 22.76.26 44.71 0 58.33m0 0c.32 17.84-9.21 27.59-29.17 29.17m29.17-29.17c2.02 18.26-7.59 28.79-29.17 29.17m0 0c-33.21-.64-63.48-.85-103.61 0m103.61 0c-40.96 1.38-82.72 1.26-103.61 0m0 0c-19.95-.32-27.35-9.63-29.17-29.17m29.17 29.17c-19.52 2.11-31.4-10.16-29.17-29.17m0 0c-1.48-13.23-1.33-24.71 0-58.33m0 58.33c.69-16.9 1.23-34.62 0-58.33m0 0c-1.6-20.59 9.98-30.49 29.17-29.17m-29.17 29.17c1.88-17.73 7.97-27.18 29.17-29.17" stroke="#000" fill="none"/>
  </g>
  <text x="28.125" font-family="Cascadia, Segoe UI Emoji" font-size="16" text-anchor="middle" style="white-space:pre" dominant-baseline="text-before-edge" transform="translate(383.575 277.333)">ogmios</text>
  <g stroke-linecap="round">
    <path d="M132.036 232.742s0 0 0 0m0 0s0 0 0 0m-6.17 13.19c6.89-8.39 11.03-13.89 15.75-18.11m-15.75 18.11c6.23-6.46 10.47-12.82 15.75-18.11m-16.01 24.51c7.25-5.5 13.45-13.94 22.31-25.66m-22.31 25.66c4.16-4.59 8.58-9.89 22.31-25.66m-22.57 32.06c7.57-9.43 13.53-16.81 28.87-33.21m-28.87 33.21c6.09-6.43 13.49-13.76 28.87-33.21m-28.48 38.85c14.57-17.73 26.58-31.97 34.12-39.24m-34.12 39.24c8.75-11.63 19.02-23.04 34.12-39.24m-34.38 45.64c12.33-12.9 25.82-30.09 39.37-45.28m-39.37 45.28c13.17-14.25 25.42-29.9 39.37-45.28m-38.97 50.92c13.42-17.79 29.21-35.92 44.61-51.32m-44.61 51.32c10.13-11.86 22.39-24.15 44.61-51.32m-44.87 57.72c14.9-20.55 33.3-36.97 49.86-57.36m-49.86 57.36c11.88-13.62 22.66-25.73 49.86-57.36m-50.13 63.76c21.14-24.91 41.4-47.34 55.77-64.15m-55.77 64.15c17.43-19.59 35.59-41.57 55.77-64.15m-55.37 69.79c22.45-23.15 41.72-49.32 60.36-69.43m-60.36 69.43c18.12-20.94 35.04-40.7 60.36-69.43m-60.62 75.83c26.35-29.33 52.75-59.89 65.6-75.47m-65.6 75.47c16.81-19.66 35.3-37.29 65.6-75.47m-65.21 81.11c13.98-14.75 29.77-34.08 70.86-81.51m-70.86 81.51c20.84-24.67 40.59-49.3 70.86-81.51m-71.12 87.91c28.8-34.15 59.48-71.19 76.1-87.55m-76.1 87.55c21.92-25.51 42.18-50.55 76.1-87.55m-76.36 93.95c22.51-28.15 48.92-52.64 82.01-94.34m-82.01 94.34c28.83-34.19 59.95-68.97 82.01-94.34m-80.96 99.23c24.3-28.2 48.71-54.41 85.94-98.87m-85.94 98.87c27.76-30.8 54.89-60.66 85.94-98.87m-83.58 102.25c35.21-39.11 69.86-80.84 89.23-102.64m-89.23 102.64c20.47-24.63 41.27-47.89 89.23-102.64m-87.52 106.77c24.44-29.53 51.73-60.84 92.5-106.41m-92.5 106.41c32.68-37.12 65.15-75.31 92.5-106.41m-90.14 109.79c37.14-42.38 71.79-84.25 95.79-110.19m-95.79 110.19c24.68-27.78 48.02-55.38 95.79-110.19m-92.11 112.06c24.08-27.03 46.15-50.42 97.09-111.7m-97.09 111.7c27.93-33.75 57.24-66.12 97.09-111.7m-93.42 113.57c35.47-41.62 71.54-84.06 99.07-113.96m-99.07 113.96c32.66-34.92 63.94-71.07 99.07-113.96m-95.39 115.83c29.76-39.56 63.35-76 100.37-115.47m-100.37 115.47c33.74-40.16 67.01-79.64 100.37-115.47m-95.39 115.83c32.65-37.25 68.98-76.51 101.04-116.23m-101.04 116.23c36.32-39.4 70.57-79.39 101.04-116.23m-96.05 116.59c26.41-29.37 51.3-61.39 101.03-116.23m-101.03 116.23c35.4-42.31 72.27-83.31 101.03-116.23m-96.04 116.59c31.87-37.79 67.74-77.63 101.03-116.23m-101.03 116.23c24.53-25.31 47.14-51.95 101.03-116.23m-96.05 116.59c37.54-43.03 75.14-85.85 101.04-116.23m-101.04 116.23c32.06-38.11 65.21-76.41 101.04-116.23m-95.39 115.83c29.16-32.62 56.73-62.8 100.37-115.47m-100.37 115.47c27.58-32.19 53.79-63.35 100.37-115.47m-95.39 115.83c30.56-31.4 56.47-67.67 99.07-113.96m-99.07 113.96c30.88-33.97 59.29-67.31 99.07-113.96m-93.42 113.57c30.87-32.14 58.05-66.96 96.44-110.94m-96.44 110.94c32.15-37.29 65.16-75.59 96.44-110.94m-91.46 111.3c24.55-28.43 47.8-52.02 95.13-109.43m-95.13 109.43c20.93-23.58 42.65-48.79 95.13-109.43m-89.48 109.03c23.21-24.03 43.47-51.34 91.85-105.66m-91.85 105.66c29.09-34.46 58.44-67.85 91.85-105.66m-86.87 106.02c17.7-21.34 38.17-39.1 88.57-101.88m-88.57 101.88c30-36.29 61.93-71.16 88.57-101.88m-82.92 101.49c30.31-34.43 62.3-73.49 84.63-97.36m-84.63 97.36c24.04-25.16 46.57-50.54 84.63-97.36m-79.65 97.72c23.73-26.13 47.68-55.47 80.04-92.08m-80.04 92.08c18.06-20.59 34.75-39.05 80.04-92.08m-75.05 92.44c19.12-19.76 36.49-41.4 76.1-87.55m-76.1 87.55c17.1-20.7 35.12-40.06 76.1-87.55m-70.46 87.16c18.16-18.96 32.01-36.15 70.86-81.51m-70.86 81.51c15.71-17.77 31.75-36.12 70.86-81.51m-65.87 81.87c14.66-15.67 29.11-32.37 65.61-75.48m-65.61 75.48c16.18-18.66 33.49-38.54 65.61-75.48m-59.97 75.08c16.88-16.1 30.22-34.05 59.71-68.68m-59.71 68.68c17.18-20.91 34.79-40.37 59.71-68.68m-54.72 69.04c19.39-25.8 40.84-50.73 55.11-63.39m-55.11 63.39c20.02-24.18 40.92-46.46 55.11-63.39m-49.46 63c17.19-22.42 35.45-40.19 49.2-56.61m-49.2 56.61c12.11-15.03 24.91-29.27 49.2-56.61m-44.22 56.97c10.11-13.77 21.27-27.22 43.96-50.57m-43.96 50.57c9.22-9.79 17.19-21.28 43.96-50.57m-38.31 50.17c13.48-14.29 29.36-30.84 38.7-44.53m-38.7 44.53c14.28-16.77 28.78-33.4 38.7-44.53m-33.72 44.89c7.31-8.06 15.81-17.17 33.46-38.49m-33.46 38.49c13.1-14.19 25.68-29 33.46-38.49m-27.81 38.1c10.24-9.83 21.29-20.64 27.55-31.7m-27.55 31.7c6.91-6.76 13.13-15.08 27.55-31.7m-21.26 30.55c6.55-8.92 14.08-13.03 21.65-24.91m-21.65 24.91c7.18-7.48 12.13-14.99 21.65-24.91m-14.03 22.25c1.47-1.5 5.75-4.8 11.8-13.59m-11.8 13.59c4.3-3.96 6.75-8.57 11.8-13.59" stroke="#a5d8ff" stroke-width=".5" fill="none"/>
    <path d="M154.096 225.242c32.62.54 66.39.83 103.61 0m-103.61 0c39.38-.3 81.15.81 103.61 0m0 0c18.39-.81 30.91 8.42 29.17 29.17m-29.17-29.17c18.63.47 27.78 11.17 29.17 29.17m0 0c-.52 21.18-1.07 43.88 0 58.33m0-58.33c-.24 19.58-.23 40.52 0 58.33m0 0c-.05 18.01-7.81 28.56-29.17 29.17m29.17-29.17c1.74 19.43-9.09 29.3-29.17 29.17m0 0c-28.95.49-57.02-1.25-103.61 0m103.61 0c-24.3-.59-50.1-.73-103.61 0m0 0c-19.59-1.52-27.74-11.5-29.17-29.17m29.17 29.17c-20.33 1.64-30.24-10.55-29.17-29.17m0 0c1.61-23.22-.34-44.79 0-58.33m0 58.33c1.11-13.53.72-26.2 0-58.33m0 0c-1.59-19.84 10.19-27.75 29.17-29.17m-29.17 29.17c.19-20.18 10.5-28.39 29.17-29.17" stroke="#000" fill="none"/>
  </g>
  <text x="18.75" font-family="Cascadia, Segoe UI Emoji" font-size="16" text-anchor="middle" style="white-space:pre" dominant-baseline="text-before-edge" transform="translate(187.15 273.978)">kupo</text>
  <g stroke-linecap="round">
    <path d="M229.67 29.956s0 0 0 0m0 0s0 0 0 0m-6.17 13.19c4.54-5.47 8.56-8.76 15.75-18.11m-15.75 18.11c4.48-6.89 11.87-12.8 15.75-18.11m-16.01 24.51c3.36-7.33 9.29-9.94 22.31-25.66m-22.31 25.66c7.54-9.92 16.05-17.95 22.31-25.66m-22.57 32.06c9.32-6.34 15.93-16.28 28.87-33.21m-28.87 33.21c9.54-10.47 17.99-21.1 28.87-33.21m-28.48 38.85c10.12-10.53 18.91-22.97 34.12-39.24m-34.12 39.24c8.87-9.02 17.61-19.47 34.12-39.24m-34.38 45.64c10.62-13.43 20.92-24.16 39.37-45.28m-39.37 45.28c7.4-8.47 16.34-17.84 39.37-45.28m-38.97 50.92c16.59-18.92 33.76-39.18 44.61-51.32m-44.61 51.32c14.64-17.72 30.74-34.26 44.61-51.32m-44.87 57.72c13.67-17.56 26.45-31.14 49.86-57.36m-49.86 57.36c18.83-21.61 37.34-44.55 49.86-57.36m-50.13 63.76c11.19-11.02 22.73-26.04 55.77-64.15m-55.77 64.15c16.5-18.23 33.94-36.46 55.77-64.15m-55.37 69.79c20.42-24 39.75-46.88 60.36-69.43m-60.36 69.43c16.91-19.05 33.35-38.63 60.36-69.43m-60.62 75.83c25.96-30.07 52.47-56.41 65.6-75.47m-65.6 75.47c24.29-29 50.36-58.39 65.6-75.47m-65.21 81.11c20.21-20.95 39.78-46.22 70.86-81.51m-70.86 81.51c14.66-17.44 29.1-33.31 70.86-81.51m-71.12 87.91c25.53-31.12 54.8-62.35 76.1-87.55m-76.1 87.55c19.27-21.08 39.04-42.31 76.1-87.55m-76.36 93.95c25-27.4 48.89-59.01 82.01-94.34m-82.01 94.34c15.77-18.64 33.64-38.96 82.01-94.34m-80.96 99.23c18.1-21.03 36.21-39.81 85.94-98.87m-85.94 98.87c28.3-32.74 56.3-65.25 85.94-98.87m-83.58 102.25c34.27-37.45 67.4-78.33 89.23-102.64m-89.23 102.64c30.78-36.45 63.4-73.6 89.23-102.64m-87.52 106.77c26.85-35.55 57.01-68.79 92.5-106.41m-92.5 106.41c21.58-25.58 44.45-51.18 92.5-106.41m-90.14 109.79c21.1-26.46 44.58-50.44 95.79-110.19m-95.79 110.19c26.18-30.36 52.91-62.29 95.79-110.19m-92.11 112.06c29.06-30.83 55.02-63.72 97.09-111.7m-97.09 111.7c21.73-25.22 42.05-49.24 97.09-111.7m-93.42 113.57c31.39-38.64 65.16-75.39 99.07-113.96m-99.07 113.96c24.1-27.32 48.05-56.13 99.07-113.96m-95.39 115.83c25.5-24.75 48.15-51.11 100.37-115.47M241.5 138.296c27.27-29.49 53.69-60.36 100.37-115.47m-95.39 115.83c31.52-38.41 63.01-74.52 101.04-116.23m-101.04 116.23c24.76-28.12 48.84-58.35 101.04-116.23m-96.05 116.59c26.75-32.42 53.32-65.04 101.03-116.23m-101.03 116.23c37.54-42.56 73.76-86.51 101.03-116.23m-96.04 116.59c38.05-44.57 73.16-86.49 101.03-116.23m-101.03 116.23c35.74-39.73 69.48-80.34 101.03-116.23m-96.05 116.59c19.07-22.74 39.76-48.96 101.04-116.23m-101.04 116.23c34.7-39.8 67.59-79.88 101.04-116.23m-95.39 115.83c27.44-31.52 53.23-61.72 100.37-115.47m-100.37 115.47c31.73-36.47 61.34-72.24 100.37-115.47m-95.39 115.83c29.43-35.18 60.66-70.94 99.07-113.96m-99.07 113.96c33.74-37.93 69.06-77.44 99.07-113.96m-93.42 113.57c30.16-36.49 63.99-70.87 96.44-110.94m-96.44 110.94c37.26-41.05 74.72-84.93 96.44-110.94m-91.46 111.3c27.07-29.43 55.43-63.12 95.13-109.43m-95.13 109.43c34.24-38.93 66.83-76.59 95.13-109.43m-89.48 109.03c35.39-42.15 71.52-82.15 91.85-105.66m-91.85 105.66c26.92-33.24 56.5-65.59 91.85-105.66m-86.87 106.02c31.39-33.61 61.1-68.33 88.57-101.88m-88.57 101.88c30.17-34.7 58.16-68.71 88.57-101.88m-82.92 101.49c29.41-33.07 57.93-64.14 84.63-97.36m-84.63 97.36c26.68-30.94 53.93-63.38 84.63-97.36m-79.65 97.72c23.86-24.63 43.33-52.05 80.04-92.08m-80.04 92.08c19.21-23.13 37.94-45.2 80.04-92.08m-75.05 92.44c26.23-26.56 48.97-55.14 76.1-87.55m-76.1 87.55c24.32-29.68 50.06-58.76 76.1-87.55m-70.46 87.16c16.56-17.04 32.54-35.19 70.86-81.51m-70.86 81.51c13.67-17.47 30.31-35.8 70.86-81.51m-65.87 81.87c22.32-25.6 43.78-50.61 65.61-75.48m-65.61 75.48c24.11-28.54 49.1-57.58 65.61-75.48m-59.97 75.08c18.13-23.85 37.09-42.37 59.71-68.68m-59.71 68.68c23.66-26.23 47.34-52.63 59.71-68.68m-54.72 69.04c13.29-16.75 26.89-31.87 55.11-63.39m-55.11 63.39c19.65-22.75 37.89-44.23 55.11-63.39m-49.46 63c19.91-21.41 39.36-45.49 49.2-56.61m-49.2 56.61c12.7-16.46 26.51-33.06 49.2-56.61m-44.22 56.97c15.97-16.7 28.93-34.07 43.96-50.57m-43.96 50.57c9.82-10.91 20.81-23.86 43.96-50.57m-38.31 50.17c12-14.56 23.71-29.53 38.7-44.53m-38.7 44.53c8.8-8.42 16.62-20.03 38.7-44.53m-33.72 44.89c8.72-10.03 19.49-20.79 33.46-38.49m-33.46 38.49c11.32-12.88 21.63-26.02 33.46-38.49m-27.81 38.1c6.71-7.55 11.25-15.31 27.55-31.7m-27.55 31.7c8.91-8.88 17.25-19.89 27.55-31.7m-21.26 30.55c6.31-6.38 10.22-10.49 21.65-24.91m-21.65 24.91c4.65-4.29 9.7-11.41 21.65-24.91m-14.03 22.25c2.57-2.8 5.52-8.85 11.8-13.59m-11.8 13.59c3.16-2.43 5.9-5.73 11.8-13.59" stroke="#a5d8ff" stroke-width=".5" fill="none"/>
    <path d="M251.73 22.456c42.97-.13 83.52.14 103.61 0m-103.61 0c21.39.68 43.17-.48 103.61 0m0 0c18.38-.16 27.44 10.08 29.17 29.17m-29.17-29.17c19.79 2.16 29.04 11.86 29.17 29.17m0 0c-1.04 21.56.38 41.28 0 58.33m0-58.33c.46 16.07-1.25 33.95 0 58.33m0 0c-1.96 19.41-10.98 27.25-29.17 29.17m29.17-29.17c2.01 17.29-8.11 30.87-29.17 29.17m0 0c-35.81-.28-75.17 1.35-103.61 0m103.61 0c-41.31.31-83.25-.18-103.61 0m0 0c-19.04 1.17-30.16-8.61-29.17-29.17m29.17 29.17c-18.48-1.86-27.87-10.96-29.17-29.17m0 0c.15-16.73 1.15-38.52 0-58.33m0 58.33c1.05-19.33.49-40.39 0-58.33m0 0c-.02-17.94 9.01-27.99 29.17-29.17m-29.17 29.17c-.9-20.7 11.15-27.02 29.17-29.17" stroke="#000" fill="none"/>
  </g>
  <text x="56.25" font-family="Cascadia, Segoe UI Emoji" font-size="16" text-anchor="middle" style="white-space:pre" dominant-baseline="text-before-edge" transform="translate(247.283 71.193)">cardano-node</text>
  <g stroke-linecap="round">
    <path d="M226.72 755.446s0 0 0 0m0 0s0 0 0 0m-6.17 13.19c4.36-6.41 10.48-12.91 15.75-18.11m-15.75 18.11c4.53-6.7 10.87-12.79 15.75-18.11m-16.01 24.51c7.12-9.73 15.64-17.52 22.31-25.66m-22.31 25.66c6.97-7.9 12.18-14.86 22.31-25.66m-22.57 32.06c7.24-5.6 10.84-12.62 28.87-33.21m-28.87 33.21c8.02-9.93 17.03-19.91 28.87-33.21m-28.48 38.85c8.97-10.5 18.64-21.2 34.12-39.24m-34.12 39.24c11.15-11.06 22.26-23.25 34.12-39.24m-34.38 45.64c11.98-15.69 25.1-29.23 39.37-45.28m-39.37 45.28c11.39-13.55 22.18-27.56 39.37-45.28m-38.97 50.92c13.09-12.83 23.3-26.59 44.61-51.32m-44.61 51.32c14.88-17.79 31.33-34.17 44.61-51.32m-44.87 57.72c18.24-18.63 33.14-42.49 49.86-57.36m-49.86 57.36c15.7-16.04 29.81-33.45 49.86-57.36m-50.13 63.76c12.93-16.69 25.65-30.3 55.77-64.15m-55.77 64.15c16.35-21.53 35.58-41.45 55.77-64.15m-55.37 69.79c21.25-20.77 39.42-42.02 60.36-69.43m-60.36 69.43c14.72-17.84 28.45-35.19 60.36-69.43m-60.62 75.83c18.13-19.78 31.97-37.41 65.6-75.47m-65.6 75.47c16.38-21 35.15-39.81 65.6-75.47m-65.21 81.11c15.77-21.99 33.31-40.84 70.86-81.51m-70.86 81.51c22.88-25.34 44.2-51.01 70.86-81.51m-71.12 87.91c20.67-23.01 44.22-49.38 76.1-87.55m-76.1 87.55c23.92-27.52 48.77-56.53 76.1-87.55m-76.36 93.95c17.58-20.59 37.77-39.99 82.01-94.34m-82.01 94.34c19.39-22.85 40.18-45.33 82.01-94.34m-80.96 99.23c24.18-28.59 49.38-53.65 85.94-98.87m-85.94 98.87c25.62-29.12 49.25-56.52 85.94-98.87m-83.58 102.25c17.41-21.98 38.79-46.14 89.23-102.64m-89.23 102.64c31.35-36.26 62.37-71.36 89.23-102.64m-87.52 106.77c32.71-35.62 65.63-71.31 92.5-106.41m-92.5 106.41c25.39-29.46 49.79-58.44 92.5-106.41m-90.14 109.79c21.99-27.51 46.21-54.68 95.79-110.19m-95.79 110.19c36.81-43.03 72.41-85.71 95.79-110.19m-92.11 112.06c34.53-41.36 69.64-80.83 97.09-111.7m-97.09 111.7c25.62-29.57 52.68-58.09 97.09-111.7m-93.42 113.57c35.43-44.18 73.8-85.86 99.07-113.96m-99.07 113.96c23.57-26.17 49.19-55.53 99.07-113.96m-95.39 115.83c35.47-40.34 75.1-83.53 100.37-115.47m-100.37 115.47c36.16-39.56 71.32-81.18 100.37-115.47m-95.39 115.83c36.23-43.34 74.66-84.27 101.04-116.23m-101.04 116.23c23.32-26.84 47.91-54.88 101.04-116.23m-96.05 116.59c32.91-39.46 69.12-78.26 101.03-116.23m-101.03 116.23c32.42-36.15 63.94-72.6 101.03-116.23m-96.04 116.59c37.75-43.82 79.23-87.15 101.03-116.23m-101.03 116.23c27.09-31.06 53.81-63.18 101.03-116.23m-96.05 116.59c23.38-28.02 45.2-57.15 101.04-116.23m-101.04 116.23c22.74-25.3 44.56-51.79 101.04-116.23m-95.39 115.83c27.15-35.08 56.88-70.52 100.37-115.47m-100.37 115.47c21.1-24.36 43.09-51.07 100.37-115.47m-95.39 115.83c37.08-39.03 71.65-82.44 99.07-113.96m-99.07 113.96c22.52-23.88 43.83-47.98 99.07-113.96m-93.42 113.57c20.85-23.96 41.45-46.81 96.44-110.94m-96.44 110.94c35-40.9 70.26-82.34 96.44-110.94m-91.46 111.3c36.45-40.95 74.62-83.74 95.13-109.43m-95.13 109.43c35.13-40.26 69.69-79.48 95.13-109.43m-89.48 109.03c26.77-34.55 58.19-66.5 91.85-105.66m-91.85 105.66c33.81-39.86 69.05-78.77 91.85-105.66m-86.87 106.02c29.81-33.96 61.08-70.88 88.57-101.88m-88.57 101.88c34.38-39.32 69.37-79.41 88.57-101.88m-82.92 101.49c20.63-23.74 38.18-43.1 84.63-97.36m-84.63 97.36c26.49-31.58 52.81-60.78 84.63-97.36m-79.65 97.72c14.83-18.98 30.98-37.7 80.04-92.08m-80.04 92.08c25.98-29.98 53.79-61.31 80.04-92.08M306 865.446c18.53-21.48 36.77-44.32 76.1-87.55m-76.1 87.55c18.5-17.95 34.23-39.16 76.1-87.55m-70.46 87.16c23.39-29.05 47.08-54.77 70.86-81.51m-70.86 81.51c21.27-24.34 43.18-48.64 70.86-81.51m-65.87 81.87c22.44-22.66 44.05-50.75 65.61-75.48m-65.61 75.48c21.66-26.57 45.92-51.57 65.61-75.48m-59.97 75.08c12.25-14.14 25.6-32.29 59.71-68.68m-59.71 68.68c19.1-21.84 38.35-43.46 59.71-68.68m-54.72 69.04c14.26-17.29 30.52-33.73 55.11-63.39m-55.11 63.39c16.48-20.55 35.01-40.49 55.11-63.39m-49.46 63c15.03-20.37 34.53-37.96 49.2-56.61m-49.2 56.61c13.73-15.54 27.73-30.94 49.2-56.61m-44.22 56.97c14.94-19.51 31.45-34.63 43.96-50.57m-43.96 50.57c14.49-17.29 29.65-34.92 43.96-50.57m-38.31 50.17c11.06-16.73 24.48-31.21 38.7-44.53m-38.7 44.53c14.7-17.47 28.45-32.79 38.7-44.53m-33.72 44.89c7.87-11.81 21.55-23.79 33.46-38.49m-33.46 38.49c7.82-10.27 17.08-18.97 33.46-38.49m-27.81 38.1c10.67-11.13 18.61-24.7 27.55-31.7m-27.55 31.7c8.38-8.5 15.02-16.79 27.55-31.7m-21.26 30.55c4.91-9.06 14.97-14.07 21.65-24.91m-21.65 24.91c5.34-6.43 10.24-11.6 21.65-24.91m-14.03 22.25c6.23-4.92 7.21-11.13 11.8-13.59m-11.8 13.59c4.57-5.55 8.55-11.34 11.8-13.59" stroke="#a5d8ff" stroke-width=".5" fill="none"/>
    <path d="M248.78 747.946c22.69.5 50.62.26 103.61 0m-103.61 0c34.22-1.14 69.91.31 103.61 0m0 0c17.97-.37 29.14 10.73 29.17 29.17m-29.17-29.17c17.93.03 29.64 11.06 29.17 29.17m0 0c-1.3 15.73-.75 29.54 0 58.33m0-58.33c1.02 23.52-.63 45.75 0 58.33m0 0c-.26 20.99-7.77 29.95-29.17 29.17m29.17-29.17c.95 17.25-9.74 30.91-29.17 29.17m0 0c-28.48.84-52.91-.22-103.61 0m103.61 0c-31.23-.01-64.09-.66-103.61 0m0 0c-21.02-1.35-30.81-7.74-29.17-29.17m29.17 29.17c-17.37-2.12-29.58-10.38-29.17-29.17m0 0c-.99-14.98.64-28.89 0-58.33m0 58.33c-.53-18.42-.16-39.73 0-58.33m0 0c-1.84-19.29 8.15-31.07 29.17-29.17m-29.17 29.17c-.4-18.42 11.25-27.31 29.17-29.17" stroke="#000" fill="none"/>
  </g>
  <text x="46.875" font-family="Cascadia, Segoe UI Emoji" font-size="16" text-anchor="middle" style="white-space:pre" dominant-baseline="text-before-edge" transform="translate(253.71 796.682)">PostgreSQL</text>
  <path d="M357.406 150.128c.3 11.6 1.1 59.09 1.73 70.63m-.02-68.64c.76 11.29 1.89 55.6 2.2 66.97M252.294 151.35c.55 9.54 3.83 48.36 4.27 58.08m-2.32-55.9c.42 9.65 1.32 47.4 1.85 56.91" stroke="#000" fill="none" stroke-linecap="round"/>
  <g stroke-linecap="round">
    <path d="M22.89 473.289s0 0 0 0m0 0s0 0 0 0m-4.86 11.69c11.83-10 20.66-22.41 30.84-35.48m-30.84 35.48c7.62-8.92 15.05-17.66 30.84-35.48m-35.03 46.4c15.07-16.1 26.75-33.24 49.2-56.6m-49.2 56.6c12.05-14.59 24.9-29.2 49.2-56.6m-53.4 67.53c20.31-23.23 40.09-44.73 64.29-73.96m-64.29 73.96c24.19-27.64 47.63-54.15 64.29-73.96m-62.58 78.09c23.48-26.3 45.25-54.55 72.82-83.77m-72.82 83.77c18.17-19.4 34.56-39.37 72.82-83.77m-71.77 88.66c33.86-38.17 65.35-75.49 82.66-95.09m-82.66 95.09c26.39-29.07 50.61-58.72 82.66-95.09m-81.61 99.98c31.05-34.91 60.03-67.8 89.88-103.4m-89.88 103.4c20.95-22.39 41.09-46.93 89.88-103.4M14.5 525.629c21.37-25.14 44.58-50.94 96.44-110.95M14.5 525.629c31.37-35.09 63.71-71.49 96.44-110.95m-95.39 115.83c21.92-29.27 45.84-56.15 103-118.48m-103 118.48c37.87-43.53 75.74-86.83 103-118.48M17.26 534.649c38.06-41.7 71.86-81.33 108.25-124.53M17.26 534.649c31.24-36.78 62.82-72.56 108.25-124.53m-107.2 129.42c36.11-40.13 69.4-79.97 114.81-132.08M18.31 539.539c34.83-41.62 69.27-82.09 114.81-132.08M20.67 542.919c37.91-42.84 74.23-83.27 119.4-137.36m-119.4 137.36c30.56-36.68 60.9-72.38 119.4-137.36M23.69 545.539c49.68-56.98 99.53-113.8 123.99-142.64M23.69 545.539c45.22-49.06 89.85-99.63 123.99-142.64M26.05 548.919c49.66-56.85 97.83-113.05 129.24-148.68M26.05 548.919c36.72-40.74 73.45-82.66 129.24-148.68M28.41 552.299c41.62-48.48 83.1-96.8 133.84-153.96M28.41 552.299c45.47-53.64 92.27-105.54 133.84-153.96M31.43 554.919c37.77-43.56 77.6-89.71 138.43-159.24M31.43 554.919c53.16-61.4 107.59-123.38 138.43-159.24M33.79 558.299c55.61-61.64 108.79-126.06 141.71-163.02M33.79 558.299c49.63-57.55 101.17-116.66 141.71-163.02m-139.34 166.4c51.77-57.85 102.15-117.02 145.64-167.55M36.16 561.679c29.99-35.52 61.02-69.79 145.64-167.55M39.18 564.299c57.21-63.91 112.58-125.65 148.27-170.56M39.18 564.299c31.43-38.24 63.7-74.88 148.27-170.56M41.54 567.679c34.35-37.61 65.1-74.42 152.2-175.09m-152.2 175.09c55.73-64.41 110.06-126.74 152.2-175.09M44.56 570.309c49.81-55.97 100.88-113.43 155.48-178.87M44.56 570.309c33.22-36.17 65.57-72.81 155.48-178.87M47.58 572.929c59.49-67.43 118.35-134.12 158.11-181.88M47.58 572.929c41.9-48.07 82.51-94.56 158.11-181.88M50.6 575.559c44.97-49.34 88-102.84 161.39-185.66M50.6 575.559c48.84-56.3 98.08-111.6 161.39-185.66M54.27 577.429c56.69-64.13 111.48-127.93 163.36-187.93M54.27 577.429c50.26-56.51 98.51-113.1 163.36-187.93M57.95 579.289c40.47-43.66 80.85-91.52 165.98-190.94M57.95 579.289c61.72-69.93 122.57-139.71 165.98-190.94M60.96 581.919c58.19-68.25 116.87-136.65 169.27-194.72M60.96 581.919c44.21-53.13 90.4-105.51 169.27-194.72M64.64 583.789c61.17-72.61 126.1-144.53 171.23-196.98M64.64 583.789c62.36-71.68 125.11-145.25 171.23-196.98m-168.21 199.6c39.24-47.81 82.21-95.93 173.85-200m-173.85 200c61.13-71.44 123.01-141.12 173.85-200M71.33 588.279c63.93-75.73 128.83-147.62 175.83-202.26M71.33 588.279c64.23-73.18 126.37-145.63 175.83-202.26M75.01 590.149c59.83-66.86 121.94-137.84 177.79-204.52M75.01 590.149c55.73-66.35 112.06-130.53 177.79-204.52M78.03 592.779c57.72-65.87 114.29-130.38 180.41-207.55M78.03 592.779c48.23-57.38 98.78-114.41 180.41-207.55M81.7 594.649c39.4-44.99 79.14-90.15 182.39-209.81M81.7 594.649c58.4-68.14 118.84-138.15 182.39-209.81M84.72 597.269c47.04-52.9 95.15-107.41 185.01-212.83M84.72 597.269c66.15-75.32 131.12-149.61 185.01-212.83M88.4 599.139c61.22-69.66 124-141.11 186.97-215.09M88.4 599.139c62.99-73.82 127.19-145.72 186.97-215.09m-183.3 216.96c71.13-83.4 141.52-163.53 188.29-216.6m-188.29 216.6c60.91-70.38 120.64-138.78 188.29-216.6M96.4 602.119c66.07-78.76 136-157.79 189.6-218.11M96.4 602.119c54.21-64.94 109.67-127.61 189.6-218.11m-185.27 219.23c41.9-50.09 84.25-99.7 190.92-219.62m-190.92 219.62c69.96-81.12 141.29-163.56 190.92-219.62m-187.24 221.49c53.37-59.75 105.19-121.96 192.88-221.89m-192.88 221.89c62.84-70.75 123.26-140.68 192.88-221.89m-188.55 223c60.44-72.86 122.83-144.75 194.19-223.39m-194.19 223.39c45.95-52.04 91.57-104.89 194.19-223.39m-190.52 225.26c54.16-64.37 110.02-128.84 196.16-225.66m-196.16 225.66c68.2-78.29 135.27-155.38 196.16-225.66m-191.83 226.78c65.69-74.5 130.06-150.7 197.48-227.17m-197.48 227.17c56.3-64.14 112.89-131.22 197.48-227.17m-193.8 229.04c51.83-62.04 105.77-121.1 198.78-228.68m-198.78 228.68c58.25-66.81 113.63-131.9 198.78-228.68m-194.45 229.79c59.79-65.7 117.04-131.03 199.44-229.43m-199.44 229.43c44.27-51.22 88.89-103.6 199.44-229.43m-195.11 230.55c69.46-81.77 142.4-163.31 199.44-229.44m-199.44 229.44c49.51-55.8 98.91-111.53 199.44-229.44m-195.76 231.31c76.68-88.11 152.5-175.58 200.75-230.95m-200.75 230.95c43.75-51.49 88.02-103.58 200.75-230.95m-196.42 232.06c74.63-80.64 146.5-164.47 201.41-231.69m-201.41 231.69c66.4-74.88 131.64-149.45 201.41-231.69m-197.74 233.56c73.15-83.87 147.55-169.33 202.72-233.2m-202.72 233.2c67.39-79.81 136.06-158.86 202.72-233.2m-198.39 234.32c64.5-74.56 128.56-148.46 203.38-233.96m-203.38 233.96c42.07-47.1 83.86-95.69 203.38-233.96m-199.05 235.07c69.11-80.99 139.96-160.31 204.04-234.71m-204.04 234.71c68.9-78.8 138.49-158.43 204.04-234.71m-199.71 235.82c72.2-81.12 143.41-162.73 204.69-235.46m-204.69 235.46c76.98-86.76 152.75-173.5 204.69-235.46m-200.35 236.58c79.23-88.94 159.44-179.8 204.69-235.47m-204.69 235.47c53.59-64.99 108.95-127.66 204.69-235.47m-199.71 235.83c44.51-53.89 91.56-106.52 204.69-235.47m-204.69 235.47c59.31-66.18 117.23-132.98 204.69-235.47M167.4 624.089c66.77-76.79 130.98-152.21 205.35-236.22M167.4 624.089c55.25-63.13 109.48-125.77 205.35-236.22m-201.02 237.34c78.28-89.9 155.32-180.37 206.01-236.98m-206.01 236.98c41.93-48.41 83.74-97.94 206.01-236.98m-201.67 238.09c70.97-79.44 139.04-159.58 206.65-237.73m-206.65 237.73c73.64-86.18 148.02-171.14 206.65-237.73m-201.67 238.09c65.33-72.74 127.54-146.39 206.66-237.73m-206.66 237.73c80.09-92.12 159.34-182.76 206.66-237.73m-202.33 238.85c78.59-89.99 155.52-177.36 206.66-237.73m-206.66 237.73c56.37-64.58 112.06-128.67 206.66-237.73m-202.33 238.84c75.56-82.83 149.45-169.03 207.32-238.48m-207.32 238.48c53.24-63.13 108.12-125.36 207.32-238.48M194.7 629.269c71.35-82.89 144.1-166.56 206.66-237.73M194.7 629.269c44.3-49.85 86.69-98.4 206.66-237.73m-202.33 238.85c68.96-78.87 138.92-160.66 206.66-237.73m-206.66 237.73c53.65-61.71 108.91-126.44 206.66-237.73m-202.33 238.84c64.65-77.34 133.43-152.11 207.32-238.48m-207.32 238.48c55.75-65.17 112.39-129.38 207.32-238.48m-202.99 239.6c68.44-75.56 133.05-151.45 207.32-238.49m-207.32 238.49c46.86-53.24 92.49-106 207.32-238.49m-202.33 238.85c66.06-74.89 130.86-149.11 206.66-237.73m-206.66 237.73c54.5-61.47 106.95-121.91 206.66-237.73m-202.33 238.84c48.78-59.51 100.06-115.25 207.32-238.48m-207.32 238.48c69.2-80.18 140.75-161.98 207.32-238.48M222 634.449c66.16-75.91 132.35-150.54 206.66-237.73M222 634.449c49.42-57.6 99.29-115.26 206.66-237.73m-201.67 238.09c56.17-64.19 112.85-131.21 206.65-237.73m-206.65 237.73c45.7-51.71 92.18-105.17 206.65-237.73m-201.67 238.09c55.49-62.82 111.67-127.66 206.01-236.98m-206.01 236.98c42.79-47.71 84.78-94.87 206.01-236.98m-201.02 237.34c55.99-66.19 114.04-133.23 205.35-236.22m-205.35 236.22c52.92-62.58 106.97-125.29 205.35-236.22m-200.36 236.58c57.27-66.68 112.99-131.8 205.34-236.22m-205.34 236.22c42.78-47.21 84.55-95.91 205.34-236.22m-200.36 236.58c74.42-85.49 148.27-173.39 204.69-235.47m-204.69 235.47c49.92-56.97 99.87-114.69 204.69-235.47m-199.7 235.83c81.91-92.2 162.9-184.66 204.04-234.71m-204.04 234.71c81.47-91.2 160.89-184.66 204.04-234.71m-199.05 235.07c60.24-68.14 119.32-135.91 203.38-233.96m-203.38 233.96c70.77-80.8 141.08-161.22 203.38-233.96M261.9 637.329c53.05-59.94 104.61-119.36 202.06-232.45M261.9 637.329c44.6-52.26 90.18-104.96 202.06-232.45m-197.08 232.81c60.25-67.34 119.17-136.48 201.41-231.69m-201.41 231.69c66.9-76.78 132.7-151.59 201.41-231.69m-196.42 232.05c46.71-52.94 93.02-105.66 200.1-230.18m-200.1 230.18c44.63-51.03 90.43-104.29 200.1-230.18m-195.11 230.54c48.33-55.05 98.98-111.21 199.44-229.43m-199.44 229.43c67.85-78.08 135.51-155.56 199.44-229.43m-194.46 229.79c51.32-60.33 103.61-122.54 198.13-227.92m-198.13 227.92c45.45-52.31 89.69-105.4 198.13-227.92m-193.14 228.28c57.27-67.35 119.28-135.78 197.47-227.16m-197.47 227.16c67.76-78.74 135.78-155.33 197.47-227.16m-192.48 227.53c51.07-58.3 101.52-114.3 196.16-225.66m-196.16 225.66c67.52-78.61 134.67-156.63 196.16-225.66m-190.52 225.26c50.59-57.61 101.68-117.73 194.19-223.39m-194.19 223.39c49.15-57.68 99.89-116.73 194.19-223.39m-188.55 223c49.27-57.55 100.98-117.8 192.88-221.89M303.1 638.709c72.39-86.56 146.53-171.92 192.88-221.89m-187.89 222.25c74.96-85.36 149.38-173.93 191.57-220.38m-191.57 220.38c43.4-49.48 86.46-100.13 191.57-220.38m-185.93 219.98c59.82-67.6 117.77-135.12 190.26-218.86m-190.26 218.86c46.13-52.85 92.16-106.58 190.26-218.86m-184.61 218.47c41.32-46.49 81.85-93.82 188.29-216.6m-188.29 216.6c67.85-79.23 136.65-158.18 188.29-216.6m-183.31 216.96c70.17-80.86 137.24-160.69 187.64-215.85m-187.64 215.85c59.21-67.94 118.78-136.57 187.64-215.85m-181.99 215.45c55.61-65.75 115.01-133.69 185.66-213.58m-185.66 213.58c70.15-78.34 138.56-158.04 185.66-213.58m-180.02 213.19c68.78-79.49 139.72-162.59 183.7-211.32m-183.7 211.32c50.21-58.73 99.51-114.65 183.7-211.32m-178.71 211.68c58.44-66.13 115.44-134.17 182.38-209.81m-182.38 209.81c65.76-74.5 128.78-148.92 182.38-209.81m-176.74 209.41c42.79-49.94 85.1-99.22 179.76-206.79m-179.76 206.79c51.33-58.54 102.98-117.48 179.76-206.79m-174.77 207.15c63.63-72.02 126.8-145.09 178.44-205.28m-178.44 205.28c71.4-82.61 143.55-165.15 178.44-205.28m-172.8 204.89c36.31-38.89 71.62-80.35 176.48-203.02m-176.48 203.02c39.97-45.99 78.85-89.69 176.48-203.02m-170.84 202.62c63.41-74.1 128.39-144.91 173.86-199.99m-173.86 199.99c67.47-79.32 136.33-158.44 173.86-199.99m-168.87 200.35c49.27-54.86 96.77-111.15 172.54-198.48m-172.54 198.48c38.53-42.21 77.39-86.45 172.54-198.48m-166.24 197.33c62.79-73.02 127.77-145.76 169.26-194.71m-169.26 194.71c32.49-39.5 66.44-78.81 169.26-194.71m-162.96 193.57c42.19-51.18 85.6-99.07 166.64-191.7m-166.64 191.7c54.32-64.01 110.53-127.44 166.64-191.7m-160.34 190.55c44.38-50.73 87.76-99.3 164.01-188.68m-164.01 188.68c47.56-53.51 94.23-108.27 164.01-188.68m-157.71 187.53c40.67-46.96 83.87-92.08 160.73-184.91m-160.73 184.91c47.09-53.18 94.69-108.29 160.73-184.91m-154.43 183.76c58.67-67.98 116.44-134.26 158.11-181.89m-158.11 181.89c50-54.39 97.62-110.5 158.11-181.89m-151.82 180.74c59.37-65.86 117.92-133.17 154.83-178.11m-154.83 178.11c48.51-55.72 97.67-112.45 154.83-178.11m-148.53 176.96c43.22-51.79 86.74-102.04 151.55-174.34m-151.55 174.34c46.06-52.07 91.51-104.16 151.55-174.34m-145.25 173.19c42.04-46.64 83.41-93.64 147.62-169.81m-147.62 169.81c47.24-54.82 93.26-110.04 147.62-169.81m-141.32 168.66c40.25-48.77 80.44-93.63 144.34-166.04m-144.34 166.04c42.19-50.62 84.44-98.53 144.34-166.04m-138.04 164.89c52.95-57.86 102.06-117.93 140.4-161.51m-140.4 161.51c42.94-50.91 86.48-100.82 140.4-161.51m-134.1 160.36c36.46-39.46 71.82-84.38 137.12-157.73m-137.12 157.73c46.36-51.48 92.13-103.97 137.12-157.73m-130.16 155.83c25.38-33.52 52.34-64.19 132.52-152.45m-132.52 152.45c50.68-57.59 99.55-115.05 132.52-152.45m-125.57 150.54c26.51-33.05 54.5-62.78 128.59-147.92m-128.59 147.92c27.7-31.2 55.36-63.99 128.59-147.92m-120.98 145.26c41.89-47.68 82.5-95.86 123.34-141.88m-123.34 141.88c35.92-41.97 75.14-86.22 123.34-141.88m-116.38 139.98c42.84-47.63 86.93-102.01 119.4-137.36m-119.4 137.36c40.64-48.2 82.12-95.2 119.4-137.36m-111.79 134.7c27.7-33.68 59.28-64.97 114.15-131.32m-114.15 131.32c43.78-47.72 85.89-97.28 114.15-131.32m-107.2 129.42c24.4-26.95 48.9-52.48 108.91-125.28m-108.91 125.28c35.07-42.48 70.76-83.01 108.91-125.28m-101.95 123.37c40.61-47.93 78.3-92.16 103-118.49m-103 118.49c37.44-41.44 74.43-82.74 103-118.49m-95.39 115.84c30.89-34.78 60.24-70.15 96.44-110.95m-96.44 110.95c33.28-38.71 67.36-78.05 96.44-110.95m-88.17 107.53c31.06-36.16 65.48-74.51 89.22-102.64m-89.22 102.64c27.1-31.07 52.74-60.33 89.22-102.64m-78.99 96.96c23.77-27.8 46.53-52.01 80.04-92.07m-80.04 92.07c29.22-35.34 59.88-70.91 80.04-92.07m-69.8 86.4c27.19-30.03 48.74-56.73 70.85-81.51m-70.85 81.51c26.1-28.26 50.76-56.86 70.85-81.51m-61.27 76.58c25.81-28.11 47.25-55 62.32-71.69m-62.32 71.69c24.42-28.74 50.98-57.55 62.32-71.69m-52.09 66.02c15.17-16.59 25.93-31.52 47.9-55.1m-47.9 55.1c17.87-19.69 34.88-38.5 47.9-55.1m-31.76 42.63c9.66-13.03 20.37-24.52 27.56-31.7m-27.56 31.7c10.03-11.47 19.34-21.84 27.56-31.7" stroke="#96f2d7" stroke-width=".5" fill="none"/>
    <path d="M164.89 396.529c18.87-6.68 47.41-7.69 72.25-10.14 24.83-2.45 51.5-5 76.76-4.55 25.27.46 51.02 3.97 74.82 7.27 23.8 3.3 46.81 6.66 67.98 12.51 21.17 5.86 41.88 14.31 59.01 22.62 17.14 8.31 31.95 17.65 43.8 27.25 11.85 9.61 21.5 19.61 27.3 30.38 5.81 10.78 8.37 22.98 7.51 34.29-.86 11.3-4.98 23.1-12.66 33.56-7.68 10.47-19.81 19.92-33.43 29.2-13.62 9.27-29.91 18.88-48.3 26.45-18.39 7.57-39.89 13.69-62.06 18.97-22.17 5.27-46.35 10.26-70.96 12.67-24.61 2.41-51.5 2.37-76.7 1.79-25.2-.58-50.56-2.09-74.49-5.26-23.94-3.18-47.79-7.99-69.12-13.79-21.33-5.8-41.79-12.85-58.86-21.01-17.07-8.16-31.89-18.03-43.55-27.96-11.67-9.93-20.67-20.87-26.44-31.63-5.78-10.77-9.04-21.99-8.2-32.94.83-10.95 5.57-22.31 13.2-32.75 7.63-10.44 19.21-20.39 32.57-29.91s27-18.96 47.59-27.21c20.59-8.25 60.56-18.61 75.92-22.28 15.37-3.68 14.36-1.76 16.26.22m-31.58 4.11c18.93-6.67 47.26-10.18 71.48-12.66 24.21-2.48 48.81-2.54 73.81-2.2 25 .34 51.63 1.25 76.2 4.23 24.57 2.98 49.67 7.64 71.24 13.65 21.58 6.01 41.35 14.5 58.21 22.4 16.86 7.9 30.97 15.45 42.94 25.02 11.97 9.58 22.75 21.55 28.88 32.43 6.12 10.88 8.68 21.73 7.88 32.85-.8 11.13-5.37 23.33-12.69 33.91-7.32 10.58-17.89 20.11-31.25 29.57s-30.65 19.24-48.92 27.18c-18.28 7.94-38.84 15.3-60.73 20.45-21.89 5.16-46.08 7.8-70.61 10.46-24.52 2.67-51.53 5.56-76.54 5.54-25-.02-49.32-2.17-73.51-5.66-24.18-3.49-50.17-9.35-71.6-15.27-21.43-5.91-39.85-12.13-56.98-20.22-17.13-8.09-33.62-18.39-45.8-28.3s-21.31-20.23-27.27-31.15c-5.96-10.93-9.17-23.57-8.48-34.37.69-10.8 5.13-20.05 12.62-30.41 7.48-10.36 19.04-22.17 32.29-31.74 13.25-9.57 29.27-18.14 47.2-25.69 17.93-7.54 49.66-16.42 60.39-19.57 10.74-3.15 1.56-.9 4.02.67" stroke="#000" fill="none"/>
  </g>
  <text x="57.422" font-family="Cascadia, Segoe UI Emoji" font-size="28" text-anchor="middle" style="white-space:pre" dominant-baseline="text-before-edge" transform="translate(244.563 425.26)">Backend</text>
  <g stroke-linecap="round">
    <path d="M115.928 491.892c38.96-1.41 79.2 1.24 127.07 0 17.54-3.49 22.28 9.59 21.68 21.67-.89 15.56 2.38 26.99 0 43.34-2.44 12.27-3.85 23.17-21.68 21.68-30.21 2.53-64.06 3.71-127.07 0-18.03-.1-21.65-4.66-21.67-21.68-.23-16.86 1.26-28.08 0-43.34 2.09-16.94 9.99-20.94 21.67-21.67" stroke-width="0" fill="#96f2d7"/>
    <path d="M115.928 491.892c30.35-.57 61.92-2.56 127.07 0m-127.07 0c30.45.12 62.15.63 127.07 0m0 0c14.95 1.12 19.81 5.36 21.68 21.67m-21.68-21.67c13.45-.87 22.32 6.92 21.68 21.67m0 0c2.22 16.3 1.24 33.02 0 43.34m0-43.34c.01 15.47-.84 30.62 0 43.34m0 0c.58 13.98-5.79 20.63-21.68 21.68m21.68-21.68c2.1 16.19-7.29 20.3-21.68 21.68m0 0c-38.69-1.01-74.15-.63-127.07 0m127.07 0c-43.07-1.38-88.01-.68-127.07 0m0 0c-14.47-1.9-21.4-7.17-21.67-21.68m21.67 21.68c-15.05-1.42-23.63-8.62-21.67-21.68m0 0c1.82-10.71-.83-22.63 0-43.34m0 43.34c-.31-9.23-.21-16.94 0-43.34m0 0c.35-14.07 6.43-21.69 21.67-21.67m-21.67 21.67c-1.5-15.07 6.51-20.61 21.67-21.67" stroke="#000" fill="none"/>
  </g>
  <text x="51.563" font-family="Cascadia, Segoe UI Emoji" font-size="16" text-anchor="middle" style="white-space:pre" dominant-baseline="text-before-edge" transform="translate(127.903 525.635)">aggregation</text>
  <g stroke-linecap="round">
    <path d="M388.298 492.877c30.34-1.05 65.36.18 127.07 0 16.11-1.92 23.08 10.08 21.68 21.67-.3 16.16-1.69 28.33 0 43.34-.11 15.89-8.32 24.66-21.68 21.68-32.91.78-58.33.97-127.07 0-16.51-1.38-19.57-7.33-21.67-21.68-.03-15.2.71-34.38 0-43.34.15-12.98 7.49-22.93 21.67-21.67" stroke-width="0" fill="#96f2d7"/>
    <path d="M388.298 492.877c45.38.45 92.59-.6 127.07 0m-127.07 0c43.29-.78 86.13-.43 127.07 0m0 0c14.76-.65 20.94 6.95 21.68 21.67m-21.68-21.67c12.36-.45 19.42 5.07 21.68 21.67m0 0c-.43 15.24-1.45 28.98 0 43.34m0-43.34c.28 15.4.81 29.38 0 43.34m0 0c.51 12.99-7.14 21.27-21.68 21.68m21.68-21.68c1 14.28-6.16 20.45-21.68 21.68m0 0c-42.44 2.27-85.57-.42-127.07 0m127.07 0c-37.53 1.25-75.04-.12-127.07 0m0 0c-15.17-.45-20.37-5.38-21.67-21.68m21.67 21.68c-13.69-.73-20.43-5.37-21.67-21.68m0 0c.22-11.78 1.91-18.74 0-43.34m0 43.34c0-13.38-.64-26.28 0-43.34m0 0c1-12.76 8.33-20.62 21.67-21.67m-21.67 21.67c.44-15.44 8.24-20.9 21.67-21.67" stroke="#000" fill="none"/>
  </g>
  <text x="14.063" font-family="Cascadia, Segoe UI Emoji" font-size="16" text-anchor="middle" style="white-space:pre" dominant-baseline="text-before-edge" transform="translate(437.774 526.62)">api</text>
  <path d="M349.97 354.328c-.11 2.43.06 11.92-.03 14.38m.97-14.97c-.22 2.52-1.27 12.79-1.34 15.45M246.55 350.65c.14 3.69.65 18.86.74 22.46m-1.32-22.84c.08 3.78.85 18.4.97 22.14" stroke="#000" fill="none" stroke-linecap="round"/>
  <g mask="url(#mask-7h2w0uYTPRkegjRkX3Vpe)" stroke-linecap="round">
    <path d="M158.2 593.054c13.18 23.03 66.96 116.21 80 139.48m-78.06-140.69c13.07 22.56 64.45 115.61 77.58 138.72" stroke="#000" fill="none"/>
  </g>
  <mask id="mask-7h2w0uYTPRkegjRkX3Vpe">
    <path fill="#fff" d="M0 0h337.308v832.223H0z"/>
    <path d="M146.436 653.189h103.125v19.2H146.436z"/>
  </mask>
  <text x="51.563" font-family="Cascadia, Segoe UI Emoji" font-size="16" text-anchor="middle" style="white-space:pre" dominant-baseline="text-before-edge" transform="translate(146.436 653.189)">writes data</text>
  <g mask="url(#mask-ycqPYNL47g4mQay38G5PP)" stroke-linecap="round">
    <path d="M361.018 731.708c8.25-22.17 40.11-112.17 47.89-134.58m-48.97 133.78c8.2-22.4 39.78-112.88 48.13-135.47" stroke="#000" fill="none"/>
  </g>
  <mask id="mask-ycqPYNL47g4mQay38G5PP">
    <path fill="#fff" d="M0 0h508.699v966.168H0z"/>
    <path d="M337.619 654.174h93.75v19.2h-93.75z"/>
  </mask>
  <text x="46.875" font-family="Cascadia, Segoe UI Emoji" font-size="16" text-anchor="middle" style="white-space:pre" dominant-baseline="text-before-edge" transform="translate(337.619 654.174)">reads data</text>
  <g stroke-linecap="round">
    <path d="M854.963 453.476s0 0 0 0m0 0s0 0 0 0m-12.07 19.99c7.09-11.86 16.84-22.33 30.18-34.72m-30.18 34.72c10.62-13.9 23.24-25.84 30.18-34.72m-38.97 50.93c20.63-24.39 43.37-50.35 56.42-64.91m-56.42 64.91c13.12-16.02 27.82-32.89 56.42-64.91m-56.68 71.3c18.26-21.2 37-43.9 64.94-74.71m-64.94 74.71c21.99-27.98 45.7-53.65 64.94-74.71m-65.86 81.87c27.29-32.96 59.08-63.96 74.79-86.04m-74.79 86.04c19.85-25.18 41.92-47.77 74.79-86.04m-75.05 92.43c29.62-34.7 60.44-69.76 83.97-96.6m-83.97 96.6c16.54-20.48 34.32-39.1 83.97-96.6m-84.89 103.76c24.17-26.95 48.35-54.08 93.81-107.93m-93.81 107.93c26.82-32.5 54.9-64.21 93.81-107.93m-94.07 114.32c29.24-35.51 57.65-68.6 103-118.49m-103 118.49c25.24-29.99 53.04-60.01 103-118.49m-101.95 123.38c25.05-26.67 49.68-57.9 110.22-126.79m-110.22 126.79c29.61-32.86 58.59-67.56 110.22-126.79m-108.52 130.93c44.23-52.08 90.49-101.75 115.47-132.83m-115.47 132.83c24.15-27.76 48.28-55.31 115.47-132.83m-113.76 136.96c27.38-34.74 55.78-65.87 120.72-138.87m-120.72 138.87c47.7-54.72 94.38-108.68 120.72-138.87m-119.01 143c27.54-30.42 55.77-61.02 125.96-144.9m-125.96 144.9c42.44-47.41 83.2-96.37 125.96-144.9m-124.26 149.04c36.16-36.69 69.82-75.69 131.22-150.95m-131.22 150.95c44.28-50.78 87.08-101.49 131.22-150.95m-129.51 155.08c38.56-45.6 77.02-88.84 136.46-156.98m-136.46 156.98c31.3-36.58 63.27-73.39 136.46-156.98m-134.75 161.11c28.54-32.86 56.54-66.52 141.71-163.01m-141.71 163.01c30.23-34.74 59.44-68.58 141.71-163.01m-140.01 167.15c50.13-59.7 99.56-115.95 147.62-169.81m-147.62 169.81c44.15-50.36 86.68-100.69 147.62-169.81m-145.91 173.94c38.74-45.68 79.39-88.74 152.86-175.85m-152.86 175.85c32.56-34.97 63.65-72.42 152.86-175.85m-149.84 178.48c40.19-47.08 81.22-95.48 155.49-178.87m-155.49 178.87c38.78-46.45 79.68-92.71 155.49-178.87m-153.13 182.24c50-56.78 101.23-112.47 158.77-182.64m-158.77 182.64c59.35-66.59 116.81-134.24 158.77-182.64m-155.75 185.27c57.73-68.05 119.03-134.04 161.39-185.66m-161.39 185.66c35.47-39.7 70.83-79.2 161.39-185.66m-159.03 189.04c52.12-62.84 107.1-123.42 164.68-189.43m-164.68 189.43c64.71-75.74 130.46-151.94 164.68-189.43m-161.66 192.05c55.66-65.14 114.7-130.27 167.3-192.45m-167.3 192.45c37.7-40.86 74.15-83.81 167.3-192.45m-164.93 195.83c62.74-69.21 122.05-136.97 170.57-196.22m-170.57 196.22c43.87-47.97 87.55-98.41 170.57-196.22m-167.55 198.84c44.87-49.75 89.35-102.01 173.19-199.24m-173.19 199.24c52.45-58.89 103.16-118.67 173.19-199.24m-170.83 202.62c64.17-73.09 129.06-147.72 176.48-203.01m-176.48 203.01c64.39-72.43 126.08-144.92 176.48-203.01m-173.46 205.64c70.76-81.85 142.58-162.33 179.1-206.04m-179.1 206.04c37.31-42.05 75.13-83.81 179.1-206.04m-176.08 208.66c71.33-79.36 141.25-161.02 181.72-209.05m-181.72 209.05c68.27-79.26 135.46-157.08 181.72-209.05m-179.36 212.43c36.96-45.93 77.71-88.65 185.01-212.83m-185.01 212.83c55.08-63.31 110.05-125.51 185.01-212.83m-181.34 214.7c65.67-74.98 130.16-150.12 186.32-214.34m-186.32 214.34c49.06-57.82 99.01-114.71 186.32-214.34m-182.64 216.21c68.58-79.17 137.78-157.84 187.63-215.85m-187.63 215.85c47.93-53.54 94.44-106.75 187.63-215.85m-184.61 218.47c55.32-63.66 108.32-124.84 189.6-218.11m-189.6 218.11c39.26-48.38 80.66-95.84 189.6-218.11m-185.93 219.98c56.77-65.18 113.77-130.01 190.92-219.62m-190.92 219.62c61.35-71.45 123-143.64 190.92-219.62m-187.24 221.49c56.3-65.86 115.97-134.29 192.22-221.13m-192.22 221.13c53.97-62.83 109.96-126.51 192.22-221.13m-188.55 223c45.35-52.13 92.49-106.98 193.54-222.64m-193.54 222.64c64.81-75.05 130.01-150.06 193.54-222.64m-190.52 225.27c42.6-47.64 82.03-94.95 196.16-225.66m-196.16 225.66c78.66-91.3 156.46-179.73 196.16-225.66m-192.48 227.53c41.95-46.92 82.68-98.59 197.47-227.17m-197.47 227.17c50.4-58.08 100.23-115.51 197.47-227.17m-193.8 229.04c58.46-66.84 115.91-136.56 198.79-228.68m-198.79 228.68c64.86-72.08 127.57-143.75 198.79-228.68m-195.11 230.55c47.78-54.53 97.23-111.36 200.09-230.19m-200.09 230.19c39.65-45.71 80.26-93.37 200.09-230.19m-196.42 232.06c71.02-81.44 141.22-162.61 201.41-231.7m-201.41 231.7c56.2-66.37 114.84-134.15 201.41-231.7m-198.39 234.32c66.49-77.83 131.77-153.26 203.38-233.96m-203.38 233.96c56.18-65.44 114.16-131.02 203.38-233.96m-199.71 235.83c51.18-57.61 102.86-116.38 204.69-235.47m-204.69 235.47c41.47-46.85 82.68-94.08 204.69-235.47m-200.36 236.58c54.66-64.45 109.46-127.39 204.7-235.47m-204.7 235.47c68.39-79.88 137.3-158.68 204.7-235.47m-201.02 237.34c74.57-85.53 147.98-171.68 205.35-236.22m-205.35 236.22c45.1-51.89 89.34-102.7 205.35-236.22m-201.02 237.34c52.12-55.93 101.32-113.31 205.35-236.23m-205.35 236.23c77.56-90.22 154.12-177.55 205.35-236.23m-201.02 237.34c69.12-77.8 137.32-158.79 205.35-236.22m-205.35 236.22c68.08-80.25 137.33-160.31 205.35-236.22m-201.67 238.09c49.96-58.13 100.11-116.12 206.66-237.73m-206.66 237.73c76.81-88.17 152.12-175.14 206.66-237.73m-202.33 238.85c66.57-75.53 134.36-153.49 206.66-237.74m-206.66 237.74c51.93-59.07 103.09-118.39 206.66-237.74m-202.33 238.85c46.25-51.89 92.72-105.52 206.66-237.73m-206.66 237.73c51.88-56.9 102.5-114.33 206.66-237.73m-202.99 239.6c74.73-88.47 150.87-177.3 207.32-238.49m-207.32 238.49c57.32-66.27 114.55-131.81 207.32-238.49m-202.99 239.61c72.72-83.22 144.38-164.27 207.32-238.49m-207.32 238.49c60.28-67.95 120.46-137.11 207.32-238.49m-202.98 239.6c80.94-93.62 163.16-189.4 207.31-238.49m-207.31 238.49c44.87-51.31 89.49-103.03 207.31-238.49m-203.64 240.36c75.9-87.16 151.16-175.83 207.97-239.24m-207.97 239.24c73.23-82.51 145.18-164.49 207.97-239.24m-203.64 240.36c48.4-52.56 94-106.42 207.97-239.25m-207.97 239.25c64.29-75.2 129.51-149.49 207.97-239.25m-204.29 241.12c45.05-50.86 89.73-102.62 208.62-240m-208.62 240c47.92-54.53 95.3-109.49 208.62-240m-203.64 240.36c77.65-89.39 153.19-175.85 207.97-239.25m-207.97 239.25c57.52-66.81 116.27-134.39 207.97-239.25m-203.64 240.36c47.36-56.54 97.22-110.98 207.32-238.49m-207.32 238.49c60.33-69.46 120.69-140.87 207.32-238.49m-202.33 238.85c47.16-53.22 91.02-106.57 206-236.98m-206 236.98c62.21-70.82 123.18-140.05 206-236.98m-201.67 238.1c70.34-78.55 139.26-157.6 205.35-236.23m-205.35 236.23c56.1-64.59 111.94-128.95 205.35-236.23m-200.36 236.59c58.48-67.27 115.12-133.04 204.03-234.72m-204.03 234.72c77.2-87.84 154.14-176.87 204.03-234.72m-199.04 235.08c48.38-55.33 95.61-110.04 203.37-233.96m-203.37 233.96c51.64-58.43 101.58-116.18 203.37-233.96m-199.04 235.07c69.5-78.22 134.99-156.33 202.72-233.21m-202.72 233.21c43.64-52.04 87.99-103.8 202.72-233.21m-197.74 233.57c47.75-54.52 94.81-108.61 201.41-231.7m-201.41 231.7c53.74-60.32 107.13-121.96 201.41-231.7m-197.08 232.82c49.8-56.02 98-112.85 200.76-230.95m-200.76 230.95c75.18-86.66 149.41-174.14 200.76-230.95m-195.77 231.31c45.72-54.33 93.84-108.97 199.44-229.44m-199.44 229.44c62.98-73.95 127.83-146.73 199.44-229.44m-195.11 230.55c76.45-89.36 151.3-176.31 199.44-229.43m-199.44 229.43c47.04-56.45 95.31-111.49 199.44-229.43m-194.45 229.79c59.66-70.18 118.24-138.35 198.13-227.92m-198.13 227.92c74.91-87.91 150.8-176.24 198.13-227.92m-193.14 228.28c77.36-88.6 153.45-178.32 196.81-226.41m-196.81 226.41c58.57-66.48 115.34-131.96 196.81-226.41m-191.83 226.77c64.19-76 130.27-149.71 195.51-224.9m-195.51 224.9c74.27-84.93 147.37-168.1 195.51-224.9m-189.86 224.51c46.54-49.55 91.06-101.03 192.88-221.89m-192.88 221.89c49.95-56.85 99.06-111.88 192.88-221.89m-187.24 221.49c71.53-81.99 139.81-162.72 190.26-218.86m-190.26 218.86c69.88-81.1 139.56-160.72 190.26-218.86m-184.62 218.47c60.38-71.97 119.85-140.27 187.64-215.85m-187.64 215.85c57.01-64.97 115.55-131.24 187.64-215.85m-182.65 216.21c52.61-61.8 105.29-120.86 185.66-213.59m-185.66 213.59c37.25-44.29 77.14-88.42 185.66-213.59m-180.02 213.19c38.71-41.97 75.13-85.31 183.04-210.56m-183.04 210.56c53.53-63.78 108.77-126.73 183.04-210.56m-177.39 210.17c60.21-66.97 116.56-132.82 180.41-207.55m-180.41 207.55c53.71-61.42 107.45-123.25 180.41-207.55m-174.77 207.15c50.83-59.84 104.38-118.13 178.45-205.28m-178.45 205.28c61.93-70.68 123.6-142.12 178.45-205.28m-173.46 205.64c54.49-64.03 111.84-127.57 176.48-203.01m-176.48 203.01c71.66-80.44 140.31-160.19 176.48-203.01m-170.84 202.62c49.55-53.39 96.7-108.37 173.86-200m-173.86 200c67.22-78.15 134.44-156.05 173.86-200m-168.22 199.6c50.36-57.11 98.14-112.58 171.23-196.98m-171.23 196.98c35.63-41.7 73.22-84.48 171.23-196.98m-166.24 197.34c61.89-73.83 127.35-146.17 169.26-194.71m-169.26 194.71c44.16-51.88 90.85-103.87 169.26-194.71m-162.96 193.56c44.39-50.44 86.7-99 165.33-190.18m-165.33 190.18c40.1-44.18 79.53-89.15 165.33-190.18m-159.03 189.04c43.83-49.56 85.23-98.77 161.39-185.66m-161.39 185.66c40.84-49.35 83.51-98.67 161.39-185.66m-155.09 184.51c38.51-45.25 77.53-87.4 157.45-181.13m-157.45 181.13c47.57-53.83 95.59-108.97 157.45-181.13m-151.81 180.73c51.67-59.04 101.4-117.37 154.17-177.36m-154.17 177.36c48.75-56.43 97.09-110.91 154.17-177.36m-147.87 176.21c38.79-44.22 75.6-83.93 150.24-172.83m-150.24 172.83c30.01-37.13 60.68-70.74 150.24-172.83m-143.94 171.68c35.94-40.49 73.26-83.5 146.3-168.3m-146.3 168.3c32.66-36.45 65-73.94 146.3-168.3m-140.66 167.91c34.99-38.76 68.93-79.48 143.02-164.53m-143.02 164.53c42.15-49.54 84.35-97.37 143.02-164.53m-136.72 163.38c49.3-56.14 101.6-113.48 139.09-160m-139.09 160c33.17-40.27 66.02-78.8 139.09-160m-132.79 158.85c30.08-32.75 59.56-67.55 135.15-155.47m-135.15 155.47c40.43-46.66 81.51-92.4 135.15-155.47m-128.85 154.32c41.09-48.36 84.02-98.78 131.21-150.94m-131.21 150.94c39.47-46.2 78.51-92.05 131.21-150.94m-123.6 148.28c42.19-48.59 87.52-100.3 124.65-143.39m-124.65 143.39c34.41-40 67.92-79.98 124.65-143.39m-117.04 140.73c36.28-38.7 69.29-78.23 118.09-135.84m-118.09 135.84c47.29-50.49 91.48-103.51 118.09-135.84m-110.48 133.18c43.33-50.31 86.32-99.74 110.88-127.54m-110.88 127.54c29.83-35.61 62.89-72.03 110.88-127.54m-103.27 124.89c29.12-35.19 60.41-70.54 104.32-120m-104.32 120c33.9-36.98 66.72-76.35 104.32-120m-96.05 116.58c29.06-34.21 59.29-67.55 97.1-111.7m-97.1 111.7c27.13-34.07 55.31-66.6 97.1-111.7m-89.49 109.04c21.23-25.23 40.01-48.43 89.88-103.39m-89.88 103.39c18.56-21.19 38.54-42.67 89.88-103.39m-82.92 101.49c20.05-22.97 38.86-42.26 83.97-96.6m-83.97 96.6c23.7-26.94 46.05-53.36 83.97-96.6m-71.77 88.66c23.76-28.7 46.7-55.17 69.54-80m-69.54 80c14.94-17.77 28.65-34.3 69.54-80m-57.34 72.06c17.83-17.07 30.31-38.19 53.15-61.14m-53.15 61.14c16.84-18.43 34.67-38.57 53.15-61.14m-41.6 53.95c10.84-13.56 25.12-30.72 38.05-43.77m-38.05 43.77c12.35-14.34 26.55-31.13 38.05-43.77" stroke="#96f2d7" stroke-width=".5" fill="none"/>
    <path d="M1061.813 380.306c19.98-2.26 43.06 1.08 63.49 4.1 20.43 3.02 40.91 7.92 59.11 14 18.2 6.09 35.56 13.74 50.09 22.52 14.53 8.78 27.04 19.4 37.1 30.16 10.05 10.77 18.35 22.73 23.23 34.42 4.87 11.69 7.13 23.85 6 35.72-1.12 11.86-5.79 24.21-12.76 35.49-6.96 11.28-17.08 22.28-29.03 32.2-11.95 9.92-26.64 19.55-42.66 27.31-16.01 7.76-34.33 14.46-53.44 19.25-19.12 4.78-40.37 7.5-61.26 9.45-20.88 1.95-43.05 3.4-64.06 2.25-21.01-1.16-42.43-4.52-61.99-9.18-19.55-4.66-38.68-11.35-55.31-18.79-16.64-7.43-32.07-16.05-44.5-25.82s-22.62-21.4-30.08-32.78c-7.46-11.38-12.75-23.39-14.67-35.51-1.93-12.12-.87-25.26 3.12-37.21 3.99-11.94 11.33-23.85 20.82-34.47 9.5-10.63 21.95-20.57 36.17-29.29 14.23-8.71 31.27-16.43 49.17-22.98 17.9-6.54 34.52-12.77 58.23-16.28 23.72-3.52 66.4-4.81 84.04-4.83 17.65-.01 21.99 2.46 21.85 4.73m-8.28-2.89c20.09-.35 41.03 5.56 60.3 10.33 19.27 4.76 38.84 10.96 55.34 18.25 16.49 7.29 31.24 15.68 43.61 25.48 12.37 9.81 23.13 22.03 30.6 33.33 7.46 11.3 12.38 22.54 14.21 34.48 1.82 11.93.82 25.12-3.26 37.13-4.07 12.02-11.35 24.46-21.18 34.96-9.84 10.5-23.14 19.54-37.82 28.06-14.67 8.53-32.26 16.73-50.22 23.08-17.95 6.35-37.29 11.62-57.51 15.03s-42.61 5.17-63.81 5.4c-21.2.24-43.06-.98-63.39-3.98s-40.33-7.47-58.59-14.01c-18.25-6.55-36.6-16.2-50.93-25.29-14.33-9.08-25.44-18.99-35.03-29.2-9.6-10.21-17.77-20.55-22.55-32.04-4.78-11.49-7.38-24.95-6.12-36.92 1.26-11.97 6.65-23.25 13.67-34.88 7.03-11.63 16.54-24.94 28.5-34.9 11.96-9.95 26.84-17.44 43.26-24.83 16.43-7.38 36.02-14.64 55.29-19.46 19.27-4.81 39.5-7.82 60.33-9.43 20.83-1.6 54.1-.5 64.68-.19 10.57.31-.81-.14-1.2 2.05" stroke="#000" fill="none"/>
  </g>
  <text x="57.422" font-family="Cascadia, Segoe UI Emoji" font-size="28" text-anchor="middle" style="white-space:pre" dominant-baseline="text-before-edge" transform="translate(1007.542 424.33)">Library</text>
  <g stroke-linecap="round">
    <path d="M906.6 484.597c28.15 1.94 61-2.29 127.07 0 14.63-.85 18.71 10.46 21.68 21.67-2.45 18.08-.67 31.95 0 43.34-1.48 13.32-8.74 21.45-21.68 21.68-35.67 3.73-69.7.07-127.07 0-15.24.1-19.78-7.51-21.67-21.68-1.69-10.39 1.37-21.66 0-43.34-3.33-12.6 6.08-18.87 21.67-21.67" stroke-width="0" fill="#96f2d7"/>
    <path d="M906.6 484.597c27.17-.44 49.58 1.21 127.07 0m-127.07 0c29.85.82 58.85 1.06 127.07 0m0 0c12.6 1.83 23.63 8.07 21.68 21.67m-21.68-21.67c15.35-1.93 23.8 5.46 21.68 21.67m0 0c.77 15.73-2.08 30.02 0 43.34m0-43.34c.23 10.72.57 19.47 0 43.34m0 0c.5 15.18-6.27 23.16-21.68 21.68m21.68-21.68c-1.73 16.23-5.97 21.42-21.68 21.68m0 0c-47.01-2.99-94.52-1.46-127.07 0m127.07 0c-31.3.62-64.92 1-127.07 0m0 0c-14.63-.69-20.39-6.88-21.67-21.68m21.67 21.68c-13.34-2.02-20.56-8.15-21.67-21.68m0 0c-.4-12.81.3-26.94 0-43.34m0 43.34c.3-8.84.01-17.69 0-43.34m0 0c.33-13.7 7.89-22.67 21.67-21.67m-21.67 21.67c-1.63-15.28 6.83-21.99 21.67-21.67" stroke="#000" fill="none"/>
  </g>
  <text x="37.5" font-family="Cascadia, Segoe UI Emoji" font-size="16" text-anchor="middle" style="white-space:pre" dominant-baseline="text-before-edge" transform="translate(932.638 518.34)">fetchers</text>
  <g stroke-linecap="round">
    <path d="M1112.156 483.312c38.91-.12 87.12 3.14 127.07 0 13.94 2.86 19.8 5.24 21.68 21.67.48 9.99 1.73 23.86 0 43.34-.56 16.58-6.02 18.08-21.68 21.68-36.94 1.92-69.37 4.34-127.07 0-17.5-2.1-20.3-5.31-21.67-21.68-2.84-15.07-1.65-29.86 0-43.34 2.23-15.83 6.61-21.5 21.67-21.67" stroke-width="0" fill="#96f2d7"/>
    <path d="M1112.156 483.312c38.53 1.48 74.17-1.15 127.07 0m-127.07 0c41.08.24 80.79 1.69 127.07 0m0 0c13.35.03 20.67 5.56 21.68 21.67m-21.68-21.67c16.26-1.23 22.78 5.02 21.68 21.67m0 0c1.32 12.96-.58 30.76 0 43.34m0-43.34c.31 10.39.49 22.15 0 43.34m0 0c1.29 14.9-9.22 23.56-21.68 21.68m21.68-21.68c-.25 13.26-6.54 23.72-21.68 21.68m0 0c-38.73.77-75.25.72-127.07 0m127.07 0c-31.88.21-66.04-.05-127.07 0m0 0c-14.43.38-19.97-6.07-21.67-21.68m21.67 21.68c-12.42-2.26-22.64-7.74-21.67-21.68m0 0c1.54-10.28-.72-17.73 0-43.34m0 43.34c-.08-10.99.07-22.16 0-43.34m0 0c-1.19-14.39 6.45-20.77 21.67-21.67m-21.67 21.67c1.33-14.1 9.44-19.54 21.67-21.67" stroke="#000" fill="none"/>
  </g>
  <text x="32.813" font-family="Cascadia, Segoe UI Emoji" font-size="16" text-anchor="middle" style="white-space:pre" dominant-baseline="text-before-edge" transform="translate(1142.882 517.055)">actions</text>
  <g mask="url(#mask-Aj6q5o41TI0uSYIwN2OwA)" stroke-linecap="round">
    <path d="M875.058 528.719c-54.02.36-270.5 1.31-324.61 1.44m323.14-2.42c-54.03.63-269.56 3.51-323.46 3.96" stroke="#000" fill="none"/>
  </g>
  <mask id="mask-Aj6q5o41TI0uSYIwN2OwA">
    <path fill="#fff" d="M0 0h1300.886v630.154H0z"/>
    <path d="M637.16 510.166h150v38.4h-150z"/>
  </mask>
  <text x="75" font-family="Cascadia, Segoe UI Emoji" font-size="16" text-anchor="middle" style="white-space:pre" dominant-baseline="text-before-edge" transform="translate(637.16 510.166)">fetches data</text>
  <text x="75" y="19.2" font-family="Cascadia, Segoe UI Emoji" font-size="16" text-anchor="middle" style="white-space:pre" dominant-baseline="text-before-edge" transform="translate(637.16 510.166)">from backend API</text>
  <g mask="url(#mask-5bjYb8S4KpOlZ_kznUwm4)" stroke-linecap="round">
    <path d="M1159.703 474.681c-30.24-73.68-55.43-378.96-181.12-443.58-125.7-64.62-477.53 46.44-573.05 55.86m756.03 387c-30.41-73.91-58.03-380.12-184.15-444.39-126.12-64.26-477.28 49.49-572.56 58.82" stroke="#000" fill="none"/>
  </g>
  <mask id="mask-5bjYb8S4KpOlZ_kznUwm4">
    <path fill="#fff" d="M0 0h2015.342v1018.106H0z"/>
    <path d="M885.25 10.776h187.5v38.4h-187.5z"/>
  </mask>
  <text x="93.75" font-family="Cascadia, Segoe UI Emoji" font-size="16" text-anchor="middle" style="white-space:pre" dominant-baseline="text-before-edge" transform="translate(885.25 10.776)">submits an action TX</text>
  <text x="93.75" y="19.2" font-family="Cascadia, Segoe UI Emoji" font-size="16" text-anchor="middle" style="white-space:pre" dominant-baseline="text-before-edge" transform="translate(885.25 10.776)">via a browser wallet</text>
  <g mask="url(#mask-GP_i-KZk5oRgtancxhjjF)" stroke-linecap="round">
    <path d="M1645.942 511.49c-55.05.18-276.05 1.32-331.56 1.61m330.69-2.5c-55.16.31-276.43 3.4-331.4 4.08" stroke="#000" fill="none"/>
  </g>
  <mask id="mask-GP_i-KZk5oRgtancxhjjF">
    <path fill="#fff" d="M0 0h2075.73v613.006H0z"/>
    <path d="M1366.883 483.303h225v57.6h-225z"/>
  </mask>
  <text x="112.5" font-family="Cascadia, Segoe UI Emoji" font-size="16" text-anchor="middle" style="white-space:pre" dominant-baseline="text-before-edge" transform="translate(1366.883 483.303)">delegates data fetching </text>
  <text x="112.5" y="19.2" font-family="Cascadia, Segoe UI Emoji" font-size="16" text-anchor="middle" style="white-space:pre" dominant-baseline="text-before-edge" transform="translate(1366.883 483.303)">and onchain tx creation </text>
  <text x="112.5" y="38.4" font-family="Cascadia, Segoe UI Emoji" font-size="16" text-anchor="middle" style="white-space:pre" dominant-baseline="text-before-edge" transform="translate(1366.883 483.303)">to the library</text>
  <g stroke-linecap="round">
    <path d="M1677.908 476.06s0 0 0 0m0 0s0 0 0 0m-10.1 17.72c8.21-11.42 16.13-22.39 25.59-29.43m-25.59 29.43c7.82-9.32 14.89-17.09 25.59-29.43m-29.13 39.6c16.24-15.24 28.91-33.02 43.3-49.81m-43.3 49.81c12.32-13.54 24.06-27.69 43.3-49.81m-42.91 55.45c10.1-12.64 23.07-23.9 49.86-57.35m-49.86 57.35c17.02-19.11 31.68-38.03 49.86-57.35m-49.46 63c23.36-25.57 43.29-51.91 57.08-65.66m-57.08 65.66c12.09-14.47 24.73-30.47 57.08-65.66m-56.03 70.54c25.45-29.4 52.5-56.69 63.64-73.2m-63.64 73.2c19.84-23.43 40.05-45.58 63.64-73.2m-63.25 78.85c21.42-23.49 42.13-48.15 70.2-80.76m-70.2 80.76c21.07-25.29 44.64-50.95 70.2-80.76m-69.15 85.65c29.25-32.88 56.41-62.61 76.76-88.3m-76.76 88.3c23.1-25.23 44.41-50.14 76.76-88.3m-74.39 91.68c17.65-21.95 32.94-41.22 81.35-93.59m-81.35 93.59c32.19-34.74 61.74-70.94 81.35-93.59m-78.33 96.21c31.37-34.07 60.4-67.66 83.97-96.6m-83.97 96.6c18.56-23.08 39.52-46.24 83.97-96.6m-80.96 99.22c29.82-32.73 57.25-66.98 86.6-99.62m-86.6 99.62c28.01-32.53 57.76-66.89 86.6-99.62m-84.23 103c19.35-21.91 37.98-46.39 89.88-103.39m-89.88 103.39c30.86-35.25 61.33-71.09 89.88-103.39m-86.86 106.02c35.32-38.39 69.8-79.55 91.84-105.66m-91.84 105.66c30.09-36.37 60.52-72.3 91.84-105.66m-88.83 108.28c33.85-39.35 68.51-79.79 94.48-108.68m-94.48 108.68c30.03-34.84 60.16-69.64 94.48-108.68m-91.46 111.31c31.48-37.3 63.61-74.26 97.1-111.7m-97.1 111.7c20.02-22.34 41.36-45.81 97.1-111.7m-94.73 115.07c22.95-26.61 49.44-54.95 100.37-115.47m-100.37 115.47c21.44-25.89 43.5-52.3 100.37-115.47m-96.7 117.34c29.89-32.48 61.14-67.68 102.35-117.73m-102.35 117.73c22.82-29.07 47.41-55.41 102.35-117.73m-98.67 119.6c23.31-27.31 47.02-52.26 103.65-119.24m-103.65 119.24c34.79-38.1 66.65-75.07 103.65-119.24m-100.64 121.87c23.82-28.92 50.03-56.23 104.97-120.76m-104.97 120.76c35.99-44.12 75.57-86.63 104.97-120.76m-101.29 122.63c36.46-39.12 70.83-79.22 106.28-122.27m-106.28 122.27c43.28-47.73 85.1-96.79 106.28-122.27m-102.61 124.14c25.01-28.22 49.28-55.49 106.94-123.02m-106.94 123.02c41.93-48.06 83.09-95.06 106.94-123.02m-103.26 124.89c36.72-43.12 73.16-85 107.59-123.78m-107.59 123.78c43.72-49.87 84.97-98.34 107.59-123.78m-103.92 125.65c24.54-30.37 51.29-59.72 108.91-125.29m-108.91 125.29c39.72-44.76 79.38-91.1 108.91-125.29m-105.23 127.16c25.2-32.42 55.24-64.08 109.56-126.04m-109.56 126.04c26.49-30.73 53.44-62.63 109.56-126.04m-105.89 127.9c36.64-42.57 71.22-83.38 110.88-127.54m-110.88 127.54c25.83-27.81 50.98-56.26 110.88-127.54m-107.2 129.41c24.19-27.11 45.79-55.19 111.53-128.3m-111.53 128.3c25.42-27.82 50.47-57 111.53-128.3m-107.2 129.42c22.58-25.84 46.56-52.9 112.19-129.06m-112.19 129.06c38.98-44.27 76.67-87.23 112.19-129.06m-107.2 129.42c21.23-27.8 46-53.42 110.87-127.55m-110.87 127.55c39.54-45.66 80.46-91.13 110.87-127.55m-106.54 128.66c36.25-41.65 73.77-84.92 110.22-126.79m-110.22 126.79c39.5-45.11 79.03-90.33 110.22-126.79m-105.23 127.15c42.15-46.67 82.8-92.1 108.9-125.28m-108.9 125.28c25.38-32.23 51.8-61.37 108.9-125.28m-104.57 126.4c22.11-24.65 46.46-52.93 108.25-124.53m-108.25 124.53c38.78-46.86 79.6-91.28 108.25-124.53m-103.27 124.89c28.71-29.02 58.48-63.11 106.94-123.02m-106.94 123.02c24.89-29.2 51.63-57.78 106.94-123.02m-102.61 124.13c28.87-34.13 57.85-65.04 106.29-122.26m-106.29 122.26c35.08-40.3 69.33-80.13 106.29-122.26m-101.3 122.62c23.44-26.22 44.44-49.71 104.97-120.75m-104.97 120.75c25.15-28.87 49.88-57.28 104.97-120.75m-100.64 121.87c19.13-22.24 43.82-47.4 104.32-120m-104.32 120c26.37-30.73 54.41-61.96 104.32-120m-99.33 120.36c33.64-38.63 66.65-74.27 103-118.49m-103 118.49c33.37-40.06 68.7-77.98 103-118.49m-97.36 118.09c23.84-27.51 42.82-50.58 101.04-116.22m-101.04 116.22c24.64-26.96 47.68-54.83 101.04-116.22m-96.05 116.58c30.1-36.75 65.55-73.92 99.06-113.96m-99.06 113.96c33.25-39.07 68.21-77.09 99.06-113.96m-93.42 113.57c37.88-43.56 74.35-83.48 96.44-110.94m-96.44 110.94c38.28-44.52 76.42-88.33 96.44-110.94m-90.79 110.55c29.87-35.64 63.42-72.06 93.16-107.17m-93.16 107.17c26.07-28.38 49.34-56 93.16-107.17m-88.18 107.53c25.53-28.44 52.8-61.56 91.19-104.91m-91.19 104.91c30.7-35.78 59.65-69.73 91.19-104.91m-85.54 104.51c19.11-25.55 42.48-47.31 88.56-101.89m-88.56 101.89c21.4-23.45 43.98-48.09 88.56-101.89m-82.92 101.5c17.08-20.4 32.69-40.87 85.29-98.12m-85.29 98.12c24.66-30.76 49.65-59.63 85.29-98.12m-79.65 97.72c25.58-33.27 53.35-62.52 82.67-95.09m-82.67 95.09c31.98-37.14 65.95-73.65 82.67-95.09m-77.68 95.45c19.83-24.15 41.37-49.61 80.04-92.07m-80.04 92.07c15.98-19.73 32.39-38.67 80.04-92.07m-73.09 90.17c20.85-24.91 39.85-45.37 75.45-86.79m-75.45 86.79c27.49-33.51 57-65.79 75.45-86.79m-67.83 84.13c23.78-26.26 45.66-54.23 68.23-78.49m-68.23 78.49c16.03-18.97 33.46-36.39 68.23-78.49m-61.28 76.58c23.04-25.63 41.89-51.23 62.33-71.69m-62.33 71.69c13.31-15.42 28.63-31.38 62.33-71.69m-54.72 69.04c19.25-22.18 40.15-47.49 55.11-63.4m-55.11 63.4c11.91-14.67 25.16-27.62 55.11-63.4m-48.15 61.49c10.77-10.06 18.34-21.55 49.2-56.6m-49.2 56.6c15.93-17.82 32.69-35.99 49.2-56.6m-39.62 51.68c15.44-16.58 30.19-32.18 40.02-46.04m-40.02 46.04c9.47-11.74 19.11-23.15 40.02-46.04m-23.88 33.57c5.46-3.93 11.06-10.69 15.09-17.36m-15.09 17.36c4.2-3.06 6.66-7.23 15.09-17.36" stroke="#96f2d7" stroke-width=".5" fill="none"/>
    <path d="M1797.808 437.79c14.84-.38 31.01 3.31 44.77 7.75 13.75 4.44 27.71 11.65 37.76 18.88 10.04 7.24 18.12 15.75 22.52 24.53 4.4 8.78 5.67 19.02 3.88 28.15-1.8 9.14-7.33 18.49-14.64 26.65-7.32 8.17-17.33 16.46-29.24 22.35-11.9 5.9-27.1 10.56-42.21 13.02-15.11 2.46-32.77 2.66-48.43 1.74-15.66-.93-31.94-2.92-45.54-7.3-13.6-4.39-26.14-11.89-36.06-19.01-9.92-7.12-18.91-14.88-23.44-23.72-4.53-8.85-5.56-20.2-3.75-29.34 1.8-9.15 7.28-17.65 14.59-25.55 7.31-7.9 17.31-15.95 29.26-21.85 11.95-5.9 26.65-11.09 42.45-13.57 15.79-2.49 42.77-1.26 52.31-1.35 9.53-.09 4.92-.11 4.88.81m7.93-.64c14.54.68 28.53 5.57 40.98 11.25 12.44 5.69 25.41 14.89 33.68 22.86 8.28 7.96 13.74 16.36 15.97 24.92 2.23 8.56 1.14 17.33-2.58 26.44-3.72 9.11-10.6 20.68-19.76 28.24-9.16 7.56-21.87 12.47-35.19 17.11-13.32 4.64-29.48 9.36-44.75 10.72-15.27 1.35-31.92-.5-46.87-2.58-14.96-2.08-30.08-4.56-42.87-9.88-12.79-5.32-25.75-14.05-33.86-22.04-8.12-8-12.66-17.18-14.84-25.93-2.18-8.75-1.74-17.75 1.75-26.56 3.5-8.81 10-18.77 19.24-26.32 9.25-7.54 22.86-14.03 36.23-18.93 13.38-4.9 28.7-9.04 44.03-10.47 15.33-1.43 40.03 1.29 47.95 1.89 7.93.6.17.58-.4 1.7" stroke="#000" fill="none"/>
  </g>
  <text x="65.625" font-family="Cascadia, Segoe UI Emoji" font-size="28" text-anchor="middle" style="white-space:pre" dominant-baseline="text-before-edge" transform="translate(1719.562 493.047)">Frontend</text>
</svg>
