<svg version="1.1" xmlns="http://www.w3.org/2000/svg" viewBox="0 0 1917.5110917046504 874.6185641278198" width="3835.022183409301" height="1749.2371282556396">
  <!-- svg-source:excalidraw -->
  
  <defs>
    <style class="style-fonts">
      @font-face {
        font-family: "Virgil";
        src: url("https://excalidraw.com/Virgil.woff2");
      }
      @font-face {
        font-family: "Cascadia";
        src: url("https://excalidraw.com/Cascadia.woff2");
      }
      @font-face {
        font-family: "Assistant";
        src: url("https://excalidraw.com/Assistant-Regular.woff2");
      }
    </style>
    
  </defs>
  <g stroke-linecap="round" transform="translate(330.72590297516626 228.59680791633247) rotate(0 80.97417346775035 58.33623249827173)"><path d="M7.11 7.5 C7.11 7.5, 7.11 7.5, 7.11 7.5 M7.11 7.5 C7.11 7.5, 7.11 7.5, 7.11 7.5 M0.94 20.69 C6.44 15.58, 7.37 12.27, 16.69 2.58 M0.94 20.69 C4.19 17.59, 6.82 13, 16.69 2.58 M0.68 27.09 C6.36 19.55, 11.85 12.82, 22.99 1.43 M0.68 27.09 C5.98 21.38, 13.27 12.85, 22.99 1.43 M0.42 33.49 C12.63 20.19, 21.09 12.1, 29.29 0.28 M0.42 33.49 C8.57 24.7, 17.88 14.01, 29.29 0.28 M0.81 39.13 C9.73 28.29, 22.21 14.36, 34.93 -0.11 M0.81 39.13 C12.93 23.47, 26.56 10.12, 34.93 -0.11 M0.55 45.53 C9.29 37.16, 17.75 26.94, 39.92 0.25 M0.55 45.53 C16.09 27.95, 32.34 9.95, 39.92 0.25 M0.95 51.17 C10.04 39.25, 22.05 24.96, 45.56 -0.15 M0.95 51.17 C15.95 35.12, 28.37 20.37, 45.56 -0.15 M0.69 57.57 C21.27 37.64, 39.29 13.66, 50.55 0.21 M0.69 57.57 C20.48 35.79, 39.26 13.8, 50.55 0.21 M0.42 63.97 C23.57 40.95, 42.44 13.98, 56.19 -0.18 M0.42 63.97 C15.5 46.46, 29.88 31.24, 56.19 -0.18 M0.82 69.61 C13.75 53.51, 30.01 38.49, 61.18 0.18 M0.82 69.61 C17.98 50.09, 36.01 30.09, 61.18 0.18 M0.56 76.01 C12.65 62.31, 27.95 45.53, 66.16 0.54 M0.56 76.01 C17.3 56.73, 35.04 36.84, 66.16 0.54 M0.95 81.65 C22.89 54.43, 49.18 24.67, 71.81 0.14 M0.95 81.65 C28.5 50.62, 52.87 20.95, 71.81 0.14 M0.69 88.05 C26.84 59.21, 50.74 28.95, 76.79 0.5 M0.69 88.05 C24.59 62.26, 47.13 34.4, 76.79 0.5 M0.43 94.45 C22.87 67.29, 48.16 39.67, 82.44 0.11 M0.43 94.45 C32.74 56.79, 66.55 20.91, 82.44 0.11 M1.48 99.34 C34.59 62.08, 69.84 20.83, 87.42 0.47 M1.48 99.34 C33.71 63.61, 65.93 26.25, 87.42 0.47 M3.84 102.72 C35.65 64.96, 68.94 30.71, 93.07 0.08 M3.84 102.72 C25.52 76.9, 46.03 51.67, 93.07 0.08 M5.55 106.85 C34.75 72.79, 63.02 43.38, 98.05 0.44 M5.55 106.85 C29.37 78.33, 53.86 50.52, 98.05 0.44 M7.91 110.23 C31.09 85.1, 50.09 64.56, 103.7 0.04 M7.91 110.23 C34.24 82.12, 58.73 52.92, 103.7 0.04 M11.59 112.1 C34.53 85.96, 56.01 60.02, 108.68 0.4 M11.59 112.1 C47.89 72.56, 82.18 32.6, 108.68 0.4 M15.26 113.97 C43.69 82.25, 71.66 49.93, 114.33 0.01 M15.26 113.97 C44.33 79.99, 74.42 45.09, 114.33 0.01 M18.94 115.84 C56.44 72.4, 97.15 25.74, 119.31 0.37 M18.94 115.84 C37.56 92.83, 58.13 69.47, 119.31 0.37 M23.92 116.2 C59.62 75.18, 93.55 36.35, 124.96 -0.03 M23.92 116.2 C52.9 81.86, 80.76 49.13, 124.96 -0.03 M28.91 116.56 C58.84 84.16, 85.85 48.75, 129.94 0.33 M28.91 116.56 C64.63 74.57, 101.71 31.88, 129.94 0.33 M33.9 116.92 C67.72 80.14, 101.37 41.77, 134.93 0.69 M33.9 116.92 C58.13 90.34, 83.77 60.75, 134.93 0.69 M38.88 117.28 C63.37 88.21, 89.06 58.92, 139.92 1.05 M38.88 117.28 C77.85 71.03, 116.88 25.81, 139.92 1.05 M44.53 116.88 C79.72 75.13, 114.62 36.35, 144.9 1.41 M44.53 116.88 C74.92 82.31, 105.1 47.47, 144.9 1.41 M49.51 117.24 C81.15 81.44, 110.37 46.2, 148.58 3.28 M49.51 117.24 C70.87 92.78, 91.74 67.69, 148.58 3.28 M55.16 116.85 C81.16 87.64, 103.45 62.67, 151.6 5.91 M55.16 116.85 C80.32 88.82, 105.32 59.08, 151.6 5.91 M60.14 117.21 C88.63 87.71, 118.86 53.32, 155.27 7.78 M60.14 117.21 C93.8 78.88, 128.89 39.41, 155.27 7.78 M65.79 116.81 C89.97 88.37, 113.58 61.8, 157.64 11.15 M65.79 116.81 C84.46 95.35, 104.04 73.21, 157.64 11.15 M70.77 117.17 C101.37 82.92, 133.99 48.08, 159.34 15.29 M70.77 117.17 C102.63 82.23, 133.47 45.2, 159.34 15.29 M76.42 116.78 C107.24 80.88, 137.29 44.22, 161.05 19.42 M76.42 116.78 C105.26 81.36, 134.5 48.88, 161.05 19.42 M81.4 117.14 C101.78 94.6, 117.74 74.77, 161.44 25.06 M81.4 117.14 C105.68 89.62, 129.83 63.27, 161.44 25.06 M86.39 117.5 C109.6 93.33, 130.65 67.44, 162.49 29.95 M86.39 117.5 C114.17 86.21, 142.03 55.13, 162.49 29.95 M92.03 117.11 C106.96 98.86, 125.21 81.72, 162.89 35.6 M92.03 117.11 C111.67 93.03, 132.6 69.59, 162.89 35.6 M97.02 117.47 C117.46 93.49, 141.66 65.47, 162.63 41.99 M97.02 117.47 C110.24 102.28, 122.52 88.57, 162.63 41.99 M102.66 117.07 C115.64 103.22, 128.76 89.66, 162.37 48.39 M102.66 117.07 C117.96 100.14, 130.79 84.76, 162.37 48.39 M107.65 117.43 C127.78 96.38, 145.68 74.13, 162.76 54.04 M107.65 117.43 C126.48 95.6, 146.76 74, 162.76 54.04 M113.3 117.04 C127.65 98.5, 145.38 80.4, 162.5 60.43 M113.3 117.04 C131.69 94.31, 152.97 71.44, 162.5 60.43 M118.28 117.4 C135.49 101.36, 150.2 81.5, 162.24 66.83 M118.28 117.4 C132.47 99.99, 146.34 82.93, 162.24 66.83 M123.93 117 C135.08 104.44, 141.91 95.37, 162.63 72.47 M123.93 117 C133.18 105.55, 143.89 94.66, 162.63 72.47 M128.91 117.36 C138.85 106.85, 150.73 90.26, 162.37 78.87 M128.91 117.36 C134.88 109.45, 143.24 102.29, 162.37 78.87 M134.56 116.97 C143.98 104.83, 157.23 91.97, 162.11 85.27 M134.56 116.97 C143.11 108.78, 149.76 99.67, 162.11 85.27 M140.85 115.82 C145.09 110.14, 148.92 104.94, 162.5 90.91 M140.85 115.82 C147.65 108.21, 153.46 99.91, 162.5 90.91 M148.47 113.16 C153.1 110.42, 155.42 104.08, 160.27 99.57 M148.47 113.16 C151.63 108.66, 155.98 104.38, 160.27 99.57" stroke="#a5d8ff" stroke-width="0.5" fill="none"></path><path d="M29.17 0 C68.06 1.19, 102.06 -0.92, 132.78 0 M29.17 0 C58.68 0.47, 86.18 0.3, 132.78 0 M132.78 0 C151.43 -0.62, 160.87 11.63, 161.95 29.17 M132.78 0 C150.78 -2.19, 161.39 11.07, 161.95 29.17 M161.95 29.17 C160.89 45.75, 164.29 62.22, 161.95 87.5 M161.95 29.17 C162.68 51.93, 162.21 73.88, 161.95 87.5 M161.95 87.5 C162.27 105.34, 152.74 115.09, 132.78 116.67 M161.95 87.5 C163.97 105.76, 154.36 116.29, 132.78 116.67 M132.78 116.67 C99.57 116.03, 69.3 115.82, 29.17 116.67 M132.78 116.67 C91.82 118.05, 50.06 117.93, 29.17 116.67 M29.17 116.67 C9.22 116.35, 1.82 107.04, 0 87.5 M29.17 116.67 C9.65 118.78, -2.23 106.51, 0 87.5 M0 87.5 C-1.48 74.27, -1.33 62.79, 0 29.17 M0 87.5 C0.69 70.6, 1.23 52.88, 0 29.17 M0 29.17 C-1.6 8.58, 9.98 -1.32, 29.17 0 M0 29.17 C1.88 11.44, 7.97 1.99, 29.17 0" stroke="#000000" stroke-width="1" fill="none"></path></g><g transform="translate(383.5750764429167 277.33304041460417) rotate(0 28.125 9.600000000000009)"><text x="28.125" y="0" font-family="Cascadia, Segoe UI Emoji" font-size="16px" fill="#000000" text-anchor="middle" style="white-space: pre;" direction="ltr" dominant-baseline="text-before-edge">ogmios</text></g><g stroke-linecap="round" transform="translate(124.9257243725865 225.2418975844052) rotate(0 80.97417346775035 58.33623249827173)"><path d="M7.11 7.5 C7.11 7.5, 7.11 7.5, 7.11 7.5 M7.11 7.5 C7.11 7.5, 7.11 7.5, 7.11 7.5 M0.94 20.69 C7.83 12.3, 11.97 6.8, 16.69 2.58 M0.94 20.69 C7.17 14.23, 11.41 7.87, 16.69 2.58 M0.68 27.09 C7.93 21.59, 14.13 13.15, 22.99 1.43 M0.68 27.09 C4.84 22.5, 9.26 17.2, 22.99 1.43 M0.42 33.49 C7.99 24.06, 13.95 16.68, 29.29 0.28 M0.42 33.49 C6.51 27.06, 13.91 19.73, 29.29 0.28 M0.81 39.13 C15.38 21.4, 27.39 7.16, 34.93 -0.11 M0.81 39.13 C9.56 27.5, 19.83 16.09, 34.93 -0.11 M0.55 45.53 C12.88 32.63, 26.37 15.44, 39.92 0.25 M0.55 45.53 C13.72 31.28, 25.97 15.63, 39.92 0.25 M0.95 51.17 C14.37 33.38, 30.16 15.25, 45.56 -0.15 M0.95 51.17 C11.08 39.31, 23.34 27.02, 45.56 -0.15 M0.69 57.57 C15.59 37.02, 33.99 20.6, 50.55 0.21 M0.69 57.57 C12.57 43.95, 23.35 31.84, 50.55 0.21 M0.42 63.97 C21.56 39.06, 41.82 16.63, 56.19 -0.18 M0.42 63.97 C17.85 44.38, 36.01 22.4, 56.19 -0.18 M0.82 69.61 C23.27 46.46, 42.54 20.29, 61.18 0.18 M0.82 69.61 C18.94 48.67, 35.86 28.91, 61.18 0.18 M0.56 76.01 C26.91 46.68, 53.31 16.12, 66.16 0.54 M0.56 76.01 C17.37 56.35, 35.86 38.72, 66.16 0.54 M0.95 81.65 C14.93 66.9, 30.72 47.57, 71.81 0.14 M0.95 81.65 C21.79 56.98, 41.54 32.35, 71.81 0.14 M0.69 88.05 C29.49 53.9, 60.17 16.86, 76.79 0.5 M0.69 88.05 C22.61 62.54, 42.87 37.5, 76.79 0.5 M0.43 94.45 C22.94 66.3, 49.35 41.81, 82.44 0.11 M0.43 94.45 C29.26 60.26, 60.38 25.48, 82.44 0.11 M1.48 99.34 C25.78 71.14, 50.19 44.93, 87.42 0.47 M1.48 99.34 C29.24 68.54, 56.37 38.68, 87.42 0.47 M3.84 102.72 C39.05 63.61, 73.7 21.88, 93.07 0.08 M3.84 102.72 C24.31 78.09, 45.11 54.83, 93.07 0.08 M5.55 106.85 C29.99 77.32, 57.28 46.01, 98.05 0.44 M5.55 106.85 C38.23 69.73, 70.7 31.54, 98.05 0.44 M7.91 110.23 C45.05 67.85, 79.7 25.98, 103.7 0.04 M7.91 110.23 C32.59 82.45, 55.93 54.85, 103.7 0.04 M11.59 112.1 C35.67 85.07, 57.74 61.68, 108.68 0.4 M11.59 112.1 C39.52 78.35, 68.83 45.98, 108.68 0.4 M15.26 113.97 C50.73 72.35, 86.8 29.91, 114.33 0.01 M15.26 113.97 C47.92 79.05, 79.2 42.9, 114.33 0.01 M18.94 115.84 C48.7 76.28, 82.29 39.84, 119.31 0.37 M18.94 115.84 C52.68 75.68, 85.95 36.2, 119.31 0.37 M23.92 116.2 C56.57 78.95, 92.9 39.69, 124.96 -0.03 M23.92 116.2 C60.24 76.8, 94.49 36.81, 124.96 -0.03 M28.91 116.56 C55.32 87.19, 80.21 55.17, 129.94 0.33 M28.91 116.56 C64.31 74.25, 101.18 33.25, 129.94 0.33 M33.9 116.92 C65.77 79.13, 101.64 39.29, 134.93 0.69 M33.9 116.92 C58.43 91.61, 81.04 64.97, 134.93 0.69 M38.88 117.28 C76.42 74.25, 114.02 31.43, 139.92 1.05 M38.88 117.28 C70.94 79.17, 104.09 40.87, 139.92 1.05 M44.53 116.88 C73.69 84.26, 101.26 54.08, 144.9 1.41 M44.53 116.88 C72.11 84.69, 98.32 53.53, 144.9 1.41 M49.51 117.24 C80.07 85.84, 105.98 49.57, 148.58 3.28 M49.51 117.24 C80.39 83.27, 108.8 49.93, 148.58 3.28 M55.16 116.85 C86.03 84.71, 113.21 49.89, 151.6 5.91 M55.16 116.85 C87.31 79.56, 120.32 41.26, 151.6 5.91 M60.14 117.21 C84.69 88.78, 107.94 65.19, 155.27 7.78 M60.14 117.21 C81.07 93.63, 102.79 68.42, 155.27 7.78 M65.79 116.81 C89 92.78, 109.26 65.47, 157.64 11.15 M65.79 116.81 C94.88 82.35, 124.23 48.96, 157.64 11.15 M70.77 117.17 C88.47 95.83, 108.94 78.07, 159.34 15.29 M70.77 117.17 C100.77 80.88, 132.7 46.01, 159.34 15.29 M76.42 116.78 C106.73 82.35, 138.72 43.29, 161.05 19.42 M76.42 116.78 C100.46 91.62, 122.99 66.24, 161.05 19.42 M81.4 117.14 C105.13 91.01, 129.08 61.67, 161.44 25.06 M81.4 117.14 C99.46 96.55, 116.15 78.09, 161.44 25.06 M86.39 117.5 C105.51 97.74, 122.88 76.1, 162.49 29.95 M86.39 117.5 C103.49 96.8, 121.51 77.44, 162.49 29.95 M92.03 117.11 C110.19 98.15, 124.04 80.96, 162.89 35.6 M92.03 117.11 C107.74 99.34, 123.78 80.99, 162.89 35.6 M97.02 117.47 C111.68 101.8, 126.13 85.1, 162.63 41.99 M97.02 117.47 C113.2 98.81, 130.51 78.93, 162.63 41.99 M102.66 117.07 C119.54 100.97, 132.88 83.02, 162.37 48.39 M102.66 117.07 C119.84 96.16, 137.45 76.7, 162.37 48.39 M107.65 117.43 C127.04 91.63, 148.49 66.7, 162.76 54.04 M107.65 117.43 C127.67 93.25, 148.57 70.97, 162.76 54.04 M113.3 117.04 C130.49 94.62, 148.75 76.85, 162.5 60.43 M113.3 117.04 C125.41 102.01, 138.21 87.77, 162.5 60.43 M118.28 117.4 C128.39 103.63, 139.55 90.18, 162.24 66.83 M118.28 117.4 C127.5 107.61, 135.47 96.12, 162.24 66.83 M123.93 117 C137.41 102.71, 153.29 86.16, 162.63 72.47 M123.93 117 C138.21 100.23, 152.71 83.6, 162.63 72.47 M128.91 117.36 C136.22 109.3, 144.72 100.19, 162.37 78.87 M128.91 117.36 C142.01 103.17, 154.59 88.36, 162.37 78.87 M134.56 116.97 C144.8 107.14, 155.85 96.33, 162.11 85.27 M134.56 116.97 C141.47 110.21, 147.69 101.89, 162.11 85.27 M140.85 115.82 C147.4 106.9, 154.93 102.79, 162.5 90.91 M140.85 115.82 C148.03 108.34, 152.98 100.83, 162.5 90.91 M148.47 113.16 C149.94 111.66, 154.22 108.36, 160.27 99.57 M148.47 113.16 C152.77 109.2, 155.22 104.59, 160.27 99.57" stroke="#a5d8ff" stroke-width="0.5" fill="none"></path><path d="M29.17 0 C61.79 0.54, 95.56 0.83, 132.78 0 M29.17 0 C68.55 -0.3, 110.32 0.81, 132.78 0 M132.78 0 C151.17 -0.81, 163.69 8.42, 161.95 29.17 M132.78 0 C151.41 0.47, 160.56 11.17, 161.95 29.17 M161.95 29.17 C161.43 50.35, 160.88 73.05, 161.95 87.5 M161.95 29.17 C161.71 48.75, 161.72 69.69, 161.95 87.5 M161.95 87.5 C161.9 105.51, 154.14 116.06, 132.78 116.67 M161.95 87.5 C163.69 106.93, 152.86 116.8, 132.78 116.67 M132.78 116.67 C103.83 117.16, 75.76 115.42, 29.17 116.67 M132.78 116.67 C108.48 116.08, 82.68 115.94, 29.17 116.67 M29.17 116.67 C9.58 115.15, 1.43 105.17, 0 87.5 M29.17 116.67 C8.84 118.31, -1.07 106.12, 0 87.5 M0 87.5 C1.61 64.28, -0.34 42.71, 0 29.17 M0 87.5 C1.11 73.97, 0.72 61.3, 0 29.17 M0 29.17 C-1.59 9.33, 10.19 1.42, 29.17 0 M0 29.17 C0.19 8.99, 10.5 0.78, 29.17 0" stroke="#000000" stroke-width="1" fill="none"></path></g><g transform="translate(187.14989784033673 273.9781300826769) rotate(0 18.75 9.599999999999994)"><text x="18.75" y="0" font-family="Cascadia, Segoe UI Emoji" font-size="16px" fill="#000000" text-anchor="middle" style="white-space: pre;" direction="ltr" dominant-baseline="text-before-edge">kupo</text></g><g stroke-linecap="round" transform="translate(222.5590568444095 22.45635210786761) rotate(0 80.97417346775035 58.33623249827173)"><path d="M7.11 7.5 C7.11 7.5, 7.11 7.5, 7.11 7.5 M7.11 7.5 C7.11 7.5, 7.11 7.5, 7.11 7.5 M0.94 20.69 C5.48 15.22, 9.5 11.93, 16.69 2.58 M0.94 20.69 C5.42 13.8, 12.81 7.89, 16.69 2.58 M0.68 27.09 C4.04 19.76, 9.97 17.15, 22.99 1.43 M0.68 27.09 C8.22 17.17, 16.73 9.14, 22.99 1.43 M0.42 33.49 C9.74 27.15, 16.35 17.21, 29.29 0.28 M0.42 33.49 C9.96 23.02, 18.41 12.39, 29.29 0.28 M0.81 39.13 C10.93 28.6, 19.72 16.16, 34.93 -0.11 M0.81 39.13 C9.68 30.11, 18.42 19.66, 34.93 -0.11 M0.55 45.53 C11.17 32.1, 21.47 21.37, 39.92 0.25 M0.55 45.53 C7.95 37.06, 16.89 27.69, 39.92 0.25 M0.95 51.17 C17.54 32.25, 34.71 11.99, 45.56 -0.15 M0.95 51.17 C15.59 33.45, 31.69 16.91, 45.56 -0.15 M0.69 57.57 C14.36 40.01, 27.14 26.43, 50.55 0.21 M0.69 57.57 C19.52 35.96, 38.03 13.02, 50.55 0.21 M0.42 63.97 C11.61 52.95, 23.15 37.93, 56.19 -0.18 M0.42 63.97 C16.92 45.74, 34.36 27.51, 56.19 -0.18 M0.82 69.61 C21.24 45.61, 40.57 22.73, 61.18 0.18 M0.82 69.61 C17.73 50.56, 34.17 30.98, 61.18 0.18 M0.56 76.01 C26.52 45.94, 53.03 19.6, 66.16 0.54 M0.56 76.01 C24.85 47.01, 50.92 17.62, 66.16 0.54 M0.95 81.65 C21.16 60.7, 40.73 35.43, 71.81 0.14 M0.95 81.65 C15.61 64.21, 30.05 48.34, 71.81 0.14 M0.69 88.05 C26.22 56.93, 55.49 25.7, 76.79 0.5 M0.69 88.05 C19.96 66.97, 39.73 45.74, 76.79 0.5 M0.43 94.45 C25.43 67.05, 49.32 35.44, 82.44 0.11 M0.43 94.45 C16.2 75.81, 34.07 55.49, 82.44 0.11 M1.48 99.34 C19.58 78.31, 37.69 59.53, 87.42 0.47 M1.48 99.34 C29.78 66.6, 57.78 34.09, 87.42 0.47 M3.84 102.72 C38.11 65.27, 71.24 24.39, 93.07 0.08 M3.84 102.72 C34.62 66.27, 67.24 29.12, 93.07 0.08 M5.55 106.85 C32.4 71.3, 62.56 38.06, 98.05 0.44 M5.55 106.85 C27.13 81.27, 50 55.67, 98.05 0.44 M7.91 110.23 C29.01 83.77, 52.49 59.79, 103.7 0.04 M7.91 110.23 C34.09 79.87, 60.82 47.94, 103.7 0.04 M11.59 112.1 C40.65 81.27, 66.61 48.38, 108.68 0.4 M11.59 112.1 C33.32 86.88, 53.64 62.86, 108.68 0.4 M15.26 113.97 C46.65 75.33, 80.42 38.58, 114.33 0.01 M15.26 113.97 C39.36 86.65, 63.31 57.84, 114.33 0.01 M18.94 115.84 C44.44 91.09, 67.09 64.73, 119.31 0.37 M18.94 115.84 C46.21 86.35, 72.63 55.48, 119.31 0.37 M23.92 116.2 C55.44 77.79, 86.93 41.68, 124.96 -0.03 M23.92 116.2 C48.68 88.08, 72.76 57.85, 124.96 -0.03 M28.91 116.56 C55.66 84.14, 82.23 51.52, 129.94 0.33 M28.91 116.56 C66.45 74, 102.67 30.05, 129.94 0.33 M33.9 116.92 C71.95 72.35, 107.06 30.43, 134.93 0.69 M33.9 116.92 C69.64 77.19, 103.38 36.58, 134.93 0.69 M38.88 117.28 C57.95 94.54, 78.64 68.32, 139.92 1.05 M38.88 117.28 C73.58 77.48, 106.47 37.4, 139.92 1.05 M44.53 116.88 C71.97 85.36, 97.76 55.16, 144.9 1.41 M44.53 116.88 C76.26 80.41, 105.87 44.64, 144.9 1.41 M49.51 117.24 C78.94 82.06, 110.17 46.3, 148.58 3.28 M49.51 117.24 C83.25 79.31, 118.57 39.8, 148.58 3.28 M55.16 116.85 C85.32 80.36, 119.15 45.98, 151.6 5.91 M55.16 116.85 C92.42 75.8, 129.88 31.92, 151.6 5.91 M60.14 117.21 C87.21 87.78, 115.57 54.09, 155.27 7.78 M60.14 117.21 C94.38 78.28, 126.97 40.62, 155.27 7.78 M65.79 116.81 C101.18 74.66, 137.31 34.66, 157.64 11.15 M65.79 116.81 C92.71 83.57, 122.29 51.22, 157.64 11.15 M70.77 117.17 C102.16 83.56, 131.87 48.84, 159.34 15.29 M70.77 117.17 C100.94 82.47, 128.93 48.46, 159.34 15.29 M76.42 116.78 C105.83 83.71, 134.35 52.64, 161.05 19.42 M76.42 116.78 C103.1 85.84, 130.35 53.4, 161.05 19.42 M81.4 117.14 C105.26 92.51, 124.73 65.09, 161.44 25.06 M81.4 117.14 C100.61 94.01, 119.34 71.94, 161.44 25.06 M86.39 117.5 C112.62 90.94, 135.36 62.36, 162.49 29.95 M86.39 117.5 C110.71 87.82, 136.45 58.74, 162.49 29.95 M92.03 117.11 C108.59 100.07, 124.57 81.92, 162.89 35.6 M92.03 117.11 C105.7 99.64, 122.34 81.31, 162.89 35.6 M97.02 117.47 C119.34 91.87, 140.8 66.86, 162.63 41.99 M97.02 117.47 C121.13 88.93, 146.12 59.89, 162.63 41.99 M102.66 117.07 C120.79 93.22, 139.75 74.7, 162.37 48.39 M102.66 117.07 C126.32 90.84, 150 64.44, 162.37 48.39 M107.65 117.43 C120.94 100.68, 134.54 85.56, 162.76 54.04 M107.65 117.43 C127.3 94.68, 145.54 73.2, 162.76 54.04 M113.3 117.04 C133.21 95.63, 152.66 71.55, 162.5 60.43 M113.3 117.04 C126 100.58, 139.81 83.98, 162.5 60.43 M118.28 117.4 C134.25 100.7, 147.21 83.33, 162.24 66.83 M118.28 117.4 C128.1 106.49, 139.09 93.54, 162.24 66.83 M123.93 117 C135.93 102.44, 147.64 87.47, 162.63 72.47 M123.93 117 C132.73 108.58, 140.55 96.97, 162.63 72.47 M128.91 117.36 C137.63 107.33, 148.4 96.57, 162.37 78.87 M128.91 117.36 C140.23 104.48, 150.54 91.34, 162.37 78.87 M134.56 116.97 C141.27 109.42, 145.81 101.66, 162.11 85.27 M134.56 116.97 C143.47 108.09, 151.81 97.08, 162.11 85.27 M140.85 115.82 C147.16 109.44, 151.07 105.33, 162.5 90.91 M140.85 115.82 C145.5 111.53, 150.55 104.41, 162.5 90.91 M148.47 113.16 C151.04 110.36, 153.99 104.31, 160.27 99.57 M148.47 113.16 C151.63 110.73, 154.37 107.43, 160.27 99.57" stroke="#a5d8ff" stroke-width="0.5" fill="none"></path><path d="M29.17 0 C72.14 -0.13, 112.69 0.14, 132.78 0 M29.17 0 C50.56 0.68, 72.34 -0.48, 132.78 0 M132.78 0 C151.16 -0.16, 160.22 10.08, 161.95 29.17 M132.78 0 C152.57 2.16, 161.82 11.86, 161.95 29.17 M161.95 29.17 C160.91 50.73, 162.33 70.45, 161.95 87.5 M161.95 29.17 C162.41 45.24, 160.7 63.12, 161.95 87.5 M161.95 87.5 C159.99 106.91, 150.97 114.75, 132.78 116.67 M161.95 87.5 C163.96 104.79, 153.84 118.37, 132.78 116.67 M132.78 116.67 C96.97 116.39, 57.61 118.02, 29.17 116.67 M132.78 116.67 C91.47 116.98, 49.53 116.49, 29.17 116.67 M29.17 116.67 C10.13 117.84, -0.99 108.06, 0 87.5 M29.17 116.67 C10.69 114.81, 1.3 105.71, 0 87.5 M0 87.5 C0.15 70.77, 1.15 48.98, 0 29.17 M0 87.5 C1.05 68.17, 0.49 47.11, 0 29.17 M0 29.17 C-0.02 11.23, 9.01 1.18, 29.17 0 M0 29.17 C-0.9 8.47, 11.15 2.15, 29.17 0" stroke="#000000" stroke-width="1" fill="none"></path></g><g transform="translate(247.28323031215996 71.19258460613932) rotate(0 56.25 9.600000000000001)"><text x="56.25" y="0" font-family="Cascadia, Segoe UI Emoji" font-size="16px" fill="#000000" text-anchor="middle" style="white-space: pre;" direction="ltr" dominant-baseline="text-before-edge">cardano-node</text></g><g stroke-linecap="round" transform="translate(219.61015701088536 747.9460991312764) rotate(0 80.97417346775035 58.33623249827173)"><path d="M7.11 7.5 C7.11 7.5, 7.11 7.5, 7.11 7.5 M7.11 7.5 C7.11 7.5, 7.11 7.5, 7.11 7.5 M0.94 20.69 C5.3 14.28, 11.42 7.78, 16.69 2.58 M0.94 20.69 C5.47 13.99, 11.81 7.9, 16.69 2.58 M0.68 27.09 C7.8 17.36, 16.32 9.57, 22.99 1.43 M0.68 27.09 C7.65 19.19, 12.86 12.23, 22.99 1.43 M0.42 33.49 C7.66 27.89, 11.26 20.87, 29.29 0.28 M0.42 33.49 C8.44 23.56, 17.45 13.58, 29.29 0.28 M0.81 39.13 C9.78 28.63, 19.45 17.93, 34.93 -0.11 M0.81 39.13 C11.96 28.07, 23.07 15.88, 34.93 -0.11 M0.55 45.53 C12.53 29.84, 25.65 16.3, 39.92 0.25 M0.55 45.53 C11.94 31.98, 22.73 17.97, 39.92 0.25 M0.95 51.17 C14.04 38.34, 24.25 24.58, 45.56 -0.15 M0.95 51.17 C15.83 33.38, 32.28 17, 45.56 -0.15 M0.69 57.57 C18.93 38.94, 33.83 15.08, 50.55 0.21 M0.69 57.57 C16.39 41.53, 30.5 24.12, 50.55 0.21 M0.42 63.97 C13.35 47.28, 26.07 33.67, 56.19 -0.18 M0.42 63.97 C16.77 42.44, 36 22.52, 56.19 -0.18 M0.82 69.61 C22.07 48.84, 40.24 27.59, 61.18 0.18 M0.82 69.61 C15.54 51.77, 29.27 34.42, 61.18 0.18 M0.56 76.01 C18.69 56.23, 32.53 38.6, 66.16 0.54 M0.56 76.01 C16.94 55.01, 35.71 36.2, 66.16 0.54 M0.95 81.65 C16.72 59.66, 34.26 40.81, 71.81 0.14 M0.95 81.65 C23.83 56.31, 45.15 30.64, 71.81 0.14 M0.69 88.05 C21.36 65.04, 44.91 38.67, 76.79 0.5 M0.69 88.05 C24.61 60.53, 49.46 31.52, 76.79 0.5 M0.43 94.45 C18.01 73.86, 38.2 54.46, 82.44 0.11 M0.43 94.45 C19.82 71.6, 40.61 49.12, 82.44 0.11 M1.48 99.34 C25.66 70.75, 50.86 45.69, 87.42 0.47 M1.48 99.34 C27.1 70.22, 50.73 42.82, 87.42 0.47 M3.84 102.72 C21.25 80.74, 42.63 56.58, 93.07 0.08 M3.84 102.72 C35.19 66.46, 66.21 31.36, 93.07 0.08 M5.55 106.85 C38.26 71.23, 71.18 35.54, 98.05 0.44 M5.55 106.85 C30.94 77.39, 55.34 48.41, 98.05 0.44 M7.91 110.23 C29.9 82.72, 54.12 55.55, 103.7 0.04 M7.91 110.23 C44.72 67.2, 80.32 24.52, 103.7 0.04 M11.59 112.1 C46.12 70.74, 81.23 31.27, 108.68 0.4 M11.59 112.1 C37.21 82.53, 64.27 54.01, 108.68 0.4 M15.26 113.97 C50.69 69.79, 89.06 28.11, 114.33 0.01 M15.26 113.97 C38.83 87.8, 64.45 58.44, 114.33 0.01 M18.94 115.84 C54.41 75.5, 94.04 32.31, 119.31 0.37 M18.94 115.84 C55.1 76.28, 90.26 34.66, 119.31 0.37 M23.92 116.2 C60.15 72.86, 98.58 31.93, 124.96 -0.03 M23.92 116.2 C47.24 89.36, 71.83 61.32, 124.96 -0.03 M28.91 116.56 C61.82 77.1, 98.03 38.3, 129.94 0.33 M28.91 116.56 C61.33 80.41, 92.85 43.96, 129.94 0.33 M33.9 116.92 C71.65 73.1, 113.13 29.77, 134.93 0.69 M33.9 116.92 C60.99 85.86, 87.71 53.74, 134.93 0.69 M38.88 117.28 C62.26 89.26, 84.08 60.13, 139.92 1.05 M38.88 117.28 C61.62 91.98, 83.44 65.49, 139.92 1.05 M44.53 116.88 C71.68 81.8, 101.41 46.36, 144.9 1.41 M44.53 116.88 C65.63 92.52, 87.62 65.81, 144.9 1.41 M49.51 117.24 C86.59 78.21, 121.16 34.8, 148.58 3.28 M49.51 117.24 C72.03 93.36, 93.34 69.26, 148.58 3.28 M55.16 116.85 C76.01 92.89, 96.61 70.04, 151.6 5.91 M55.16 116.85 C90.16 75.95, 125.42 34.51, 151.6 5.91 M60.14 117.21 C96.59 76.26, 134.76 33.47, 155.27 7.78 M60.14 117.21 C95.27 76.95, 129.83 37.73, 155.27 7.78 M65.79 116.81 C92.56 82.26, 123.98 50.31, 157.64 11.15 M65.79 116.81 C99.6 76.95, 134.84 38.04, 157.64 11.15 M70.77 117.17 C100.58 83.21, 131.85 46.29, 159.34 15.29 M70.77 117.17 C105.15 77.85, 140.14 37.76, 159.34 15.29 M76.42 116.78 C97.05 93.04, 114.6 73.68, 161.05 19.42 M76.42 116.78 C102.91 85.2, 129.23 56, 161.05 19.42 M81.4 117.14 C96.23 98.16, 112.38 79.44, 161.44 25.06 M81.4 117.14 C107.38 87.16, 135.19 55.83, 161.44 25.06 M86.39 117.5 C104.92 96.02, 123.16 73.18, 162.49 29.95 M86.39 117.5 C104.89 99.55, 120.62 78.34, 162.49 29.95 M92.03 117.11 C115.42 88.06, 139.11 62.34, 162.89 35.6 M92.03 117.11 C113.3 92.77, 135.21 68.47, 162.89 35.6 M97.02 117.47 C119.46 94.81, 141.07 66.72, 162.63 41.99 M97.02 117.47 C118.68 90.9, 142.94 65.9, 162.63 41.99 M102.66 117.07 C114.91 102.93, 128.26 84.78, 162.37 48.39 M102.66 117.07 C121.76 95.23, 141.01 73.61, 162.37 48.39 M107.65 117.43 C121.91 100.14, 138.17 83.7, 162.76 54.04 M107.65 117.43 C124.13 96.88, 142.66 76.94, 162.76 54.04 M113.3 117.04 C128.33 96.67, 147.83 79.08, 162.5 60.43 M113.3 117.04 C127.03 101.5, 141.03 86.1, 162.5 60.43 M118.28 117.4 C133.22 97.89, 149.73 82.77, 162.24 66.83 M118.28 117.4 C132.77 100.11, 147.93 82.48, 162.24 66.83 M123.93 117 C134.99 100.27, 148.41 85.79, 162.63 72.47 M123.93 117 C138.63 99.53, 152.38 84.21, 162.63 72.47 M128.91 117.36 C136.78 105.55, 150.46 93.57, 162.37 78.87 M128.91 117.36 C136.73 107.09, 145.99 98.39, 162.37 78.87 M134.56 116.97 C145.23 105.84, 153.17 92.27, 162.11 85.27 M134.56 116.97 C142.94 108.47, 149.58 100.18, 162.11 85.27 M140.85 115.82 C145.76 106.76, 155.82 101.75, 162.5 90.91 M140.85 115.82 C146.19 109.39, 151.09 104.22, 162.5 90.91 M148.47 113.16 C154.7 108.24, 155.68 102.03, 160.27 99.57 M148.47 113.16 C153.04 107.61, 157.02 101.82, 160.27 99.57" stroke="#a5d8ff" stroke-width="0.5" fill="none"></path><path d="M29.17 0 C51.86 0.5, 79.79 0.26, 132.78 0 M29.17 0 C63.39 -1.14, 99.08 0.31, 132.78 0 M132.78 0 C150.75 -0.37, 161.92 10.73, 161.95 29.17 M132.78 0 C150.71 0.03, 162.42 11.06, 161.95 29.17 M161.95 29.17 C160.65 44.9, 161.2 58.71, 161.95 87.5 M161.95 29.17 C162.97 52.69, 161.32 74.92, 161.95 87.5 M161.95 87.5 C161.69 108.49, 154.18 117.45, 132.78 116.67 M161.95 87.5 C162.9 104.75, 152.21 118.41, 132.78 116.67 M132.78 116.67 C104.3 117.51, 79.87 116.45, 29.17 116.67 M132.78 116.67 C101.55 116.66, 68.69 116.01, 29.17 116.67 M29.17 116.67 C8.15 115.32, -1.64 108.93, 0 87.5 M29.17 116.67 C11.8 114.55, -0.41 106.29, 0 87.5 M0 87.5 C-0.99 72.52, 0.64 58.61, 0 29.17 M0 87.5 C-0.53 69.08, -0.16 47.77, 0 29.17 M0 29.17 C-1.84 9.88, 8.15 -1.9, 29.17 0 M0 29.17 C-0.4 10.75, 11.25 1.86, 29.17 0" stroke="#000000" stroke-width="1" fill="none"></path></g><g transform="translate(253.70933047863582 796.6823316295481) rotate(0 46.875 9.600000000000023)"><text x="46.875" y="0" font-family="Cascadia, Segoe UI Emoji" font-size="16px" fill="#000000" text-anchor="middle" style="white-space: pre;" direction="ltr" dominant-baseline="text-before-edge">PostgreSQL</text></g><g stroke-linecap="round"><g transform="translate(358.3361328200813 151.31847762643804) rotate(0 0.9017290080182647 34.285714958509026)"><path d="M-0.93 -1.19 C-0.63 10.41, 0.17 57.9, 0.8 69.44 M0.78 0.8 C1.54 12.09, 2.67 56.4, 2.98 67.77" stroke="#000000" stroke-width="1" fill="none"></path></g></g><mask></mask><g stroke-linecap="round"><g transform="translate(252.7940614287238 152.18916766372564) rotate(0 1.4309675456391915 29.12549964339481)"><path d="M-0.5 -0.84 C0.05 8.7, 3.33 47.52, 3.77 57.24 M1.45 1.34 C1.87 10.99, 2.77 48.74, 3.3 58.25" stroke="#000000" stroke-width="1" fill="none"></path></g></g><mask></mask><g stroke-linecap="round" transform="translate(10.000000000000227 382.5886463667156) rotate(0 291.8621653024119 128.61819253674614)"><path d="M12.89 90.7 C12.89 90.7, 12.89 90.7, 12.89 90.7 M12.89 90.7 C12.89 90.7, 12.89 90.7, 12.89 90.7 M8.03 102.39 C19.86 92.39, 28.69 79.98, 38.87 66.91 M8.03 102.39 C15.65 93.47, 23.08 84.73, 38.87 66.91 M3.84 113.31 C18.91 97.21, 30.59 80.07, 53.04 56.71 M3.84 113.31 C15.89 98.72, 28.74 84.11, 53.04 56.71 M-0.36 124.24 C19.95 101.01, 39.73 79.51, 63.93 50.28 M-0.36 124.24 C23.83 96.6, 47.27 70.09, 63.93 50.28 M1.35 128.37 C24.83 102.07, 46.6 73.82, 74.17 44.6 M1.35 128.37 C19.52 108.97, 35.91 89, 74.17 44.6 M2.4 133.26 C36.26 95.09, 67.75 57.77, 85.06 38.17 M2.4 133.26 C28.79 104.19, 53.01 74.54, 85.06 38.17 M3.45 138.15 C34.5 103.24, 63.48 70.35, 93.33 34.75 M3.45 138.15 C24.4 115.76, 44.54 91.22, 93.33 34.75 M4.5 143.04 C25.87 117.9, 49.08 92.1, 100.94 32.09 M4.5 143.04 C35.87 107.95, 68.21 71.55, 100.94 32.09 M5.55 147.92 C27.47 118.65, 51.39 91.77, 108.55 29.44 M5.55 147.92 C43.42 104.39, 81.29 61.09, 108.55 29.44 M7.26 152.06 C45.32 110.36, 79.12 70.73, 115.51 27.53 M7.26 152.06 C38.5 115.28, 70.08 79.5, 115.51 27.53 M8.31 156.95 C44.42 116.82, 77.71 76.98, 123.12 24.87 M8.31 156.95 C43.14 115.33, 77.58 74.86, 123.12 24.87 M10.67 160.33 C48.58 117.49, 84.9 77.06, 130.07 22.97 M10.67 160.33 C41.23 123.65, 71.57 87.95, 130.07 22.97 M13.69 162.95 C63.37 105.97, 113.22 49.15, 137.68 20.31 M13.69 162.95 C58.91 113.89, 103.54 63.32, 137.68 20.31 M16.05 166.33 C65.71 109.48, 113.88 53.28, 145.29 17.65 M16.05 166.33 C52.77 125.59, 89.5 83.67, 145.29 17.65 M18.41 169.71 C60.03 121.23, 101.51 72.91, 152.25 15.75 M18.41 169.71 C63.88 116.07, 110.68 64.17, 152.25 15.75 M21.43 172.33 C59.2 128.77, 99.03 82.62, 159.86 13.09 M21.43 172.33 C74.59 110.93, 129.02 48.95, 159.86 13.09 M23.79 175.71 C79.4 114.07, 132.58 49.65, 165.5 12.69 M23.79 175.71 C73.42 118.16, 124.96 59.05, 165.5 12.69 M26.16 179.09 C77.93 121.24, 128.31 62.07, 171.8 11.54 M26.16 179.09 C56.15 143.57, 87.18 109.3, 171.8 11.54 M29.18 181.71 C86.39 117.8, 141.76 56.06, 177.45 11.15 M29.18 181.71 C60.61 143.47, 92.88 106.83, 177.45 11.15 M31.54 185.09 C65.89 147.48, 96.64 110.67, 183.74 10 M31.54 185.09 C87.27 120.68, 141.6 58.35, 183.74 10 M34.56 187.72 C84.37 131.75, 135.44 74.29, 190.04 8.85 M34.56 187.72 C67.78 151.55, 100.13 114.91, 190.04 8.85 M37.58 190.34 C97.07 122.91, 155.93 56.22, 195.69 8.46 M37.58 190.34 C79.48 142.27, 120.09 95.78, 195.69 8.46 M40.6 192.97 C85.57 143.63, 128.6 90.13, 201.99 7.31 M40.6 192.97 C89.44 136.67, 138.68 81.37, 201.99 7.31 M44.27 194.84 C100.96 130.71, 155.75 66.91, 207.63 6.91 M44.27 194.84 C94.53 138.33, 142.78 81.74, 207.63 6.91 M47.95 196.7 C88.42 153.04, 128.8 105.18, 213.93 5.76 M47.95 196.7 C109.67 126.77, 170.52 56.99, 213.93 5.76 M50.96 199.33 C109.15 131.08, 167.83 62.68, 220.23 4.61 M50.96 199.33 C95.17 146.2, 141.36 93.82, 220.23 4.61 M54.64 201.2 C115.81 128.59, 180.74 56.67, 225.87 4.22 M54.64 201.2 C117 129.52, 179.75 55.95, 225.87 4.22 M57.66 203.82 C96.9 156.01, 139.87 107.89, 231.51 3.82 M57.66 203.82 C118.79 132.38, 180.67 62.7, 231.51 3.82 M61.33 205.69 C125.26 129.96, 190.16 58.07, 237.16 3.43 M61.33 205.69 C125.56 132.51, 187.7 60.06, 237.16 3.43 M65.01 207.56 C124.84 140.7, 186.95 69.72, 242.8 3.04 M65.01 207.56 C120.74 141.21, 177.07 77.03, 242.8 3.04 M68.03 210.19 C125.75 144.32, 182.32 79.81, 248.44 2.64 M68.03 210.19 C116.26 152.81, 166.81 95.78, 248.44 2.64 M71.7 212.06 C111.1 167.07, 150.84 121.91, 254.09 2.25 M71.7 212.06 C130.1 143.92, 190.54 73.91, 254.09 2.25 M74.72 214.68 C121.76 161.78, 169.87 107.27, 259.73 1.85 M74.72 214.68 C140.87 139.36, 205.84 65.07, 259.73 1.85 M78.4 216.55 C139.62 146.89, 202.4 75.44, 265.37 1.46 M78.4 216.55 C141.39 142.73, 205.59 70.83, 265.37 1.46 M82.07 218.42 C153.2 135.02, 223.59 54.89, 270.36 1.82 M82.07 218.42 C142.98 148.04, 202.71 79.64, 270.36 1.82 M86.4 219.53 C152.47 140.77, 222.4 61.74, 276 1.42 M86.4 219.53 C140.61 154.59, 196.07 91.92, 276 1.42 M90.73 220.65 C132.63 170.56, 174.98 120.95, 281.65 1.03 M90.73 220.65 C160.69 139.53, 232.02 57.09, 281.65 1.03 M94.41 222.52 C147.78 162.77, 199.6 100.56, 287.29 0.63 M94.41 222.52 C157.25 151.77, 217.67 81.84, 287.29 0.63 M98.74 223.63 C159.18 150.77, 221.57 78.88, 292.93 0.24 M98.74 223.63 C144.69 171.59, 190.31 118.74, 292.93 0.24 M102.41 225.5 C156.57 161.13, 212.43 96.66, 298.57 -0.16 M102.41 225.5 C170.61 147.21, 237.68 70.12, 298.57 -0.16 M106.74 226.62 C172.43 152.12, 236.8 75.92, 304.22 -0.55 M106.74 226.62 C163.04 162.48, 219.63 95.4, 304.22 -0.55 M110.42 228.49 C162.25 166.45, 216.19 107.39, 309.2 -0.19 M110.42 228.49 C168.67 161.68, 224.05 96.59, 309.2 -0.19 M114.75 229.6 C174.54 163.9, 231.79 98.57, 314.19 0.17 M114.75 229.6 C159.02 178.38, 203.64 126, 314.19 0.17 M119.08 230.72 C188.54 148.95, 261.48 67.41, 318.52 1.28 M119.08 230.72 C168.59 174.92, 217.99 119.19, 318.52 1.28 M122.76 232.59 C199.44 144.48, 275.26 57.01, 323.51 1.64 M122.76 232.59 C166.51 181.1, 210.78 129.01, 323.51 1.64 M127.09 233.7 C201.72 153.06, 273.59 69.23, 328.5 2.01 M127.09 233.7 C193.49 158.82, 258.73 84.25, 328.5 2.01 M130.76 235.57 C203.91 151.7, 278.31 66.24, 333.48 2.37 M130.76 235.57 C198.15 155.76, 266.82 76.71, 333.48 2.37 M135.09 236.69 C199.59 162.13, 263.65 88.23, 338.47 2.73 M135.09 236.69 C177.16 189.59, 218.95 141, 338.47 2.73 M139.42 237.8 C208.53 156.81, 279.38 77.49, 343.46 3.09 M139.42 237.8 C208.32 159, 277.91 79.37, 343.46 3.09 M143.75 238.91 C215.95 157.79, 287.16 76.18, 348.44 3.45 M143.75 238.91 C220.73 152.15, 296.5 65.41, 348.44 3.45 M148.09 240.03 C227.32 151.09, 307.53 60.23, 352.78 4.56 M148.09 240.03 C201.68 175.04, 257.04 112.37, 352.78 4.56 M153.07 240.39 C197.58 186.5, 244.63 133.87, 357.76 4.92 M153.07 240.39 C212.38 174.21, 270.3 107.41, 357.76 4.92 M157.4 241.5 C224.17 164.71, 288.38 89.29, 362.75 5.28 M157.4 241.5 C212.65 178.37, 266.88 115.73, 362.75 5.28 M161.73 242.62 C240.01 152.72, 317.05 62.25, 367.74 5.64 M161.73 242.62 C203.66 194.21, 245.47 144.68, 367.74 5.64 M166.07 243.73 C237.04 164.29, 305.11 84.15, 372.72 6 M166.07 243.73 C239.71 157.55, 314.09 72.59, 372.72 6 M171.05 244.09 C236.38 171.35, 298.59 97.7, 377.71 6.36 M171.05 244.09 C251.14 151.97, 330.39 61.33, 377.71 6.36 M175.38 245.21 C253.97 155.22, 330.9 67.85, 382.04 7.48 M175.38 245.21 C231.75 180.63, 287.44 116.54, 382.04 7.48 M179.71 246.32 C255.27 163.49, 329.16 77.29, 387.03 7.84 M179.71 246.32 C232.95 183.19, 287.83 120.96, 387.03 7.84 M184.7 246.68 C256.05 163.79, 328.8 80.12, 391.36 8.95 M184.7 246.68 C229 196.83, 271.39 148.28, 391.36 8.95 M189.03 247.8 C257.99 168.93, 327.95 87.14, 395.69 10.07 M189.03 247.8 C242.68 186.09, 297.94 121.36, 395.69 10.07 M193.36 248.91 C258.01 171.57, 326.79 96.8, 400.68 10.43 M193.36 248.91 C249.11 183.74, 305.75 119.53, 400.68 10.43 M197.69 250.03 C266.13 174.47, 330.74 98.58, 405.01 11.54 M197.69 250.03 C244.55 196.79, 290.18 144.03, 405.01 11.54 M202.68 250.39 C268.74 175.5, 333.54 101.28, 409.34 12.66 M202.68 250.39 C257.18 188.92, 309.63 128.48, 409.34 12.66 M207.01 251.5 C255.79 191.99, 307.07 136.25, 414.33 13.02 M207.01 251.5 C276.21 171.32, 347.76 89.52, 414.33 13.02 M212 251.86 C278.16 175.95, 344.35 101.32, 418.66 14.13 M212 251.86 C261.42 194.26, 311.29 136.6, 418.66 14.13 M216.99 252.22 C273.16 188.03, 329.84 121.01, 423.64 14.49 M216.99 252.22 C262.69 200.51, 309.17 147.05, 423.64 14.49 M221.97 252.58 C277.46 189.76, 333.64 124.92, 427.98 15.6 M221.97 252.58 C264.76 204.87, 306.75 157.71, 427.98 15.6 M226.96 252.94 C282.95 186.75, 341 119.71, 432.31 16.72 M226.96 252.94 C279.88 190.36, 333.93 127.65, 432.31 16.72 M231.95 253.3 C289.22 186.62, 344.94 121.5, 437.29 17.08 M231.95 253.3 C274.73 206.09, 316.5 157.39, 437.29 17.08 M236.93 253.66 C311.35 168.17, 385.2 80.27, 441.62 18.19 M236.93 253.66 C286.85 196.69, 336.8 138.97, 441.62 18.19 M241.92 254.02 C323.83 161.82, 404.82 69.36, 445.96 19.31 M241.92 254.02 C323.39 162.82, 402.81 69.36, 445.96 19.31 M246.91 254.38 C307.15 186.24, 366.23 118.47, 450.29 20.42 M246.91 254.38 C317.68 173.58, 387.99 93.16, 450.29 20.42 M251.9 254.74 C304.95 194.8, 356.51 135.38, 453.96 22.29 M251.9 254.74 C296.5 202.48, 342.08 149.78, 453.96 22.29 M256.88 255.1 C317.13 187.76, 376.05 118.62, 458.29 23.41 M256.88 255.1 C323.78 178.32, 389.58 103.51, 458.29 23.41 M261.87 255.46 C308.58 202.52, 354.89 149.8, 461.97 25.28 M261.87 255.46 C306.5 204.43, 352.3 151.17, 461.97 25.28 M266.86 255.82 C315.19 200.77, 365.84 144.61, 466.3 26.39 M266.86 255.82 C334.71 177.74, 402.37 100.26, 466.3 26.39 M271.84 256.18 C323.16 195.85, 375.45 133.64, 469.97 28.26 M271.84 256.18 C317.29 203.87, 361.53 150.78, 469.97 28.26 M276.83 256.54 C334.1 189.19, 396.11 120.76, 474.3 29.38 M276.83 256.54 C344.59 177.8, 412.61 101.21, 474.3 29.38 M281.82 256.91 C332.89 198.61, 383.34 142.61, 477.98 31.25 M281.82 256.91 C349.34 178.3, 416.49 100.28, 477.98 31.25 M287.46 256.51 C338.05 198.9, 389.14 138.78, 481.65 33.12 M287.46 256.51 C336.61 198.83, 387.35 139.78, 481.65 33.12 M293.1 256.12 C342.37 198.57, 394.08 138.32, 485.98 34.23 M293.1 256.12 C365.49 169.56, 439.63 84.2, 485.98 34.23 M298.09 256.48 C373.05 171.12, 447.47 82.55, 489.66 36.1 M298.09 256.48 C341.49 207, 384.55 156.35, 489.66 36.1 M303.73 256.08 C363.55 188.48, 421.5 120.96, 493.99 37.22 M303.73 256.08 C349.86 203.23, 395.89 149.5, 493.99 37.22 M309.38 255.69 C350.7 209.2, 391.23 161.87, 497.67 39.09 M309.38 255.69 C377.23 176.46, 446.03 97.51, 497.67 39.09 M314.36 256.05 C384.53 175.19, 451.6 95.36, 502 40.2 M314.36 256.05 C373.57 188.11, 433.14 119.48, 502 40.2 M320.01 255.65 C375.62 189.9, 435.02 121.96, 505.67 42.07 M320.01 255.65 C390.16 177.31, 458.57 97.61, 505.67 42.07 M325.65 255.26 C394.43 175.77, 465.37 92.67, 509.35 43.94 M325.65 255.26 C375.86 196.53, 425.16 140.61, 509.35 43.94 M330.64 255.62 C389.08 189.49, 446.08 121.45, 513.02 45.81 M330.64 255.62 C396.4 181.12, 459.42 106.7, 513.02 45.81 M336.28 255.22 C379.07 205.28, 421.38 156, 516.04 48.43 M336.28 255.22 C387.61 196.68, 439.26 137.74, 516.04 48.43 M341.27 255.58 C404.9 183.56, 468.07 110.49, 519.71 50.3 M341.27 255.58 C412.67 172.97, 484.82 90.43, 519.71 50.3 M346.91 255.19 C383.22 216.3, 418.53 174.84, 523.39 52.17 M346.91 255.19 C386.88 209.2, 425.76 165.5, 523.39 52.17 M352.55 254.79 C415.96 180.69, 480.94 109.88, 526.41 54.8 M352.55 254.79 C420.02 175.47, 488.88 96.35, 526.41 54.8 M357.54 255.15 C406.81 200.29, 454.31 144, 530.08 56.67 M357.54 255.15 C396.07 212.94, 434.93 168.7, 530.08 56.67 M363.84 254 C426.63 180.98, 491.61 108.24, 533.1 59.29 M363.84 254 C396.33 214.5, 430.28 175.19, 533.1 59.29 M370.14 252.86 C412.33 201.68, 455.74 153.79, 536.78 61.16 M370.14 252.86 C424.46 188.85, 480.67 125.42, 536.78 61.16 M376.44 251.71 C420.82 200.98, 464.2 152.41, 540.45 63.03 M376.44 251.71 C424 198.2, 470.67 143.44, 540.45 63.03 M382.74 250.56 C423.41 203.6, 466.61 158.48, 543.47 65.65 M382.74 250.56 C429.83 197.38, 477.43 142.27, 543.47 65.65 M389.04 249.41 C447.71 181.43, 505.48 115.15, 547.15 67.52 M389.04 249.41 C439.04 195.02, 486.66 138.91, 547.15 67.52 M395.33 248.26 C454.7 182.4, 513.25 115.09, 550.16 70.15 M395.33 248.26 C443.84 192.54, 493 135.81, 550.16 70.15 M401.63 247.11 C444.85 195.32, 488.37 145.07, 553.18 72.77 M401.63 247.11 C447.69 195.04, 493.14 142.95, 553.18 72.77 M407.93 245.96 C449.97 199.32, 491.34 152.32, 555.55 76.15 M407.93 245.96 C455.17 191.14, 501.19 135.92, 555.55 76.15 M414.23 244.81 C454.48 196.04, 494.67 151.18, 558.57 78.77 M414.23 244.81 C456.42 194.19, 498.67 146.28, 558.57 78.77 M420.53 243.66 C473.48 185.8, 522.59 125.73, 560.93 82.15 M420.53 243.66 C463.47 192.75, 507.01 142.84, 560.93 82.15 M426.83 242.51 C463.29 203.05, 498.65 158.13, 563.95 84.78 M426.83 242.51 C473.19 191.03, 518.96 138.54, 563.95 84.78 M433.79 240.61 C459.17 207.09, 486.13 176.42, 566.31 88.16 M433.79 240.61 C484.47 183.02, 533.34 125.56, 566.31 88.16 M440.74 238.7 C467.25 205.65, 495.24 175.92, 569.33 90.78 M440.74 238.7 C468.44 207.5, 496.1 174.71, 569.33 90.78 M448.35 236.04 C490.24 188.36, 530.85 140.18, 571.69 94.16 M448.35 236.04 C484.27 194.07, 523.49 149.82, 571.69 94.16 M455.31 234.14 C498.15 186.51, 542.24 132.13, 574.71 96.78 M455.31 234.14 C495.95 185.94, 537.43 138.94, 574.71 96.78 M462.92 231.48 C490.62 197.8, 522.2 166.51, 577.07 100.16 M462.92 231.48 C506.7 183.76, 548.81 134.2, 577.07 100.16 M469.87 229.58 C494.27 202.63, 518.77 177.1, 578.78 104.3 M469.87 229.58 C504.94 187.1, 540.63 146.57, 578.78 104.3 M476.83 227.67 C517.44 179.74, 555.13 135.51, 579.83 109.18 M476.83 227.67 C514.27 186.23, 551.26 144.93, 579.83 109.18 M484.44 225.02 C515.33 190.24, 544.68 154.87, 580.88 114.07 M484.44 225.02 C517.72 186.31, 551.8 146.97, 580.88 114.07 M492.71 221.6 C523.77 185.44, 558.19 147.09, 581.93 118.96 M492.71 221.6 C519.81 190.53, 545.45 161.27, 581.93 118.96 M502.94 215.92 C526.71 188.12, 549.47 163.91, 582.98 123.85 M502.94 215.92 C532.16 180.58, 562.82 145.01, 582.98 123.85 M513.18 210.25 C540.37 180.22, 561.92 153.52, 584.03 128.74 M513.18 210.25 C539.28 181.99, 563.94 153.39, 584.03 128.74 M522.76 205.32 C548.57 177.21, 570.01 150.32, 585.08 133.63 M522.76 205.32 C547.18 176.58, 573.74 147.77, 585.08 133.63 M532.99 199.65 C548.16 183.06, 558.92 168.13, 580.89 144.55 M532.99 199.65 C550.86 179.96, 567.87 161.15, 580.89 144.55 M549.13 187.18 C558.79 174.15, 569.5 162.66, 576.69 155.48 M549.13 187.18 C559.16 175.71, 568.47 165.34, 576.69 155.48" stroke="#96f2d7" stroke-width="0.5" fill="none"></path><path d="M154.89 13.94 C173.76 7.26, 202.3 6.25, 227.14 3.8 C251.97 1.35, 278.64 -1.2, 303.9 -0.75 C329.17 -0.29, 354.92 3.22, 378.72 6.52 C402.52 9.82, 425.53 13.18, 446.7 19.03 C467.87 24.89, 488.58 33.34, 505.71 41.65 C522.85 49.96, 537.66 59.3, 549.51 68.9 C561.36 78.51, 571.01 88.51, 576.81 99.28 C582.62 110.06, 585.18 122.26, 584.32 133.57 C583.46 144.87, 579.34 156.67, 571.66 167.13 C563.98 177.6, 551.85 187.05, 538.23 196.33 C524.61 205.6, 508.32 215.21, 489.93 222.78 C471.54 230.35, 450.04 236.47, 427.87 241.75 C405.7 247.02, 381.52 252.01, 356.91 254.42 C332.3 256.83, 305.41 256.79, 280.21 256.21 C255.01 255.63, 229.65 254.12, 205.72 250.95 C181.78 247.77, 157.93 242.96, 136.6 237.16 C115.27 231.36, 94.81 224.31, 77.74 216.15 C60.67 207.99, 45.85 198.12, 34.19 188.19 C22.52 178.26, 13.52 167.32, 7.75 156.56 C1.97 145.79, -1.29 134.57, -0.45 123.62 C0.38 112.67, 5.12 101.31, 12.75 90.87 C20.38 80.43, 31.96 70.48, 45.32 60.96 C58.68 51.44, 72.32 42, 92.91 33.75 C113.5 25.5, 153.47 15.14, 168.83 11.47 C184.2 7.79, 183.19 9.71, 185.09 11.69 M153.51 15.8 C172.44 9.13, 200.77 5.62, 224.99 3.14 C249.2 0.66, 273.8 0.6, 298.8 0.94 C323.8 1.28, 350.43 2.19, 375 5.17 C399.57 8.15, 424.67 12.81, 446.24 18.82 C467.82 24.83, 487.59 33.32, 504.45 41.22 C521.31 49.12, 535.42 56.67, 547.39 66.24 C559.36 75.82, 570.14 87.79, 576.27 98.67 C582.39 109.55, 584.95 120.4, 584.15 131.52 C583.35 142.65, 578.78 154.85, 571.46 165.43 C564.14 176.01, 553.57 185.54, 540.21 195 C526.85 204.46, 509.56 214.24, 491.29 222.18 C473.01 230.12, 452.45 237.48, 430.56 242.63 C408.67 247.79, 384.48 250.43, 359.95 253.09 C335.43 255.76, 308.42 258.65, 283.41 258.63 C258.41 258.61, 234.09 256.46, 209.9 252.97 C185.72 249.48, 159.73 243.62, 138.3 237.7 C116.87 231.79, 98.45 225.57, 81.32 217.48 C64.19 209.39, 47.7 199.09, 35.52 189.18 C23.34 179.27, 14.21 168.95, 8.25 158.03 C2.29 147.1, -0.92 134.46, -0.23 123.66 C0.46 112.86, 4.9 103.61, 12.39 93.25 C19.87 82.89, 31.43 71.08, 44.68 61.51 C57.93 51.94, 73.95 43.37, 91.88 35.82 C109.81 28.28, 141.54 19.4, 152.27 16.25 C163.01 13.1, 153.83 15.35, 156.29 16.92" stroke="#000000" stroke-width="1" fill="none"></path></g><g transform="translate(244.56257404528742 425.2600427767715) rotate(0 57.421875 16.80000000000001)"><text x="57.421875" y="0" font-family="Cascadia, Segoe UI Emoji" font-size="28px" fill="#000000" text-anchor="middle" style="white-space: pre;" direction="ltr" dominant-baseline="text-before-edge">Backend</text></g><g stroke-linecap="round" transform="translate(94.25785459201688 491.89212671975696) rotate(0 85.20809259813245 43.34284478980152)"><path d="M21.67 0 C60.63 -1.41, 100.87 1.24, 148.74 0 C166.28 -3.49, 171.02 9.59, 170.42 21.67 C169.53 37.23, 172.8 48.66, 170.42 65.01 C167.98 77.28, 166.57 88.18, 148.74 86.69 C118.53 89.22, 84.68 90.4, 21.67 86.69 C3.64 86.59, 0.02 82.03, 0 65.01 C-0.23 48.15, 1.26 36.93, 0 21.67 C2.09 4.73, 9.99 0.73, 21.67 0" stroke="none" stroke-width="0" fill="#96f2d7"></path><path d="M21.67 0 C52.02 -0.57, 83.59 -2.56, 148.74 0 M21.67 0 C52.12 0.12, 83.82 0.63, 148.74 0 M148.74 0 C163.69 1.12, 168.55 5.36, 170.42 21.67 M148.74 0 C162.19 -0.87, 171.06 6.92, 170.42 21.67 M170.42 21.67 C172.64 37.97, 171.66 54.69, 170.42 65.01 M170.42 21.67 C170.43 37.14, 169.58 52.29, 170.42 65.01 M170.42 65.01 C171 78.99, 164.63 85.64, 148.74 86.69 M170.42 65.01 C172.52 81.2, 163.13 85.31, 148.74 86.69 M148.74 86.69 C110.05 85.68, 74.59 86.06, 21.67 86.69 M148.74 86.69 C105.67 85.31, 60.73 86.01, 21.67 86.69 M21.67 86.69 C7.2 84.79, 0.27 79.52, 0 65.01 M21.67 86.69 C6.62 85.27, -1.96 78.07, 0 65.01 M0 65.01 C1.82 54.3, -0.83 42.38, 0 21.67 M0 65.01 C-0.31 55.78, -0.21 48.07, 0 21.67 M0 21.67 C0.35 7.6, 6.43 -0.02, 21.67 0 M0 21.67 C-1.5 6.6, 6.51 1.06, 21.67 0" stroke="#000000" stroke-width="1" fill="none"></path></g><g transform="translate(127.90344719014934 525.6349715095585) rotate(0 51.5625 9.599999999999994)"><text x="51.5625" y="0" font-family="Cascadia, Segoe UI Emoji" font-size="16px" fill="#000000" text-anchor="middle" style="white-space: pre;" direction="ltr" dominant-baseline="text-before-edge">aggregation</text></g><g stroke-linecap="round" transform="translate(366.6282315097469 492.87719137407083) rotate(0 85.20809259813245 43.34284478980152)"><path d="M21.67 0 C52.01 -1.05, 87.03 0.18, 148.74 0 C164.85 -1.92, 171.82 10.08, 170.42 21.67 C170.12 37.83, 168.73 50, 170.42 65.01 C170.31 80.9, 162.1 89.67, 148.74 86.69 C115.83 87.47, 90.41 87.66, 21.67 86.69 C5.16 85.31, 2.1 79.36, 0 65.01 C-0.03 49.81, 0.71 30.63, 0 21.67 C0.15 8.69, 7.49 -1.26, 21.67 0" stroke="none" stroke-width="0" fill="#96f2d7"></path><path d="M21.67 0 C67.05 0.45, 114.26 -0.6, 148.74 0 M21.67 0 C64.96 -0.78, 107.8 -0.43, 148.74 0 M148.74 0 C163.5 -0.65, 169.68 6.95, 170.42 21.67 M148.74 0 C161.1 -0.45, 168.16 5.07, 170.42 21.67 M170.42 21.67 C169.99 36.91, 168.97 50.65, 170.42 65.01 M170.42 21.67 C170.7 37.07, 171.23 51.05, 170.42 65.01 M170.42 65.01 C170.93 78, 163.28 86.28, 148.74 86.69 M170.42 65.01 C171.42 79.29, 164.26 85.46, 148.74 86.69 M148.74 86.69 C106.3 88.96, 63.17 86.27, 21.67 86.69 M148.74 86.69 C111.21 87.94, 73.7 86.57, 21.67 86.69 M21.67 86.69 C6.5 86.24, 1.3 81.31, 0 65.01 M21.67 86.69 C7.98 85.96, 1.24 81.32, 0 65.01 M0 65.01 C0.22 53.23, 1.91 46.27, 0 21.67 M0 65.01 C0 51.63, -0.64 38.73, 0 21.67 M0 21.67 C1 8.91, 8.33 1.05, 21.67 0 M0 21.67 C0.44 6.23, 8.24 0.77, 21.67 0" stroke="#000000" stroke-width="1" fill="none"></path></g><g transform="translate(437.77382410787936 526.6200361638723) rotate(0 14.0625 9.599999999999994)"><text x="14.0625" y="0" font-family="Cascadia, Segoe UI Emoji" font-size="16px" fill="#000000" text-anchor="middle" style="white-space: pre;" direction="ltr" dominant-baseline="text-before-edge">api</text></g><g stroke-linecap="round"><g transform="translate(350.09039389028203 354.54814324646844) rotate(0 -0.1435558612577097 7.29729327514724)"><path d="M-0.12 -0.22 C-0.23 2.21, -0.06 11.7, -0.15 14.16 M0.82 -0.81 C0.6 1.71, -0.45 11.98, -0.52 14.64" stroke="#000000" stroke-width="1" fill="none"></path></g></g><mask></mask><g stroke-linecap="round"><g transform="translate(246.38082373722568 350.48037924661025) rotate(0 0.3734526157408027 11.05579853629817)"><path d="M0.17 0.17 C0.31 3.86, 0.82 19.03, 0.91 22.63 M-0.41 -0.21 C-0.33 3.57, 0.44 18.19, 0.56 21.93" stroke="#000000" stroke-width="1" fill="none"></path></g></g><mask></mask><g mask="url(#mask-7h2w0uYTPRkegjRkX3Vpe)" stroke-linecap="round"><g transform="translate(158.68986573004509 593.3537861140652) rotate(0 39.308821321810115 69.43476655919204)"><path d="M-0.49 -0.3 C12.69 22.73, 66.47 115.91, 79.51 139.18 M1.45 -1.51 C14.52 21.05, 65.9 114.1, 79.03 137.21" stroke="#000000" stroke-width="1" fill="none"></path></g></g><mask id="mask-7h2w0uYTPRkegjRkX3Vpe"><rect x="0" y="0" fill="#fff" width="337.3075083736653" height="832.2233192324493"></rect><rect x="146.4361870518551" y="653.1885526732573" fill="#000" width="103.125" height="19.2" opacity="1"></rect></mask><g transform="translate(146.4361870518551 653.1885526732573) rotate(0 51.7637388534846 8.997999286190577)"><text x="51.5625" y="0" font-family="Cascadia, Segoe UI Emoji" font-size="16px" fill="#000000" text-anchor="middle" style="white-space: pre;" direction="ltr" dominant-baseline="text-before-edge">writes data</text></g><g mask="url(#mask-ycqPYNL47g4mQay38G5PP)" stroke-linecap="round"><g transform="translate(360.2883525089271 731.2382545781356) rotate(0 24.20534035445496 -67.46463725056469)"><path d="M0.73 0.47 C8.98 -21.7, 40.84 -111.7, 48.62 -134.11 M-0.35 -0.33 C7.85 -22.73, 39.43 -113.21, 47.78 -135.8" stroke="#000000" stroke-width="1" fill="none"></path></g></g><mask id="mask-ycqPYNL47g4mQay38G5PP"><rect x="0" y="0" fill="#fff" width="508.69903321783704" height="966.167529079265"></rect><rect x="337.61869286338174" y="654.173617327571" fill="#000" width="93.75" height="19.2" opacity="1"></rect></mask><g transform="translate(337.61869286338197 654.1736173275709) rotate(0 46.80620227157624 9.399245451469938)"><text x="46.875" y="0" font-family="Cascadia, Segoe UI Emoji" font-size="16px" fill="#000000" text-anchor="middle" style="white-space: pre;" direction="ltr" dominant-baseline="text-before-edge">reads data</text></g><g stroke-linecap="round" transform="translate(830.1029818478237 380.1962133776712) rotate(0 235.1049958101505 133.6115823183369)"><path d="M24.86 73.28 C24.86 73.28, 24.86 73.28, 24.86 73.28 M24.86 73.28 C24.86 73.28, 24.86 73.28, 24.86 73.28 M12.79 93.27 C19.88 81.41, 29.63 70.94, 42.97 58.55 M12.79 93.27 C23.41 79.37, 36.03 67.43, 42.97 58.55 M4 109.48 C24.63 85.09, 47.37 59.13, 60.42 44.57 M4 109.48 C17.12 93.46, 31.82 76.59, 60.42 44.57 M3.74 115.87 C22 94.67, 40.74 71.97, 68.68 41.16 M3.74 115.87 C25.73 87.89, 49.44 62.22, 68.68 41.16 M2.82 123.03 C30.11 90.07, 61.9 59.07, 77.61 36.99 M2.82 123.03 C22.67 97.85, 44.74 75.26, 77.61 36.99 M2.56 129.42 C32.18 94.72, 63 59.66, 86.53 32.82 M2.56 129.42 C19.1 108.94, 36.88 90.32, 86.53 32.82 M1.64 136.58 C25.81 109.63, 49.99 82.5, 95.45 28.65 M1.64 136.58 C28.46 104.08, 56.54 72.37, 95.45 28.65 M1.38 142.97 C30.62 107.46, 59.03 74.37, 104.38 24.48 M1.38 142.97 C26.62 112.98, 54.42 82.96, 104.38 24.48 M2.43 147.86 C27.48 121.19, 52.11 89.96, 112.65 21.07 M2.43 147.86 C32.04 115, 61.02 80.3, 112.65 21.07 M4.13 152 C48.36 99.92, 94.62 50.25, 119.6 19.17 M4.13 152 C28.28 124.24, 52.41 96.69, 119.6 19.17 M5.84 156.13 C33.22 121.39, 61.62 90.26, 126.56 17.26 M5.84 156.13 C53.54 101.41, 100.22 47.45, 126.56 17.26 M7.55 160.26 C35.09 129.84, 63.32 99.24, 133.51 15.36 M7.55 160.26 C49.99 112.85, 90.75 63.89, 133.51 15.36 M9.25 164.4 C45.41 127.71, 79.07 88.71, 140.47 13.45 M9.25 164.4 C53.53 113.62, 96.33 62.91, 140.47 13.45 M10.96 168.53 C49.52 122.93, 87.98 79.69, 147.42 11.55 M10.96 168.53 C42.26 131.95, 74.23 95.14, 147.42 11.55 M12.67 172.66 C41.21 139.8, 69.21 106.14, 154.38 9.65 M12.67 172.66 C42.9 137.92, 72.11 104.08, 154.38 9.65 M14.37 176.8 C64.5 117.1, 113.93 60.85, 161.99 6.99 M14.37 176.8 C58.52 126.44, 101.05 76.11, 161.99 6.99 M16.08 180.93 C54.82 135.25, 95.47 92.19, 168.94 5.08 M16.08 180.93 C48.64 145.96, 79.73 108.51, 168.94 5.08 M19.1 183.56 C59.29 136.48, 100.32 88.08, 174.59 4.69 M19.1 183.56 C57.88 137.11, 98.78 90.85, 174.59 4.69 M21.46 186.93 C71.46 130.15, 122.69 74.46, 180.23 4.29 M21.46 186.93 C80.81 120.34, 138.27 52.69, 180.23 4.29 M24.48 189.56 C82.21 121.51, 143.51 55.52, 185.87 3.9 M24.48 189.56 C59.95 149.86, 95.31 110.36, 185.87 3.9 M26.84 192.94 C78.96 130.1, 133.94 69.52, 191.52 3.51 M26.84 192.94 C91.55 117.2, 157.3 41, 191.52 3.51 M29.86 195.56 C85.52 130.42, 144.56 65.29, 197.16 3.11 M29.86 195.56 C67.56 154.7, 104.01 111.75, 197.16 3.11 M32.23 198.94 C94.97 129.73, 154.28 61.97, 202.8 2.72 M32.23 198.94 C76.1 150.97, 119.78 100.53, 202.8 2.72 M35.25 201.56 C80.12 151.81, 124.6 99.55, 208.44 2.32 M35.25 201.56 C87.7 142.67, 138.41 82.89, 208.44 2.32 M37.61 204.94 C101.78 131.85, 166.67 57.22, 214.09 1.93 M37.61 204.94 C102 132.51, 163.69 60.02, 214.09 1.93 M40.63 207.57 C111.39 125.72, 183.21 45.24, 219.73 1.53 M40.63 207.57 C77.94 165.52, 115.76 123.76, 219.73 1.53 M43.65 210.19 C114.98 130.83, 184.9 49.17, 225.37 1.14 M43.65 210.19 C111.92 130.93, 179.11 53.11, 225.37 1.14 M46.01 213.57 C82.97 167.64, 123.72 124.92, 231.02 0.74 M46.01 213.57 C101.09 150.26, 156.06 88.06, 231.02 0.74 M49.68 215.44 C115.35 140.46, 179.84 65.32, 236 1.1 M49.68 215.44 C98.74 157.62, 148.69 100.73, 236 1.1 M53.36 217.31 C121.94 138.14, 191.14 59.47, 240.99 1.46 M53.36 217.31 C101.29 163.77, 147.8 110.56, 240.99 1.46 M56.38 219.93 C111.7 156.27, 164.7 95.09, 245.98 1.82 M56.38 219.93 C95.64 171.55, 137.04 124.09, 245.98 1.82 M60.05 221.8 C116.82 156.62, 173.82 91.79, 250.97 2.18 M60.05 221.8 C121.4 150.35, 183.05 78.16, 250.97 2.18 M63.73 223.67 C120.03 157.81, 179.7 89.38, 255.95 2.54 M63.73 223.67 C117.7 160.84, 173.69 97.16, 255.95 2.54 M67.4 225.54 C112.75 173.41, 159.89 118.56, 260.94 2.9 M67.4 225.54 C132.21 150.49, 197.41 75.48, 260.94 2.9 M70.42 228.17 C113.02 180.53, 152.45 133.22, 266.58 2.51 M70.42 228.17 C149.08 136.87, 226.88 48.44, 266.58 2.51 M74.1 230.04 C116.05 183.12, 156.78 131.45, 271.57 2.87 M74.1 230.04 C124.5 171.96, 174.33 114.53, 271.57 2.87 M77.77 231.91 C136.23 165.07, 193.68 95.35, 276.56 3.23 M77.77 231.91 C142.63 159.83, 205.34 88.16, 276.56 3.23 M81.45 233.78 C129.23 179.25, 178.68 122.42, 281.54 3.59 M81.45 233.78 C121.1 188.07, 161.71 140.41, 281.54 3.59 M85.12 235.65 C156.14 154.21, 226.34 73.04, 286.53 3.95 M85.12 235.65 C141.32 169.28, 199.96 101.5, 286.53 3.95 M88.14 238.27 C154.63 160.44, 219.91 85.01, 291.52 4.31 M88.14 238.27 C144.32 172.83, 202.3 107.25, 291.52 4.31 M91.81 240.14 C142.99 182.53, 194.67 123.76, 296.5 4.67 M91.81 240.14 C133.28 193.29, 174.49 146.06, 296.5 4.67 M96.14 241.25 C150.8 176.8, 205.6 113.86, 300.84 5.78 M96.14 241.25 C164.53 161.37, 233.44 82.57, 300.84 5.78 M99.82 243.12 C174.39 157.59, 247.8 71.44, 305.17 6.9 M99.82 243.12 C144.92 191.23, 189.16 140.42, 305.17 6.9 M104.15 244.24 C156.27 188.31, 205.47 130.93, 309.5 8.01 M104.15 244.24 C181.71 154.02, 258.27 66.69, 309.5 8.01 M108.48 245.35 C177.6 167.55, 245.8 86.56, 313.83 9.13 M108.48 245.35 C176.56 165.1, 245.81 85.04, 313.83 9.13 M112.16 247.22 C162.12 189.09, 212.27 131.1, 318.82 9.49 M112.16 247.22 C188.97 159.05, 264.28 72.08, 318.82 9.49 M116.49 248.34 C183.06 172.81, 250.85 94.85, 323.15 10.6 M116.49 248.34 C168.42 189.27, 219.58 129.95, 323.15 10.6 M120.82 249.45 C167.07 197.56, 213.54 143.93, 327.48 11.72 M120.82 249.45 C172.7 192.55, 223.32 135.12, 327.48 11.72 M124.49 251.32 C199.22 162.85, 275.36 74.02, 331.81 12.83 M124.49 251.32 C181.81 185.05, 239.04 119.51, 331.81 12.83 M128.82 252.44 C201.54 169.22, 273.2 88.17, 336.14 13.95 M128.82 252.44 C189.1 184.49, 249.28 115.33, 336.14 13.95 M133.16 253.55 C214.1 159.93, 296.32 64.15, 340.47 15.06 M133.16 253.55 C178.03 202.24, 222.65 150.52, 340.47 15.06 M136.83 255.42 C212.73 168.26, 287.99 79.59, 344.8 16.18 M136.83 255.42 C210.06 172.91, 282.01 90.93, 344.8 16.18 M141.16 256.54 C189.56 203.98, 235.16 150.12, 349.13 17.29 M141.16 256.54 C205.45 181.34, 270.67 107.05, 349.13 17.29 M144.84 258.41 C189.89 207.55, 234.57 155.79, 353.46 18.41 M144.84 258.41 C192.76 203.88, 240.14 148.92, 353.46 18.41 M149.82 258.77 C227.47 169.38, 303.01 82.92, 357.79 19.52 M149.82 258.77 C207.34 191.96, 266.09 124.38, 357.79 19.52 M154.15 259.88 C201.51 203.34, 251.37 148.9, 361.47 21.39 M154.15 259.88 C214.48 190.42, 274.84 119.01, 361.47 21.39 M159.14 260.24 C206.3 207.02, 250.16 153.67, 365.14 23.26 M159.14 260.24 C221.35 189.42, 282.32 120.19, 365.14 23.26 M163.47 261.36 C233.81 182.81, 302.73 103.76, 368.82 25.13 M163.47 261.36 C219.57 196.77, 275.41 132.41, 368.82 25.13 M168.46 261.72 C226.94 194.45, 283.58 128.68, 372.49 27 M168.46 261.72 C245.66 173.88, 322.6 84.85, 372.49 27 M173.45 262.08 C221.83 206.75, 269.06 152.04, 376.82 28.12 M173.45 262.08 C225.09 203.65, 275.03 145.9, 376.82 28.12 M177.78 263.19 C247.28 184.97, 312.77 106.86, 380.5 29.98 M177.78 263.19 C221.42 211.15, 265.77 159.39, 380.5 29.98 M182.76 263.55 C230.51 209.03, 277.57 154.94, 384.17 31.85 M182.76 263.55 C236.5 203.23, 289.89 141.59, 384.17 31.85 M187.09 264.67 C236.89 208.65, 285.09 151.82, 387.85 33.72 M187.09 264.67 C262.27 178.01, 336.5 90.53, 387.85 33.72 M192.08 265.03 C237.8 210.7, 285.92 156.06, 391.52 35.59 M192.08 265.03 C255.06 191.08, 319.91 118.3, 391.52 35.59 M196.41 266.14 C272.86 176.78, 347.71 89.83, 395.85 36.71 M196.41 266.14 C243.45 209.69, 291.72 154.65, 395.85 36.71 M201.4 266.5 C261.06 196.32, 319.64 128.15, 399.53 38.58 M201.4 266.5 C276.31 178.59, 352.2 90.26, 399.53 38.58 M206.39 266.86 C283.75 178.26, 359.84 88.54, 403.2 40.45 M206.39 266.86 C264.96 200.38, 321.73 134.9, 403.2 40.45 M211.37 267.22 C275.56 191.22, 341.64 117.51, 406.88 42.32 M211.37 267.22 C285.64 182.29, 358.74 99.12, 406.88 42.32 M217.02 266.83 C263.56 217.28, 308.08 165.8, 409.9 44.94 M217.02 266.83 C266.97 209.98, 316.08 154.95, 409.9 44.94 M222.66 266.43 C294.19 184.44, 362.47 103.71, 412.92 47.57 M222.66 266.43 C292.54 185.33, 362.22 105.71, 412.92 47.57 M228.3 266.04 C288.68 194.07, 348.15 125.77, 415.94 50.19 M228.3 266.04 C285.31 201.07, 343.85 134.8, 415.94 50.19 M233.29 266.4 C285.9 204.6, 338.58 145.54, 418.95 52.81 M233.29 266.4 C270.54 222.11, 310.43 177.98, 418.95 52.81 M238.93 266 C277.64 224.03, 314.06 180.69, 421.97 55.44 M238.93 266 C292.46 202.22, 347.7 139.27, 421.97 55.44 M244.58 265.61 C304.79 198.64, 361.14 132.79, 424.99 58.06 M244.58 265.61 C298.29 204.19, 352.03 142.36, 424.99 58.06 M250.22 265.21 C301.05 205.37, 354.6 147.08, 428.67 59.93 M250.22 265.21 C312.15 194.53, 373.82 123.09, 428.67 59.93 M255.21 265.57 C309.7 201.54, 367.05 138, 431.69 62.56 M255.21 265.57 C326.87 185.13, 395.52 105.38, 431.69 62.56 M260.85 265.18 C310.4 211.79, 357.55 156.81, 434.71 65.18 M260.85 265.18 C328.07 187.03, 395.29 109.13, 434.71 65.18 M266.49 264.78 C316.85 207.67, 364.63 152.2, 437.72 67.8 M266.49 264.78 C302.12 223.08, 339.71 180.3, 437.72 67.8 M271.48 265.14 C333.37 191.31, 398.83 118.97, 440.74 70.43 M271.48 265.14 C315.64 213.26, 362.33 161.27, 440.74 70.43 M277.78 263.99 C322.17 213.55, 364.48 164.99, 443.11 73.81 M277.78 263.99 C317.88 219.81, 357.31 174.84, 443.11 73.81 M284.08 262.85 C327.91 213.29, 369.31 164.08, 445.47 77.19 M284.08 262.85 C324.92 213.5, 367.59 164.18, 445.47 77.19 M290.38 261.7 C328.89 216.45, 367.91 174.3, 447.83 80.57 M290.38 261.7 C337.95 207.87, 385.97 152.73, 447.83 80.57 M296.02 261.3 C347.69 202.26, 397.42 143.93, 450.19 83.94 M296.02 261.3 C344.77 204.87, 393.11 150.39, 450.19 83.94 M302.32 260.15 C341.11 215.93, 377.92 176.22, 452.56 87.32 M302.32 260.15 C332.33 223.02, 363 189.41, 452.56 87.32 M308.62 259 C344.56 218.51, 381.88 175.5, 454.92 90.7 M308.62 259 C341.28 222.55, 373.62 185.06, 454.92 90.7 M314.26 258.61 C349.25 219.85, 383.19 179.13, 457.28 94.08 M314.26 258.61 C356.41 209.07, 398.61 161.24, 457.28 94.08 M320.56 257.46 C369.86 201.32, 422.16 143.98, 459.65 97.46 M320.56 257.46 C353.73 217.19, 386.58 178.66, 459.65 97.46 M326.86 256.31 C356.94 223.56, 386.42 188.76, 462.01 100.84 M326.86 256.31 C367.29 209.65, 408.37 163.91, 462.01 100.84 M333.16 255.16 C374.25 206.8, 417.18 156.38, 464.37 104.22 M333.16 255.16 C372.63 208.96, 411.67 163.11, 464.37 104.22 M340.77 252.5 C382.96 203.91, 428.29 152.2, 465.42 109.11 M340.77 252.5 C375.18 212.5, 408.69 172.52, 465.42 109.11 M348.38 249.84 C384.66 211.14, 417.67 171.61, 466.47 114 M348.38 249.84 C395.67 199.35, 439.86 146.33, 466.47 114 M355.99 247.18 C399.32 196.87, 442.31 147.44, 466.87 119.64 M355.99 247.18 C385.82 211.57, 418.88 175.15, 466.87 119.64 M363.6 244.53 C392.72 209.34, 424.01 173.99, 467.92 124.53 M363.6 244.53 C397.5 207.55, 430.32 168.18, 467.92 124.53 M371.87 241.11 C400.93 206.9, 431.16 173.56, 468.97 129.41 M371.87 241.11 C399 207.04, 427.18 174.51, 468.97 129.41 M379.48 238.45 C400.71 213.22, 419.49 190.02, 469.36 135.06 M379.48 238.45 C398.04 217.26, 418.02 195.78, 469.36 135.06 M386.44 236.55 C406.49 213.58, 425.3 194.29, 470.41 139.95 M386.44 236.55 C410.14 209.61, 432.49 183.19, 470.41 139.95 M398.64 228.61 C422.4 199.91, 445.34 173.44, 468.18 148.61 M398.64 228.61 C413.58 210.84, 427.29 194.31, 468.18 148.61 M410.84 220.67 C428.67 203.6, 441.15 182.48, 463.99 159.53 M410.84 220.67 C427.68 202.24, 445.51 182.1, 463.99 159.53 M422.39 213.48 C433.23 199.92, 447.51 182.76, 460.44 169.71 M422.39 213.48 C434.74 199.14, 448.94 182.35, 460.44 169.71" stroke="#96f2d7" stroke-width="0.5" fill="none"></path><path d="M231.71 0.11 C251.69 -2.15, 274.77 1.19, 295.2 4.21 C315.63 7.23, 336.11 12.13, 354.31 18.21 C372.51 24.3, 389.87 31.95, 404.4 40.73 C418.93 49.51, 431.44 60.13, 441.5 70.89 C451.55 81.66, 459.85 93.62, 464.73 105.31 C469.6 117, 471.86 129.16, 470.73 141.03 C469.61 152.89, 464.94 165.24, 457.97 176.52 C451.01 187.8, 440.89 198.8, 428.94 208.72 C416.99 218.64, 402.3 228.27, 386.28 236.03 C370.27 243.79, 351.95 250.49, 332.84 255.28 C313.72 260.06, 292.47 262.78, 271.58 264.73 C250.7 266.68, 228.53 268.13, 207.52 266.98 C186.51 265.82, 165.09 262.46, 145.53 257.8 C125.98 253.14, 106.85 246.45, 90.22 239.01 C73.58 231.58, 58.15 222.96, 45.72 213.19 C33.29 203.42, 23.1 191.79, 15.64 180.41 C8.18 169.03, 2.89 157.02, 0.97 144.9 C-0.96 132.78, 0.1 119.64, 4.09 107.69 C8.08 95.75, 15.42 83.84, 24.91 73.22 C34.41 62.59, 46.86 52.65, 61.08 43.93 C75.31 35.22, 92.35 27.5, 110.25 20.95 C128.15 14.41, 144.77 8.18, 168.48 4.67 C192.2 1.15, 234.88 -0.14, 252.52 -0.16 C270.17 -0.17, 274.51 2.3, 274.37 4.57 M266.09 1.68 C286.18 1.33, 307.12 7.24, 326.39 12.01 C345.66 16.77, 365.23 22.97, 381.73 30.26 C398.22 37.55, 412.97 45.94, 425.34 55.74 C437.71 65.55, 448.47 77.77, 455.94 89.07 C463.4 100.37, 468.32 111.61, 470.15 123.55 C471.97 135.48, 470.97 148.67, 466.89 160.68 C462.82 172.7, 455.54 185.14, 445.71 195.64 C435.87 206.14, 422.57 215.18, 407.89 223.7 C393.22 232.23, 375.63 240.43, 357.67 246.78 C339.72 253.13, 320.38 258.4, 300.16 261.81 C279.94 265.22, 257.55 266.98, 236.35 267.21 C215.15 267.45, 193.29 266.23, 172.96 263.23 C152.63 260.23, 132.63 255.76, 114.37 249.22 C96.12 242.67, 77.77 233.02, 63.44 223.93 C49.11 214.85, 38 204.94, 28.41 194.73 C18.81 184.52, 10.64 174.18, 5.86 162.69 C1.08 151.2, -1.52 137.74, -0.26 125.77 C1 113.8, 6.39 102.52, 13.41 90.89 C20.44 79.26, 29.95 65.95, 41.91 55.99 C53.87 46.04, 68.75 38.55, 85.17 31.16 C101.6 23.78, 121.19 16.52, 140.46 11.7 C159.73 6.89, 179.96 3.88, 200.79 2.27 C221.62 0.67, 254.89 1.77, 265.47 2.08 C276.04 2.39, 264.66 1.94, 264.27 4.13" stroke="#000000" stroke-width="1" fill="none"></path></g><g transform="translate(1007.541765829782 424.33013979364745) rotate(0 57.421875 16.80000000000001)"><text x="57.421875" y="0" font-family="Cascadia, Segoe UI Emoji" font-size="28px" fill="#000000" text-anchor="middle" style="white-space: pre;" direction="ltr" dominant-baseline="text-before-edge">Library</text></g><g stroke-linecap="round" transform="translate(884.9301053333334 484.59694518987675) rotate(0 85.20809259813245 43.34284478980152)"><path d="M21.67 0 C49.82 1.94, 82.67 -2.29, 148.74 0 C163.37 -0.85, 167.45 10.46, 170.42 21.67 C167.97 39.75, 169.75 53.62, 170.42 65.01 C168.94 78.33, 161.68 86.46, 148.74 86.69 C113.07 90.42, 79.04 86.76, 21.67 86.69 C6.43 86.79, 1.89 79.18, 0 65.01 C-1.69 54.62, 1.37 43.35, 0 21.67 C-3.33 9.07, 6.08 2.8, 21.67 0" stroke="none" stroke-width="0" fill="#96f2d7"></path><path d="M21.67 0 C48.84 -0.44, 71.25 1.21, 148.74 0 M21.67 0 C51.52 0.82, 80.52 1.06, 148.74 0 M148.74 0 C161.34 1.83, 172.37 8.07, 170.42 21.67 M148.74 0 C164.09 -1.93, 172.54 5.46, 170.42 21.67 M170.42 21.67 C171.19 37.4, 168.34 51.69, 170.42 65.01 M170.42 21.67 C170.65 32.39, 170.99 41.14, 170.42 65.01 M170.42 65.01 C170.92 80.19, 164.15 88.17, 148.74 86.69 M170.42 65.01 C168.69 81.24, 164.45 86.43, 148.74 86.69 M148.74 86.69 C101.73 83.7, 54.22 85.23, 21.67 86.69 M148.74 86.69 C117.44 87.31, 83.82 87.69, 21.67 86.69 M21.67 86.69 C7.04 86, 1.28 79.81, 0 65.01 M21.67 86.69 C8.33 84.67, 1.11 78.54, 0 65.01 M0 65.01 C-0.4 52.2, 0.3 38.07, 0 21.67 M0 65.01 C0.3 56.17, 0.01 47.32, 0 21.67 M0 21.67 C0.33 7.97, 7.89 -1, 21.67 0 M0 21.67 C-1.63 6.39, 6.83 -0.32, 21.67 0" stroke="#000000" stroke-width="1" fill="none"></path></g><g transform="translate(932.6381979314656 518.3397899796782) rotate(0 37.5 9.599999999999994)"><text x="37.5" y="0" font-family="Cascadia, Segoe UI Emoji" font-size="16px" fill="#000000" text-anchor="middle" style="white-space: pre;" direction="ltr" dominant-baseline="text-before-edge">fetchers</text></g><g stroke-linecap="round" transform="translate(1090.4863858230815 483.31221843681595) rotate(0 85.20809259813245 43.34284478980152)"><path d="M21.67 0 C60.58 -0.12, 108.79 3.14, 148.74 0 C162.68 2.86, 168.54 5.24, 170.42 21.67 C170.9 31.66, 172.15 45.53, 170.42 65.01 C169.86 81.59, 164.4 83.09, 148.74 86.69 C111.8 88.61, 79.37 91.03, 21.67 86.69 C4.17 84.59, 1.37 81.38, 0 65.01 C-2.84 49.94, -1.65 35.15, 0 21.67 C2.23 5.84, 6.61 0.17, 21.67 0" stroke="none" stroke-width="0" fill="#96f2d7"></path><path d="M21.67 0 C60.2 1.48, 95.84 -1.15, 148.74 0 M21.67 0 C62.75 0.24, 102.46 1.69, 148.74 0 M148.74 0 C162.09 0.03, 169.41 5.56, 170.42 21.67 M148.74 0 C165 -1.23, 171.52 5.02, 170.42 21.67 M170.42 21.67 C171.74 34.63, 169.84 52.43, 170.42 65.01 M170.42 21.67 C170.73 32.06, 170.91 43.82, 170.42 65.01 M170.42 65.01 C171.71 79.91, 161.2 88.57, 148.74 86.69 M170.42 65.01 C170.17 78.27, 163.88 88.73, 148.74 86.69 M148.74 86.69 C110.01 87.46, 73.49 87.41, 21.67 86.69 M148.74 86.69 C116.86 86.9, 82.7 86.64, 21.67 86.69 M21.67 86.69 C7.24 87.07, 1.7 80.62, 0 65.01 M21.67 86.69 C9.25 84.43, -0.97 78.95, 0 65.01 M0 65.01 C1.54 54.73, -0.72 47.28, 0 21.67 M0 65.01 C-0.08 54.02, 0.07 42.85, 0 21.67 M0 21.67 C-1.19 7.28, 6.45 0.9, 21.67 0 M0 21.67 C1.33 7.57, 9.44 2.13, 21.67 0" stroke="#000000" stroke-width="1" fill="none"></path></g><g transform="translate(1142.8819784212137 517.0550632266174) rotate(0 32.8125 9.599999999999994)"><text x="32.8125" y="0" font-family="Cascadia, Segoe UI Emoji" font-size="16px" fill="#000000" text-anchor="middle" style="white-space: pre;" direction="ltr" dominant-baseline="text-before-edge">actions</text></g><g mask="url(#mask-Aj6q5o41TI0uSYIwN2OwA)" stroke-linecap="round"><g transform="translate(875.0684182049563 528.5788847729787) rotate(0 -162.90887138005996 0.7874564213050803)"><path d="M-0.01 0.14 C-54.03 0.5, -270.51 1.45, -324.62 1.58 M-1.48 -0.84 C-55.51 -0.21, -271.04 2.67, -324.94 3.12" stroke="#000000" stroke-width="1" fill="none"></path></g></g><mask id="mask-Aj6q5o41TI0uSYIwN2OwA"><rect x="0" y="0" fill="#fff" width="1300.8861609650762" height="630.1537976155888"></rect><rect x="637.1595468248961" y="510.1663411942837" fill="#000" width="150" height="38.4" opacity="1"></rect></mask><g transform="translate(637.1595468248961 510.1663411942838) rotate(0 75.42990843668144 19.55300775186157)"><text x="75" y="0" font-family="Cascadia, Segoe UI Emoji" font-size="16px" fill="#000000" text-anchor="middle" style="white-space: pre;" direction="ltr" dominant-baseline="text-before-edge">fetches data</text><text x="75" y="19.2" font-family="Cascadia, Segoe UI Emoji" font-size="16px" fill="#000000" text-anchor="middle" style="white-space: pre;" direction="ltr" dominant-baseline="text-before-edge">from backend API</text></g><g mask="url(#mask-5bjYb8S4KpOlZ_kznUwm4)" stroke-linecap="round"><g transform="translate(1160.3530583097563 474.04111374967994) rotate(0 -377.4946987377135 -222.03237374574218)"><path d="M-0.65 0.64 C-30.89 -73.04, -56.08 -378.32, -181.77 -442.94 C-307.47 -507.56, -659.3 -396.5, -754.82 -387.08 M1.21 -0.08 C-29.2 -73.99, -56.82 -380.2, -182.94 -444.47 C-309.06 -508.73, -660.22 -394.98, -755.5 -385.65" stroke="#000000" stroke-width="1" fill="none"></path></g></g><mask id="mask-5bjYb8S4KpOlZ_kznUwm4"><rect x="0" y="0" fill="#fff" width="2015.3424557851833" height="1018.1058612411643"></rect><rect x="885.2498913846398" y="10.776366258195594" fill="#000" width="187.5" height="38.4" opacity="1"></rect></mask><g transform="translate(885.2498913846398 10.776366258195576) rotate(0 -102.0425832029265 231.5619919941941)"><text x="93.75" y="0" font-family="Cascadia, Segoe UI Emoji" font-size="16px" fill="#000000" text-anchor="middle" style="white-space: pre;" direction="ltr" dominant-baseline="text-before-edge">submits an action TX</text><text x="93.75" y="19.2" font-family="Cascadia, Segoe UI Emoji" font-size="16px" fill="#000000" text-anchor="middle" style="white-space: pre;" direction="ltr" dominant-baseline="text-before-edge">via a browser wallet</text></g><g mask="url(#mask-anHLQxBNKZgrrs928_BCC)" stroke-linecap="round"><g transform="translate(813.0858297599589 326.16852992889324) rotate(0 50.80040457758537 68.5569888096785)"><path d="M-0.64 -0.83 C3.79 10.67, 9.39 45.34, 26.28 68.25 C43.17 91.17, 88.25 125.32, 100.71 136.66 M1.23 1.35 C5.54 13.04, 8.5 46.56, 25.49 69.29 C42.47 92.02, 90.55 126.46, 103.14 137.74" stroke="#000000" stroke-width="1" fill="none"></path></g></g><mask id="mask-anHLQxBNKZgrrs928_BCC"><rect x="0" y="0" fill="#fff" width="1014.6866389151296" height="563.2825075482502"></rect><rect x="759.3779582032143" y="366.56795491741974" fill="#000" width="159.375" height="57.599999999999994" opacity="1"></rect></mask><g transform="translate(759.3779582032143 366.5679549174197) rotate(0 104.95831500340819 28.053813098375826)"><text x="79.6875" y="0" font-family="Cascadia, Segoe UI Emoji" font-size="16px" fill="#000000" text-anchor="middle" style="white-space: pre;" direction="ltr" dominant-baseline="text-before-edge">fetches proposal </text><text x="79.6875" y="19.2" font-family="Cascadia, Segoe UI Emoji" font-size="16px" fill="#000000" text-anchor="middle" style="white-space: pre;" direction="ltr" dominant-baseline="text-before-edge">data using the </text><text x="79.6875" y="38.4" font-family="Cascadia, Segoe UI Emoji" font-size="16px" fill="#000000" text-anchor="middle" style="white-space: pre;" direction="ltr" dominant-baseline="text-before-edge">library</text></g><g mask="url(#mask-icuUHxVVAPM0ZHeK3QMGS)" stroke-linecap="round"><g transform="translate(781.1643990292441 164.98013646791526) rotate(0 -187.39065612218224 -34.448166303255185)"><path d="M1.13 0.17 C-8.47 -11.47, 6.14 -60.17, -56.6 -69.61 C-119.34 -79.06, -322.14 -58.7, -375.31 -56.52 M0.26 -0.78 C-9.62 -12.3, 4.98 -59.41, -57.78 -68.45 C-120.55 -77.5, -323.35 -57.24, -376.35 -55.04" stroke="#000000" stroke-width="1" fill="none"></path></g></g><mask id="mask-icuUHxVVAPM0ZHeK3QMGS"><rect x="0" y="0" fill="#fff" width="1255.9457112736086" height="333.87646907442564"></rect><rect x="598.460764987633" y="67.28380386140489" fill="#000" width="253.125" height="57.599999999999994" opacity="1"></rect></mask><g transform="translate(598.460764987633 67.28380386140489) rotate(0 -4.905390818273418 61.73309627902275)"><text x="126.5625" y="0" font-family="Cascadia, Segoe UI Emoji" font-size="16px" fill="#000000" text-anchor="middle" style="white-space: pre;" direction="ltr" dominant-baseline="text-before-edge">submits a proposal managing</text><text x="126.5625" y="19.2" font-family="Cascadia, Segoe UI Emoji" font-size="16px" fill="#000000" text-anchor="middle" style="white-space: pre;" direction="ltr" dominant-baseline="text-before-edge">TX via CAB to locally </text><text x="126.5625" y="38.4" font-family="Cascadia, Segoe UI Emoji" font-size="16px" fill="#000000" text-anchor="middle" style="white-space: pre;" direction="ltr" dominant-baseline="text-before-edge">running cardano-node</text></g><g mask="url(#mask-GP_i-KZk5oRgtancxhjjF)" stroke-linecap="round"><g transform="translate(1644.832286920801 511.2002561933428) rotate(0 -165.44888418017695 0.9030104833235555)"><path d="M1.11 0.29 C-53.94 0.47, -274.94 1.61, -330.45 1.9 M0.24 -0.6 C-54.92 -0.29, -276.19 2.8, -331.16 3.48" stroke="#000000" stroke-width="1" fill="none"></path></g></g><mask id="mask-GP_i-KZk5oRgtancxhjjF"><rect x="0" y="0" fill="#fff" width="2075.730055281155" height="613.0062771599898"></rect><rect x="1366.8834027406233" y="483.30326667666634" fill="#000" width="225" height="57.599999999999994" opacity="1"></rect></mask><g transform="translate(1366.8834027406238 483.3032666766664) rotate(0 112.92409984075948 29.337512103589262)"><text x="112.5" y="0" font-family="Cascadia, Segoe UI Emoji" font-size="16px" fill="#000000" text-anchor="middle" style="white-space: pre;" direction="ltr" dominant-baseline="text-before-edge">delegates data fetching </text><text x="112.5" y="19.2" font-family="Cascadia, Segoe UI Emoji" font-size="16px" fill="#000000" text-anchor="middle" style="white-space: pre;" direction="ltr" dominant-baseline="text-before-edge">and onchain tx creation </text><text x="112.5" y="38.4" font-family="Cascadia, Segoe UI Emoji" font-size="16px" fill="#000000" text-anchor="middle" style="white-space: pre;" direction="ltr" dominant-baseline="text-before-edge">to the library</text></g><g stroke-linecap="round" transform="translate(1662.8584873394411 437.79932580501185) rotate(0 122.32630218260465 71.85984567677667)"><path d="M15.05 38.26 C15.05 38.26, 15.05 38.26, 15.05 38.26 M15.05 38.26 C15.05 38.26, 15.05 38.26, 15.05 38.26 M4.95 55.98 C13.16 44.56, 21.08 33.59, 30.54 26.55 M4.95 55.98 C12.77 46.66, 19.84 38.89, 30.54 26.55 M1.41 66.15 C17.65 50.91, 30.32 33.13, 44.71 16.34 M1.41 66.15 C13.73 52.61, 25.47 38.46, 44.71 16.34 M1.8 71.79 C11.9 59.15, 24.87 47.89, 51.66 14.44 M1.8 71.79 C18.82 52.68, 33.48 33.76, 51.66 14.44 M2.2 77.44 C25.56 51.87, 45.49 25.53, 59.28 11.78 M2.2 77.44 C14.29 62.97, 26.93 46.97, 59.28 11.78 M3.25 82.32 C28.7 52.92, 55.75 25.63, 66.89 9.12 M3.25 82.32 C23.09 58.89, 43.3 36.74, 66.89 9.12 M3.64 87.97 C25.06 64.48, 45.77 39.82, 73.84 7.21 M3.64 87.97 C24.71 62.68, 48.28 37.02, 73.84 7.21 M4.69 92.86 C33.94 59.98, 61.1 30.25, 81.45 4.56 M4.69 92.86 C27.79 67.63, 49.1 42.72, 81.45 4.56 M7.06 96.24 C24.71 74.29, 40 55.02, 88.41 2.65 M7.06 96.24 C39.25 61.5, 68.8 25.3, 88.41 2.65 M10.08 98.86 C41.45 64.79, 70.48 31.2, 94.05 2.26 M10.08 98.86 C28.64 75.78, 49.6 52.62, 94.05 2.26 M13.09 101.48 C42.91 68.75, 70.34 34.5, 99.69 1.86 M13.09 101.48 C41.1 68.95, 70.85 34.59, 99.69 1.86 M15.46 104.86 C34.81 82.95, 53.44 58.47, 105.34 1.47 M15.46 104.86 C46.32 69.61, 76.79 33.77, 105.34 1.47 M18.48 107.49 C53.8 69.1, 88.28 27.94, 110.32 1.83 M18.48 107.49 C48.57 71.12, 79 35.19, 110.32 1.83 M21.49 110.11 C55.34 70.76, 90 30.32, 115.97 1.43 M21.49 110.11 C51.52 75.27, 81.65 40.47, 115.97 1.43 M24.51 112.74 C55.99 75.44, 88.12 38.48, 121.61 1.04 M24.51 112.74 C44.53 90.4, 65.87 66.93, 121.61 1.04 M26.88 116.11 C49.83 89.5, 76.32 61.16, 127.25 0.64 M26.88 116.11 C48.32 90.22, 70.38 63.81, 127.25 0.64 M30.55 117.98 C60.44 85.5, 91.69 50.3, 132.9 0.25 M30.55 117.98 C53.37 88.91, 77.96 62.57, 132.9 0.25 M34.23 119.85 C57.54 92.54, 81.25 67.59, 137.88 0.61 M34.23 119.85 C69.02 81.75, 100.88 44.78, 137.88 0.61 M37.24 122.48 C61.06 93.56, 87.27 66.25, 142.21 1.72 M37.24 122.48 C73.23 78.36, 112.81 35.85, 142.21 1.72 M40.92 124.35 C77.38 85.23, 111.75 45.13, 147.2 2.08 M40.92 124.35 C84.2 76.62, 126.02 27.56, 147.2 2.08 M44.59 126.22 C69.6 98, 93.87 70.73, 151.53 3.2 M44.59 126.22 C86.52 78.16, 127.68 31.16, 151.53 3.2 M48.27 128.09 C84.99 84.97, 121.43 43.09, 155.86 4.31 M48.27 128.09 C91.99 78.22, 133.24 29.75, 155.86 4.31 M51.94 129.96 C76.48 99.59, 103.23 70.24, 160.85 4.67 M51.94 129.96 C91.66 85.2, 131.32 38.86, 160.85 4.67 M55.62 131.83 C80.82 99.41, 110.86 67.75, 165.18 5.79 M55.62 131.83 C82.11 101.1, 109.06 69.2, 165.18 5.79 M59.29 133.69 C95.93 91.12, 130.51 50.31, 170.17 6.15 M59.29 133.69 C85.12 105.88, 110.27 77.43, 170.17 6.15 M62.97 135.56 C87.16 108.45, 108.76 80.37, 174.5 7.26 M62.97 135.56 C88.39 107.74, 113.44 78.56, 174.5 7.26 M67.3 136.68 C89.88 110.84, 113.86 83.78, 179.49 7.62 M67.3 136.68 C106.28 92.41, 143.97 49.45, 179.49 7.62 M72.29 137.04 C93.52 109.24, 118.29 83.62, 183.16 9.49 M72.29 137.04 C111.83 91.38, 152.75 45.91, 183.16 9.49 M76.62 138.15 C112.87 96.5, 150.39 53.23, 186.84 11.36 M76.62 138.15 C116.12 93.04, 155.65 47.82, 186.84 11.36 M81.61 138.51 C123.76 91.84, 164.41 46.41, 190.51 13.23 M81.61 138.51 C106.99 106.28, 133.41 77.14, 190.51 13.23 M85.94 139.63 C108.05 114.98, 132.4 86.7, 194.19 15.1 M85.94 139.63 C124.72 92.77, 165.54 48.35, 194.19 15.1 M90.92 139.99 C119.63 110.97, 149.4 76.88, 197.86 16.97 M90.92 139.99 C115.81 110.79, 142.55 82.21, 197.86 16.97 M95.25 141.1 C124.12 106.97, 153.1 76.06, 201.54 18.84 M95.25 141.1 C130.33 100.8, 164.58 60.97, 201.54 18.84 M100.24 141.46 C123.68 115.24, 144.68 91.75, 205.21 20.71 M100.24 141.46 C125.39 112.59, 150.12 84.18, 205.21 20.71 M104.57 142.58 C123.7 120.34, 148.39 95.18, 208.89 22.58 M104.57 142.58 C130.94 111.85, 158.98 80.62, 208.89 22.58 M109.56 142.94 C143.2 104.31, 176.21 68.67, 212.56 24.45 M109.56 142.94 C142.93 102.88, 178.26 64.96, 212.56 24.45 M115.2 142.54 C139.04 115.03, 158.02 91.96, 216.24 26.32 M115.2 142.54 C139.84 115.58, 162.88 87.71, 216.24 26.32 M120.19 142.9 C150.29 106.15, 185.74 68.98, 219.25 28.94 M120.19 142.9 C153.44 103.83, 188.4 65.81, 219.25 28.94 M125.83 142.51 C163.71 98.95, 200.18 59.03, 222.27 31.57 M125.83 142.51 C164.11 97.99, 202.25 54.18, 222.27 31.57 M131.48 142.12 C161.35 106.48, 194.9 70.06, 224.64 34.95 M131.48 142.12 C157.55 113.74, 180.82 86.12, 224.64 34.95 M136.46 142.48 C161.99 114.04, 189.26 80.92, 227.65 37.57 M136.46 142.48 C167.16 106.7, 196.11 72.75, 227.65 37.57 M142.11 142.08 C161.22 116.53, 184.59 94.77, 230.67 40.19 M142.11 142.08 C163.51 118.63, 186.09 93.99, 230.67 40.19 M147.75 141.69 C164.83 121.29, 180.44 100.82, 233.04 43.57 M147.75 141.69 C172.41 110.93, 197.4 82.06, 233.04 43.57 M153.39 141.29 C178.97 108.02, 206.74 78.77, 236.06 46.2 M153.39 141.29 C185.37 104.15, 219.34 67.64, 236.06 46.2 M158.38 141.65 C178.21 117.5, 199.75 92.04, 238.42 49.58 M158.38 141.65 C174.36 121.92, 190.77 102.98, 238.42 49.58 M165.33 139.75 C186.18 114.84, 205.18 94.38, 240.78 52.96 M165.33 139.75 C192.82 106.24, 222.33 73.96, 240.78 52.96 M172.95 137.09 C196.73 110.83, 218.61 82.86, 241.18 58.6 M172.95 137.09 C188.98 118.12, 206.41 100.7, 241.18 58.6 M179.9 135.18 C202.94 109.55, 221.79 83.95, 242.23 63.49 M179.9 135.18 C193.21 119.76, 208.53 103.8, 242.23 63.49 M187.51 132.53 C206.76 110.35, 227.66 85.04, 242.62 69.13 M187.51 132.53 C199.42 117.86, 212.67 104.91, 242.62 69.13 M194.47 130.62 C205.24 120.56, 212.81 109.07, 243.67 74.02 M194.47 130.62 C210.4 112.8, 227.16 94.63, 243.67 74.02 M204.05 125.7 C219.49 109.12, 234.24 93.52, 244.07 79.66 M204.05 125.7 C213.52 113.96, 223.16 102.55, 244.07 79.66 M220.19 113.23 C225.65 109.3, 231.25 102.54, 235.28 95.87 M220.19 113.23 C224.39 110.17, 226.85 106, 235.28 95.87" stroke="#96f2d7" stroke-width="0.5" fill="none"></path><path d="M134.95 -0.01 C149.79 -0.39, 165.96 3.3, 179.72 7.74 C193.47 12.18, 207.43 19.39, 217.48 26.62 C227.52 33.86, 235.6 42.37, 240 51.15 C244.4 59.93, 245.67 70.17, 243.88 79.3 C242.08 88.44, 236.55 97.79, 229.24 105.95 C221.92 114.12, 211.91 122.41, 200 128.3 C188.1 134.2, 172.9 138.86, 157.79 141.32 C142.68 143.78, 125.02 143.98, 109.36 143.06 C93.7 142.13, 77.42 140.14, 63.82 135.76 C50.22 131.37, 37.68 123.87, 27.76 116.75 C17.84 109.63, 8.85 101.87, 4.32 93.03 C-0.21 84.18, -1.24 72.83, 0.57 63.69 C2.37 54.54, 7.85 46.04, 15.16 38.14 C22.47 30.24, 32.47 22.19, 44.42 16.29 C56.37 10.39, 71.07 5.2, 86.87 2.72 C102.66 0.23, 129.64 1.46, 139.18 1.37 C148.71 1.28, 144.1 1.26, 144.06 2.18 M151.99 1.54 C166.53 2.22, 180.52 7.11, 192.97 12.79 C205.41 18.48, 218.38 27.68, 226.65 35.65 C234.93 43.61, 240.39 52.01, 242.62 60.57 C244.85 69.13, 243.76 77.9, 240.04 87.01 C236.32 96.12, 229.44 107.69, 220.28 115.25 C211.12 122.81, 198.41 127.72, 185.09 132.36 C171.77 137, 155.61 141.72, 140.34 143.08 C125.07 144.43, 108.42 142.58, 93.47 140.5 C78.51 138.42, 63.39 135.94, 50.6 130.62 C37.81 125.3, 24.85 116.57, 16.74 108.58 C8.62 100.58, 4.08 91.4, 1.9 82.65 C-0.28 73.9, 0.16 64.9, 3.65 56.09 C7.15 47.28, 13.65 37.32, 22.89 29.77 C32.14 22.23, 45.75 15.74, 59.12 10.84 C72.5 5.94, 87.82 1.8, 103.15 0.37 C118.48 -1.06, 143.18 1.66, 151.1 2.26 C159.03 2.86, 151.27 2.84, 150.7 3.96" stroke="#000000" stroke-width="1" fill="none"></path></g><g transform="translate(1719.5620317312514 493.0465873087209) rotate(0 65.625 16.80000000000001)"><text x="65.625" y="0" font-family="Cascadia, Segoe UI Emoji" font-size="28px" fill="#000000" text-anchor="middle" style="white-space: pre;" direction="ltr" dominant-baseline="text-before-edge">Frontend</text></g><g stroke-linecap="round" transform="translate(692.0763591945097 173.36570782579196) rotate(0 122.32630218260465 71.85984567677667)"><path d="M17.05 36.03 C17.05 36.03, 17.05 36.03, 17.05 36.03 M17.05 36.03 C17.05 36.03, 17.05 36.03, 17.05 36.03 M3.67 57.52 C13.62 47.32, 23.37 37.62, 29.91 27.33 M3.67 57.52 C10.98 49.12, 18.29 39.72, 29.91 27.33 M3.41 63.92 C16.48 49.65, 25.73 38.52, 42.77 18.63 M3.41 63.92 C15.18 49.39, 27.23 36.76, 42.77 18.63 M3.81 69.56 C21.19 51.43, 35.7 35, 50.39 15.97 M3.81 69.56 C14.63 57.42, 25.15 45.59, 50.39 15.97 M4.2 75.2 C17.32 59.8, 32.47 43, 57.34 14.07 M4.2 75.2 C24.02 53.07, 41.04 31.49, 57.34 14.07 M4.59 80.84 C25.86 55.8, 48.37 33.41, 64.3 12.17 M4.59 80.84 C19.05 63.88, 31.7 49.02, 64.3 12.17 M5.65 85.73 C22.94 64.34, 45.78 44.48, 71.25 10.26 M5.65 85.73 C25.36 63.04, 44.11 42.65, 71.25 10.26 M5.38 92.13 C21.58 73.33, 36.93 54.91, 78.21 8.36 M5.38 92.13 C26.68 68.81, 47.05 44.5, 78.21 8.36 M8.4 94.76 C34.72 69.3, 55.93 41.72, 85.16 6.45 M8.4 94.76 C29.12 71.08, 49.7 46.95, 85.16 6.45 M10.77 98.13 C30.53 72.5, 54.02 52.36, 92.77 3.8 M10.77 98.13 C38.37 66.36, 65.6 36.4, 92.77 3.8 M13.78 100.76 C35.83 73.84, 59.89 46.37, 98.42 3.4 M13.78 100.76 C39.47 70.45, 64.36 42.08, 98.42 3.4 M16.15 104.14 C50.93 69.34, 79.41 29.82, 104.06 3.01 M16.15 104.14 C45.02 72.81, 73.25 40.03, 104.06 3.01 M18.51 107.52 C44.57 73.3, 73.67 44.31, 109.05 3.37 M18.51 107.52 C46.11 74.28, 74.42 42.7, 109.05 3.37 M21.53 110.14 C54.56 70.66, 89 29.93, 114.69 2.97 M21.53 110.14 C56.52 69.34, 91.47 28.35, 114.69 2.97 M23.89 113.52 C45.67 85.83, 69.24 61.77, 120.33 2.58 M23.89 113.52 C53.43 81.25, 82.6 46.28, 120.33 2.58 M26.91 116.14 C59.84 76.01, 96.58 37.6, 125.98 2.18 M26.91 116.14 C52.48 87.39, 76.8 56.91, 125.98 2.18 M30.59 118.01 C59.42 82.04, 88.4 50.33, 130.96 2.54 M30.59 118.01 C68.02 74.62, 107.05 32.42, 130.96 2.54 M34.26 119.88 C77.63 73.38, 116.31 25.4, 136.61 2.15 M34.26 119.88 C61.48 89.02, 85.98 58.47, 136.61 2.15 M37.93 121.75 C64.71 90.12, 88.14 60.75, 141.59 2.51 M37.93 121.75 C68.31 84.01, 101.07 48.24, 141.59 2.51 M41.61 123.62 C74.93 84.49, 107.95 47.01, 145.92 3.62 M41.61 123.62 C72.47 88.05, 102.29 52.96, 145.92 3.62 M45.28 125.49 C72.09 94.9, 97.91 62.44, 150.91 3.98 M45.28 125.49 C87.53 75.86, 128.7 28.37, 150.91 3.98 M48.96 127.36 C83.16 86.24, 120.63 43.33, 155.24 5.1 M48.96 127.36 C76.53 95.94, 103.73 65.69, 155.24 5.1 M52.63 129.23 C92.82 82.04, 135.09 30.83, 159.57 6.21 M52.63 129.23 C74.74 103.27, 97.53 79.43, 159.57 6.21 M56.31 131.1 C96.91 84.39, 137 39.1, 163.9 7.33 M56.31 131.1 C83.75 100.62, 109.69 71.16, 163.9 7.33 M59.98 132.97 C96.3 92.25, 134.11 48.54, 168.89 7.69 M59.98 132.97 C100.97 84.97, 143.98 37.33, 168.89 7.69 M63 135.59 C103.57 88.9, 145.23 41.51, 173.22 8.8 M63 135.59 C102.4 91.5, 139 48.01, 173.22 8.8 M67.33 136.71 C98.61 103.23, 128.69 69.78, 177.55 9.92 M67.33 136.71 C101.19 100.67, 134.43 62.18, 177.55 9.92 M71.66 137.82 C111.15 91.05, 152.29 44.3, 181.88 11.03 M71.66 137.82 C96.59 111.28, 118.73 82.85, 181.88 11.03 M76.65 138.18 C100.44 113.98, 121.98 89.03, 186.21 12.15 M76.65 138.18 C119.24 89.49, 160.87 43.05, 186.21 12.15 M80.98 139.3 C106.58 111.57, 132.86 79.87, 189.89 14.02 M80.98 139.3 C115.74 98.13, 150.48 59.2, 189.89 14.02 M85.31 140.41 C110.5 108.56, 137.31 78.94, 194.22 15.13 M85.31 140.41 C126.2 95.09, 165.24 50.31, 194.22 15.13 M89.64 141.53 C122.86 102.55, 155.92 64.15, 197.89 17 M89.64 141.53 C123.28 101.49, 158.14 60.99, 197.89 17 M93.98 142.64 C124.53 102.98, 159.79 65.42, 201.57 18.87 M93.98 142.64 C121.74 109.63, 150.28 75.93, 201.57 18.87 M98.31 143.76 C141.3 95.04, 180.51 51.34, 205.24 20.74 M98.31 143.76 C124.66 113.24, 152.78 83.01, 205.24 20.74 M102.64 144.87 C125.37 115.17, 152.06 86.47, 208.92 22.61 M102.64 144.87 C125.57 119.98, 149.87 91.94, 208.92 22.61 M106.97 145.99 C140.96 109.55, 173.15 70.28, 212.59 24.48 M106.97 145.99 C142.72 102.75, 180.49 58.88, 212.59 24.48 M112.61 145.59 C134.78 119.97, 159.74 91.17, 216.27 26.35 M112.61 145.59 C133.29 120.65, 156.2 95.54, 216.27 26.35 M118.25 145.2 C142.15 119.94, 166.56 90.05, 219.94 28.22 M118.25 145.2 C143.98 115.58, 168.38 86.85, 219.94 28.22 M123.9 144.8 C152.37 110.22, 182.33 78.5, 223.62 30.09 M123.9 144.8 C158.68 106.36, 191.77 66.59, 223.62 30.09 M128.88 145.16 C159.29 107.57, 191.78 74.17, 225.98 33.47 M128.88 145.16 C160.61 106.03, 194.19 68.42, 225.98 33.47 M134.53 144.77 C161.91 110.36, 193.47 77.65, 228.34 36.85 M134.53 144.77 C171.68 101.68, 208.42 60.41, 228.34 36.85 M140.17 144.37 C177.25 103.17, 212.37 62.85, 231.36 39.47 M140.17 144.37 C162.47 117.47, 185.43 92.47, 231.36 39.47 M145.81 143.98 C164.7 121.37, 184.95 101.92, 233.73 42.85 M145.81 143.98 C166.69 118.71, 189.01 93.3, 233.73 42.85 M152.77 142.08 C183.09 110.41, 208.53 77.46, 236.09 46.23 M152.77 142.08 C183.34 105.8, 214.65 69.85, 236.09 46.23 M160.38 139.42 C178.91 119.5, 194.19 98.53, 238.45 49.61 M160.38 139.42 C180.11 115.29, 201.07 90.27, 238.45 49.61 M167.34 137.51 C190.64 109.61, 216.72 79.09, 240.81 52.99 M167.34 137.51 C189.39 113.56, 211.11 88.69, 240.81 52.99 M174.29 135.61 C200.97 104.49, 227.51 75.07, 243.18 56.36 M174.29 135.61 C195.12 109.9, 216.48 86.33, 243.18 56.36 M181.25 133.7 C204.49 102.67, 231.71 76.94, 243.57 62.01 M181.25 133.7 C204.55 105.43, 228.85 78.27, 243.57 62.01 M188.86 131.05 C202.01 117.45, 214.89 103.86, 243.97 67.65 M188.86 131.05 C206.49 111.1, 225.19 88.91, 243.97 67.65 M195.81 129.14 C213.8 109.57, 234.38 86.1, 245.02 72.54 M195.81 129.14 C206.62 117.66, 216.94 105.03, 245.02 72.54 M208.67 120.45 C219.72 106.98, 231.38 96.52, 245.41 78.18 M208.67 120.45 C221.22 106.26, 234.18 90.28, 245.41 78.18 M221.53 111.75 C228.55 106.11, 231.2 99.65, 245.15 84.58 M221.53 111.75 C230.12 101.97, 238.54 93.29, 245.15 84.58" stroke="#96f2d7" stroke-width="0.5" fill="none"></path><path d="M140.39 1.17 C155.45 1.47, 171.55 6.16, 185.05 10.64 C198.55 15.12, 211.95 20.66, 221.37 28.04 C230.8 35.41, 237.8 45.7, 241.59 54.88 C245.38 64.07, 246.57 74.3, 244.11 83.16 C241.66 92.02, 234.86 100.44, 226.84 108.04 C218.83 115.65, 208.38 123.21, 196.01 128.77 C183.65 134.34, 167.88 138.96, 152.64 141.43 C137.4 143.9, 119.96 145.03, 104.59 143.6 C89.22 142.18, 73.68 137.64, 60.42 132.89 C47.16 128.13, 34.52 122.2, 25.03 115.06 C15.55 107.93, 7.5 98.96, 3.5 90.1 C-0.5 81.23, -1.28 70.92, 1.01 61.87 C3.31 52.82, 9.23 43.72, 17.25 35.8 C25.27 27.88, 36.68 19.88, 49.13 14.36 C61.58 8.84, 73.3 4.58, 91.96 2.68 C110.61 0.78, 146.68 1.74, 161.07 2.96 C175.47 4.18, 179.22 8.88, 178.34 9.99 M115.78 -1.25 C130.6 -3.05, 148.72 -0.51, 163.69 2.98 C178.65 6.47, 193.99 13.32, 205.59 19.71 C217.19 26.1, 226.67 33.04, 233.26 41.34 C239.85 49.64, 244.29 60.43, 245.13 69.51 C245.97 78.59, 243.81 87.12, 238.28 95.81 C232.74 104.51, 222.71 114.95, 211.93 121.68 C201.15 128.41, 187.79 132.33, 173.6 136.22 C159.42 140.11, 142.5 144.59, 126.8 145 C111.11 145.41, 93.9 142.12, 79.42 138.66 C64.94 135.21, 51.41 130.3, 39.94 124.27 C28.47 118.24, 17.46 110.79, 10.61 102.46 C3.75 94.13, -0.71 83.38, -1.2 74.31 C-1.7 65.23, 1.93 56.31, 7.61 48.02 C13.3 39.72, 22.55 31.36, 32.91 24.54 C43.27 17.72, 55.86 11.37, 69.75 7.1 C83.64 2.82, 108.6 -0.11, 116.25 -1.1 C123.9 -2.08, 115.42 -0.26, 115.65 1.19" stroke="#000000" stroke-width="1" fill="none"></path></g><g transform="translate(756.98302858632 228.61296932950103) rotate(0 57.421875 16.799999999999997)"><text x="57.421875" y="0" font-family="Cascadia, Segoe UI Emoji" font-size="28px" fill="#000000" text-anchor="middle" style="white-space: pre;" direction="ltr" dominant-baseline="text-before-edge">Scripts</text></g></svg>