<svg id="Layer_1" data-name="Layer 1" xmlns="http://www.w3.org/2000/svg" width="216.23" height="216.23" viewBox="0 0 216.23 216.23">
	<defs>
		<style>
			.cls-1 {
			fill: #00a064;
			}
		</style>
	</defs>
	<g>
		<path class="cls-1" d="M108.12,152.35c-4.59,0-7-2.44-13.29-2.44a25.78,25.78,0,0,0-7.64,1.68l2,6.1a15.45,15.45,0,0,1,5.65-1.37c4.43,0,6.72,2.44,13.29,2.44s8.85-2.44,13.13-2.44a15.45,15.45,0,0,1,5.65,1.37l2-6.1a24.75,24.75,0,0,0-7.63-1.68C115,149.91,112.7,152.35,108.12,152.35Z" />
		<path class="cls-1" d="M96.05,161.67,95,168.08a69.09,69.09,0,0,0,26.27,0l-1.07-6.41A58.74,58.74,0,0,1,96.05,161.67Z" />
		<path class="cls-1" d="M108.12,0A108.12,108.12,0,1,0,216.23,108.12,108.12,108.12,0,0,0,108.12,0ZM32.37,124.25,31.15,83.48h9.62l.92,40.77Zm104.46,48.26c-7,6.11-15.12,11.3-23.06,11.3h-11.3c-8,0-16.19-5.19-23.22-11.46V156.63l-13.74-17-.15-20.76L83.83,140l24.29-28.4L132.4,140l18.17-21.07.15,20.92-13.89,16.95Zm34-89-1.07,40.77-.15,9.16c-.31,20-15,39.56-26.57,46.89v-22l13.89-17v-62l-24.74,29.32L108.12,79.35,84,108.67,59.25,79.35v62.16L73,158.31v22c-11.6-7.49-26.11-26.88-26.42-46.89l-.15-9.16L45.35,83.48V83c0-34.51,28.25-60.93,62.77-60.93S170.88,48.51,170.88,83Zm13,40.77h-9.32l.92-40.77h9.62Z" />
	</g>
</svg>
